<?xml version="1.0" encoding="utf-8"?>
<!-- Generator: Adobe Illustrator 16.0.0, SVG Export Plug-In . SVG Version: 6.00 Build 0)  -->
<!DOCTYPE svg PUBLIC "-//W3C//DTD SVG 1.1//EN" "http://www.w3.org/Graphics/SVG/1.1/DTD/svg11.dtd">
<svg version="1.1" id="Layer_1" xmlns="http://www.w3.org/2000/svg" xmlns:xlink="http://www.w3.org/1999/xlink" x="0px" y="0px"
	 width="1400px" height="630px" viewBox="0 0 1400 630" enable-background="new 0 0 1400 630" xml:space="preserve">
<polygon fill="#14A8A8" points="507.736,376.649 440.938,493.424 842.299,493.424 771.999,376.649 "/>
<g>
	
		<image overflow="visible" width="805" height="344" xlink:href="AB4A2201.png"  transform="matrix(0.24 0 0 0.24 618.5137 338.4341)">
	</image>
</g>
<polygon fill="#5DC2B4" points="514.281,376.597 777.55,376.597 709.876,260.254 580.229,260.254 "/>
<g>
	
		<image overflow="visible" width="625" height="374" xlink:href="AB4A2203.png"  transform="matrix(0.24 0 0 0.24 536.0498 223.8218)">
	</image>
</g>
<polygon fill="#2EB690" points="639.03,147.372 575.046,260.254 704.692,260.254 "/>
<g>
	<g>
		<path fill="#FFFFFF" d="M845.919,155.154h2.301v8.628l8.773-8.628h2.98l-7.294,6.979l7.584,10.323h-2.907l-6.253-8.748
			l-2.884,2.689v6.059h-2.301V155.154z"/>
		<path fill="#FFFFFF" d="M866.752,159.637c3.974,0,6.082,2.884,6.082,6.567c0,3.659-2.108,6.543-6.082,6.543
			c-3.976,0-6.084-2.884-6.084-6.543C860.668,162.521,862.776,159.637,866.752,159.637z M866.752,170.93
			c2.155,0,3.9-1.696,3.9-4.726c0-3.054-1.745-4.75-3.9-4.75c-2.158,0-3.903,1.696-3.903,4.75
			C862.849,169.234,864.594,170.93,866.752,170.93z"/>
		<path fill="#FFFFFF" d="M879.588,174.128c-0.946,2.448-1.794,3.345-3.636,3.345c-0.484,0-0.97-0.049-1.429-0.219v-1.89
			c0.387,0.121,0.799,0.291,1.211,0.291c0.849,0,1.31-0.412,1.696-1.14l0.848-2.132l-4.967-12.456h2.326l3.66,10.25h0.047
			l3.514-10.25h2.182L879.588,174.128z"/>
		<path fill="#FFFFFF" d="M888.257,164.024c0,1.26,1.017,2.398,2.98,2.398c1.309,0,2.326-0.484,2.981-1.284v-5.21h2.06v12.528h-2.06
			v-5.646h-0.049c-0.897,0.92-2.182,1.429-3.515,1.429c-2.859,0-4.458-1.938-4.458-4.216v-4.096h2.06V164.024z"/>
		<path fill="#FFFFFF" d="M909.26,172.457h-1.938v-1.986h-0.049c-0.872,1.551-2.277,2.277-4.072,2.277
			c-3.296,0-4.313-1.89-4.313-4.58v-8.239h2.06v8.481c0,1.526,0.97,2.521,2.544,2.521c2.497,0,3.708-1.673,3.708-3.926v-7.076h2.06
			V172.457z"/>
		<path fill="#FFFFFF" d="M914.414,159.928v5.064h6.253v-5.064h2.06v12.528h-2.06v-5.646h-6.253v5.646h-2.059v-12.528H914.414z"/>
		<path fill="#FFFFFF" d="M925.482,163.563c0-2.617,2.229-3.926,5.064-3.926c2.23,0,4.726,0.945,4.726,3.466
			c0,2.302-2.036,2.98-4.022,3.563c-1.987,0.558-3.999,0.871-3.999,2.472c0,1.381,1.696,1.866,3.006,1.866
			c1.865,0,3.319-0.873,3.368-2.497h2.06c-0.121,2.908-2.398,4.241-5.55,4.241c-2.374,0-5.064-0.969-5.064-3.587
			c0-2.302,2.035-3.005,4.022-3.586c1.988-0.582,3.999-0.873,3.999-2.472c0-1.285-1.357-1.721-2.545-1.721
			c-1.623,0-2.98,0.654-3.005,2.181H925.482z"/>
	</g>
</g>
<g>
	<g>
		<path fill="#FFFFFF" d="M847.624,289.229h2.447l9.111,14.031h0.049v-14.031h2.182v17.303h-2.521l-9.039-13.886h-0.049v13.886
			h-2.181V289.229z"/>
		<path fill="#FFFFFF" d="M875.482,302.557c-0.558,2.764-2.544,4.266-5.355,4.266c-3.999,0-6.011-2.763-6.011-6.592
			c0-3.756,2.472-6.519,5.89-6.519c4.435,0,5.791,4.144,5.67,7.173h-9.379c-0.072,2.182,1.164,4.12,3.903,4.12
			c1.695,0,2.884-0.824,3.247-2.448H875.482z M873.494,299.068c-0.097-1.963-1.574-3.538-3.61-3.538
			c-2.155,0-3.441,1.624-3.587,3.538H873.494z"/>
		<path fill="#FFFFFF" d="M890.208,306.532h-2.181l-2.545-9.96h-0.049l-2.519,9.96h-2.23l-4.022-12.528h2.277l2.835,10.25h0.049
			l2.521-10.25h2.254l2.617,10.25h0.049l2.81-10.25h2.134L890.208,306.532z"/>
		<path fill="#FFFFFF" d="M899.021,294.003h2.495v1.817h-2.495v7.779c0,0.945,0.265,1.114,1.551,1.114h0.944v1.817h-1.575
			c-2.133,0-2.981-0.436-2.981-2.738v-7.973h-2.132v-1.817h2.132v-3.756h2.062V294.003z"/>
		<path fill="#FFFFFF" d="M903.717,294.003h1.938v2.642h0.05c0.993-2.012,2.375-3.006,4.604-2.933v2.181
			c-3.32,0-4.531,1.891-4.531,5.065v5.573h-2.06V294.003z"/>
		<path fill="#FFFFFF" d="M922.106,302.557c-0.558,2.764-2.546,4.266-5.355,4.266c-3.999,0-6.011-2.763-6.011-6.592
			c0-3.756,2.472-6.519,5.889-6.519c4.436,0,5.792,4.144,5.67,7.173h-9.378c-0.072,2.182,1.164,4.12,3.902,4.12
			c1.696,0,2.884-0.824,3.247-2.448H922.106z M920.118,299.068c-0.097-1.963-1.574-3.538-3.61-3.538
			c-2.156,0-3.441,1.624-3.587,3.538H920.118z"/>
		<path fill="#FFFFFF" d="M924.425,294.003h1.938v1.987h0.049c0.874-1.551,2.279-2.278,4.071-2.278c3.297,0,4.313,1.891,4.313,4.58
			v8.239h-2.06v-8.481c0-1.527-0.97-2.521-2.544-2.521c-2.497,0-3.708,1.672-3.708,3.926v7.076h-2.06V294.003z"/>
		<path fill="#FFFFFF" d="M949.087,306.532h-2.06v-1.696h-0.049c-0.679,1.381-2.277,1.987-3.999,1.987
			c-3.852,0-5.768-3.054-5.768-6.592s1.891-6.519,5.721-6.519c1.284,0,3.125,0.484,4.046,1.963h0.049v-6.446h2.06V306.532z
			 M943.271,305.005c2.764,0,3.83-2.375,3.83-4.726c0-2.473-1.115-4.75-3.95-4.75c-2.812,0-3.758,2.399-3.758,4.847
			C939.393,302.727,940.604,305.005,943.271,305.005z"/>
		<path fill="#FFFFFF" d="M964.027,289.229h2.544l6.761,17.303h-2.546l-1.889-5.21h-7.318l-1.939,5.21h-2.374L964.027,289.229z
			 M962.306,299.382h5.864l-2.885-8.069h-0.047L962.306,299.382z"/>
		<path fill="#FFFFFF" d="M985.488,305.465c0,4.071-1.865,6.155-5.815,6.155c-2.352,0-5.064-0.944-5.187-3.684h2.06
			c0.098,1.502,1.891,2.036,3.249,2.036c2.689,0,3.755-1.938,3.755-4.75V304.4h-0.049c-0.677,1.526-2.326,2.277-3.9,2.277
			c-3.732,0-5.599-2.933-5.599-6.35c0-2.956,1.454-6.615,5.793-6.615c1.574,0,2.979,0.702,3.73,2.084h0.024v-1.793h1.938V305.465z
			 M983.452,300.013c0-2.206-0.968-4.483-3.562-4.483c-2.642,0-3.708,2.157-3.708,4.556c0,2.254,0.824,4.774,3.539,4.774
			C982.436,304.86,983.452,302.364,983.452,300.013z"/>
		<path fill="#FFFFFF" d="M999.271,302.557c-0.558,2.764-2.546,4.266-5.355,4.266c-3.999,0-6.011-2.763-6.011-6.592
			c0-3.756,2.472-6.519,5.889-6.519c4.436,0,5.792,4.144,5.67,7.173h-9.378c-0.072,2.182,1.164,4.12,3.902,4.12
			c1.696,0,2.885-0.824,3.247-2.448H999.271z M997.282,299.068c-0.097-1.963-1.574-3.538-3.61-3.538
			c-2.156,0-3.441,1.624-3.587,3.538H997.282z"/>
		<path fill="#FFFFFF" d="M1001.589,294.003h1.938v1.987h0.049c0.874-1.551,2.279-2.278,4.071-2.278c3.297,0,4.313,1.891,4.313,4.58
			v8.239h-2.06v-8.481c0-1.527-0.97-2.521-2.544-2.521c-2.497,0-3.708,1.672-3.708,3.926v7.076h-2.06V294.003z"/>
		<path fill="#FFFFFF" d="M1023.562,298.026c-0.315-1.575-1.405-2.496-3.102-2.496c-2.982,0-3.903,2.352-3.903,4.896
			c0,2.302,1.043,4.58,3.66,4.58c1.986,0,3.174-1.163,3.441-3.054h2.108c-0.462,3.054-2.376,4.871-5.524,4.871
			c-3.83,0-5.866-2.666-5.866-6.397c0-3.757,1.939-6.713,5.913-6.713c2.835,0,5.114,1.333,5.404,4.313H1023.562z"/>
		<path fill="#FFFFFF" d="M1032.98,308.204c-0.946,2.448-1.794,3.344-3.636,3.344c-0.485,0-0.97-0.048-1.43-0.218v-1.891
			c0.387,0.122,0.8,0.292,1.212,0.292c0.848,0,1.309-0.412,1.696-1.14l0.848-2.132l-4.967-12.456h2.326l3.659,10.25h0.048
			l3.514-10.25h2.182L1032.98,308.204z"/>
	</g>
</g>
<g>
	<g>
		<path fill="#FFFFFF" d="M852.232,198.407h-1.007v-7.752h-2.808l-0.183,1.419c-0.242,1.888-0.453,3.27-0.637,4.142
			c-0.183,0.874-0.425,1.481-0.726,1.825c-0.299,0.343-0.695,0.51-1.192,0.502c-0.292,0-0.554-0.049-0.787-0.147v-0.846
			c0.213,0.103,0.436,0.153,0.669,0.153c0.208,0,0.391-0.085,0.546-0.257c0.155-0.171,0.294-0.469,0.414-0.893
			c0.119-0.424,0.271-1.229,0.456-2.412c0.183-1.186,0.385-2.646,0.604-4.379h4.649V198.407z"/>
		<path fill="#FFFFFF" d="M855.383,191.926v4.109l-0.04,1.076l-0.019,0.337l3.506-5.522h1.225v6.48h-0.917v-3.962l0.019-0.78
			l0.028-0.769l-3.501,5.511h-1.223v-6.48H855.383z"/>
		<path fill="#FFFFFF" d="M862.999,191.926v2.365c0,0.757,0.431,1.135,1.296,1.135c0.358,0,0.701-0.055,1.027-0.165
			c0.328-0.111,0.699-0.298,1.111-0.563v-2.772h0.983v6.48h-0.983v-2.933c-0.412,0.283-0.795,0.483-1.148,0.6
			s-0.752,0.175-1.198,0.175c-0.646,0-1.153-0.17-1.519-0.509c-0.368-0.339-0.551-0.798-0.551-1.378v-2.436H862.999z"/>
		<path fill="#FFFFFF" d="M870.48,191.926v2.714h3.631v-2.714h0.981v6.48h-0.981v-2.921h-3.631v2.921h-0.981v-6.48H870.48z"/>
		<path fill="#FFFFFF" d="M882.768,195.161c0,1.057-0.266,1.881-0.799,2.474c-0.53,0.594-1.268,0.891-2.205,0.891
			c-0.579,0-1.093-0.136-1.542-0.408c-0.45-0.271-0.798-0.662-1.041-1.171c-0.245-0.508-0.368-1.104-0.368-1.785
			c0-1.057,0.265-1.88,0.794-2.47c0.527-0.589,1.26-0.883,2.199-0.883c0.906,0,1.627,0.301,2.161,0.904
			S882.768,194.131,882.768,195.161z M877.829,195.161c0,0.827,0.166,1.459,0.497,1.892c0.331,0.434,0.819,0.65,1.461,0.65
			c0.643,0,1.131-0.215,1.464-0.647c0.332-0.431,0.5-1.063,0.5-1.895c0-0.824-0.168-1.45-0.5-1.878
			c-0.333-0.428-0.825-0.642-1.476-0.642c-0.642,0-1.127,0.212-1.454,0.633C877.993,193.696,877.829,194.325,877.829,195.161z"/>
		<path fill="#FFFFFF" d="M887.077,198.525c-0.938,0-1.664-0.289-2.179-0.866c-0.514-0.577-0.772-1.395-0.772-2.451
			c0-1.084,0.262-1.922,0.784-2.513c0.521-0.592,1.267-0.887,2.233-0.887c0.311,0,0.621,0.033,0.933,0.101
			c0.313,0.066,0.558,0.146,0.733,0.236l-0.301,0.833c-0.217-0.087-0.453-0.158-0.71-0.216c-0.257-0.057-0.483-0.085-0.679-0.085
			c-1.318,0-1.978,0.839-1.978,2.519c0,0.797,0.163,1.407,0.483,1.833c0.321,0.426,0.798,0.639,1.428,0.639
			c0.541,0,1.093-0.116,1.661-0.349v0.869C888.282,198.413,887.736,198.525,887.077,198.525z"/>
		<path fill="#FFFFFF" d="M894.621,192.766h-2.105v5.641h-0.979v-5.641h-2.082v-0.84h5.167V192.766z"/>
		<path fill="#FFFFFF" d="M896.887,191.926v2.714h3.63v-2.714h0.982v6.48h-0.982v-2.921h-3.63v2.921h-0.981v-6.48H896.887z"/>
		<path fill="#FFFFFF" d="M909.174,195.161c0,1.057-0.266,1.881-0.799,2.474c-0.531,0.594-1.268,0.891-2.205,0.891
			c-0.579,0-1.093-0.136-1.542-0.408c-0.45-0.271-0.798-0.662-1.041-1.171c-0.245-0.508-0.368-1.104-0.368-1.785
			c0-1.057,0.265-1.88,0.794-2.47c0.527-0.589,1.26-0.883,2.199-0.883c0.906,0,1.627,0.301,2.161,0.904
			S909.174,194.131,909.174,195.161z M904.235,195.161c0,0.827,0.166,1.459,0.497,1.892c0.331,0.434,0.819,0.65,1.461,0.65
			c0.643,0,1.131-0.215,1.463-0.647c0.333-0.431,0.5-1.063,0.5-1.895c0-0.824-0.167-1.45-0.5-1.878
			c-0.332-0.428-0.824-0.642-1.475-0.642c-0.642,0-1.127,0.212-1.454,0.633C904.399,193.696,904.235,194.325,904.235,195.161z"/>
		<path fill="#FFFFFF" d="M914.962,191.926v4.109l-0.041,1.076l-0.019,0.337l3.506-5.522h1.225v6.48h-0.917v-3.962l0.019-0.78
			l0.028-0.769l-3.5,5.511h-1.224v-6.48H914.962z"/>
		<path fill="#FFFFFF" d="M930.454,195.161c0,1.057-0.266,1.881-0.799,2.474c-0.53,0.594-1.268,0.891-2.205,0.891
			c-0.579,0-1.093-0.136-1.542-0.408c-0.45-0.271-0.798-0.662-1.041-1.171c-0.245-0.508-0.368-1.104-0.368-1.785
			c0-1.057,0.265-1.88,0.794-2.47c0.527-0.589,1.26-0.883,2.199-0.883c0.906,0,1.627,0.301,2.161,0.904
			S930.454,194.131,930.454,195.161z M925.516,195.161c0,0.827,0.166,1.459,0.497,1.892c0.331,0.434,0.819,0.65,1.461,0.65
			c0.643,0,1.131-0.215,1.463-0.647c0.333-0.431,0.501-1.063,0.501-1.895c0-0.824-0.168-1.45-0.501-1.878
			c-0.332-0.428-0.824-0.642-1.475-0.642c-0.642,0-1.127,0.212-1.454,0.633C925.68,193.696,925.516,194.325,925.516,195.161z"/>
		<path fill="#FFFFFF" d="M935.189,198.525c-0.422,0-0.808-0.077-1.155-0.233c-0.35-0.156-0.643-0.395-0.879-0.719h-0.07
			c0.047,0.379,0.07,0.737,0.07,1.076v2.667h-0.981v-9.39h0.798l0.137,0.887h0.047c0.252-0.354,0.546-0.61,0.881-0.769
			c0.336-0.158,0.72-0.236,1.153-0.236c0.86,0,1.522,0.294,1.99,0.881c0.467,0.587,0.701,1.411,0.701,2.472
			c0,1.064-0.238,1.892-0.713,2.48S936.032,198.525,935.189,198.525z M935.048,192.641c-0.662,0-1.141,0.184-1.438,0.55
			c-0.294,0.367-0.446,0.951-0.455,1.751v0.219c0,0.91,0.152,1.562,0.455,1.954c0.304,0.393,0.79,0.588,1.461,0.588
			c0.56,0,0.999-0.226,1.316-0.68c0.317-0.453,0.477-1.078,0.477-1.874c0-0.809-0.159-1.429-0.477-1.859
			C936.07,192.857,935.624,192.641,935.048,192.641z"/>
		<path fill="#FFFFFF" d="M943.497,192.766h-2.922v5.641h-0.981v-6.48h3.903V192.766z"/>
		<path fill="#FFFFFF" d="M948.766,198.407l-0.193-0.923h-0.048c-0.324,0.406-0.646,0.682-0.968,0.825
			c-0.321,0.145-0.722,0.216-1.203,0.216c-0.642,0-1.146-0.165-1.511-0.497c-0.364-0.331-0.547-0.802-0.547-1.413
			c0-1.309,1.046-1.994,3.141-2.058l1.098-0.035v-0.402c0-0.509-0.107-0.885-0.327-1.126c-0.218-0.243-0.567-0.364-1.049-0.364
			c-0.541,0-1.151,0.166-1.834,0.497l-0.3-0.751c0.317-0.173,0.669-0.31,1.049-0.408s0.762-0.147,1.144-0.147
			c0.772,0,1.345,0.171,1.718,0.514c0.372,0.344,0.56,0.894,0.56,1.65v4.423H948.766z M946.548,197.715
			c0.611,0,1.092-0.168,1.441-0.503c0.348-0.336,0.521-0.805,0.521-1.407v-0.586l-0.979,0.042c-0.78,0.027-1.345,0.148-1.689,0.363
			s-0.518,0.549-0.518,1.002c0,0.355,0.108,0.626,0.323,0.811S946.163,197.715,946.548,197.715z"/>
		<path fill="#FFFFFF" d="M952.496,191.926v2.714h3.631v-2.714h0.981v6.48h-0.981v-2.921h-3.631v2.921h-0.981v-6.48H952.496z"/>
		<path fill="#FFFFFF" d="M960.112,191.926v4.109l-0.04,1.076l-0.019,0.337l3.505-5.522h1.226v6.48h-0.918v-3.962l0.019-0.78
			l0.029-0.769l-3.501,5.511h-1.223v-6.48H960.112z"/>
		<path fill="#FFFFFF" d="M968.102,194.617c1.226,0,1.839-0.339,1.839-1.018c0-0.639-0.497-0.958-1.49-0.958
			c-0.305,0-0.58,0.028-0.828,0.083s-0.574,0.166-0.977,0.331l-0.348-0.798c0.671-0.3,1.402-0.449,2.192-0.449
			c0.747,0,1.333,0.152,1.764,0.457c0.43,0.307,0.644,0.724,0.644,1.251c0,0.727-0.403,1.201-1.211,1.426v0.047
			c0.497,0.146,0.858,0.354,1.088,0.624c0.229,0.27,0.342,0.607,0.342,1.014c0,0.6-0.24,1.065-0.724,1.398
			c-0.483,0.334-1.15,0.5-2.002,0.5c-0.935,0-1.655-0.141-2.164-0.42v-0.898c0.722,0.339,1.451,0.509,2.188,0.509
			c0.568,0,0.997-0.098,1.286-0.294c0.29-0.194,0.436-0.476,0.436-0.842c0-0.753-0.613-1.13-1.84-1.13h-0.898v-0.833H968.102z"/>
		<path fill="#FFFFFF" d="M976.699,198.407l-0.194-0.923h-0.047c-0.324,0.406-0.647,0.682-0.968,0.825
			c-0.321,0.145-0.722,0.216-1.203,0.216c-0.643,0-1.146-0.165-1.511-0.497c-0.364-0.331-0.547-0.802-0.547-1.413
			c0-1.309,1.046-1.994,3.141-2.058l1.098-0.035v-0.402c0-0.509-0.107-0.885-0.327-1.126c-0.218-0.243-0.568-0.364-1.05-0.364
			c-0.54,0-1.15,0.166-1.833,0.497l-0.301-0.751c0.318-0.173,0.669-0.31,1.05-0.408c0.38-0.099,0.762-0.147,1.144-0.147
			c0.772,0,1.345,0.171,1.718,0.514c0.372,0.344,0.56,0.894,0.56,1.65v4.423H976.699z M974.481,197.715
			c0.611,0,1.091-0.168,1.441-0.503c0.348-0.336,0.521-0.805,0.521-1.407v-0.586l-0.979,0.042c-0.781,0.027-1.345,0.148-1.689,0.363
			s-0.518,0.549-0.518,1.002c0,0.355,0.108,0.626,0.323,0.811C973.795,197.622,974.096,197.715,974.481,197.715z"/>
		<path fill="#FFFFFF" d="M985.771,200.648h-0.983v-2.241h-5.339v-6.48h0.981v5.635h3.441v-5.635h0.981v5.635h0.918V200.648z"/>
		<path fill="#FFFFFF" d="M987.951,191.926v4.109l-0.04,1.076l-0.019,0.337l3.505-5.522h1.226v6.48h-0.918v-3.962l0.019-0.78
			l0.029-0.769l-3.501,5.511h-1.223v-6.48H987.951z"/>
		<path fill="#FFFFFF" d="M1000.298,195.161c0,1.057-0.266,1.881-0.799,2.474c-0.531,0.594-1.268,0.891-2.205,0.891
			c-0.579,0-1.093-0.136-1.542-0.408c-0.45-0.271-0.798-0.662-1.041-1.171c-0.245-0.508-0.368-1.104-0.368-1.785
			c0-1.057,0.265-1.88,0.794-2.47c0.527-0.589,1.26-0.883,2.199-0.883c0.906,0,1.627,0.301,2.161,0.904
			S1000.298,194.131,1000.298,195.161z M995.359,195.161c0,0.827,0.166,1.459,0.497,1.892c0.331,0.434,0.819,0.65,1.461,0.65
			c0.643,0,1.131-0.215,1.463-0.647c0.333-0.431,0.5-1.063,0.5-1.895c0-0.824-0.167-1.45-0.5-1.878
			c-0.332-0.428-0.824-0.642-1.475-0.642c-0.642,0-1.127,0.212-1.454,0.633C995.523,193.696,995.359,194.325,995.359,195.161z"/>
		<path fill="#FFFFFF" d="M1003.001,191.926v2.714h3.631v-2.714h0.981v6.48h-0.981v-2.921h-3.631v2.921h-0.981v-6.48H1003.001z"/>
		<path fill="#FFFFFF" d="M1010.676,191.926v2.714h3.631v-2.714h0.981v6.48h-0.981v-2.921h-3.631v2.921h-0.981v-6.48H1010.676z"/>
		<path fill="#FFFFFF" d="M1022.964,195.161c0,1.057-0.266,1.881-0.8,2.474c-0.53,0.594-1.267,0.891-2.204,0.891
			c-0.58,0-1.094-0.136-1.543-0.408c-0.449-0.271-0.797-0.662-1.04-1.171c-0.245-0.508-0.369-1.104-0.369-1.785
			c0-1.057,0.266-1.88,0.794-2.47c0.527-0.589,1.261-0.883,2.2-0.883c0.905,0,1.627,0.301,2.161,0.904
			C1022.696,193.316,1022.964,194.131,1022.964,195.161z M1018.025,195.161c0,0.827,0.165,1.459,0.496,1.892
			c0.332,0.434,0.82,0.65,1.462,0.65s1.13-0.215,1.463-0.647c0.333-0.431,0.5-1.063,0.5-1.895c0-0.824-0.167-1.45-0.5-1.878
			s-0.824-0.642-1.475-0.642c-0.643,0-1.127,0.212-1.455,0.633C1018.189,193.696,1018.025,194.325,1018.025,195.161z"/>
		<path fill="#FFFFFF" d="M1030.847,198.525c-0.423,0-0.808-0.077-1.156-0.233c-0.35-0.156-0.642-0.395-0.878-0.719h-0.071
			c0.048,0.379,0.071,0.737,0.071,1.076v2.667h-0.981v-9.39h0.797l0.137,0.887h0.048c0.252-0.354,0.546-0.61,0.88-0.769
			c0.336-0.158,0.72-0.236,1.154-0.236c0.859,0,1.522,0.294,1.99,0.881c0.466,0.587,0.701,1.411,0.701,2.472
			c0,1.064-0.238,1.892-0.713,2.48S1031.689,198.525,1030.847,198.525z M1030.704,192.641c-0.662,0-1.14,0.184-1.438,0.55
			c-0.294,0.367-0.445,0.951-0.454,1.751v0.219c0,0.91,0.152,1.562,0.454,1.954c0.305,0.393,0.791,0.588,1.462,0.588
			c0.559,0,0.998-0.226,1.315-0.68c0.318-0.453,0.477-1.078,0.477-1.874c0-0.809-0.158-1.429-0.477-1.859
			C1031.727,192.857,1031.28,192.641,1030.704,192.641z"/>
		<path fill="#FFFFFF" d="M1039.236,198.407l-0.194-0.923h-0.047c-0.325,0.406-0.647,0.682-0.969,0.825
			c-0.32,0.145-0.721,0.216-1.202,0.216c-0.643,0-1.146-0.165-1.511-0.497c-0.365-0.331-0.548-0.802-0.548-1.413
			c0-1.309,1.046-1.994,3.141-2.058l1.099-0.035v-0.402c0-0.509-0.108-0.885-0.328-1.126c-0.218-0.243-0.567-0.364-1.049-0.364
			c-0.541,0-1.15,0.166-1.833,0.497l-0.301-0.751c0.317-0.173,0.669-0.31,1.049-0.408c0.381-0.099,0.763-0.147,1.145-0.147
			c0.771,0,1.345,0.171,1.718,0.514c0.372,0.344,0.56,0.894,0.56,1.65v4.423H1039.236z M1037.019,197.715
			c0.611,0,1.091-0.168,1.44-0.503c0.349-0.336,0.522-0.805,0.522-1.407v-0.586l-0.98,0.042c-0.78,0.027-1.345,0.148-1.689,0.363
			s-0.517,0.549-0.517,1.002c0,0.355,0.108,0.626,0.322,0.811C1036.332,197.622,1036.633,197.715,1037.019,197.715z"/>
		<path fill="#FFFFFF" d="M1043.222,194.617c1.225,0,1.838-0.339,1.838-1.018c0-0.639-0.496-0.958-1.49-0.958
			c-0.304,0-0.579,0.028-0.827,0.083c-0.249,0.055-0.574,0.166-0.977,0.331l-0.349-0.798c0.671-0.3,1.402-0.449,2.193-0.449
			c0.747,0,1.333,0.152,1.764,0.457c0.43,0.307,0.644,0.724,0.644,1.251c0,0.727-0.403,1.201-1.211,1.426v0.047
			c0.496,0.146,0.858,0.354,1.088,0.624c0.228,0.27,0.341,0.607,0.341,1.014c0,0.6-0.239,1.065-0.723,1.398
			c-0.483,0.334-1.15,0.5-2.002,0.5c-0.935,0-1.656-0.141-2.164-0.42v-0.898c0.721,0.339,1.451,0.509,2.188,0.509
			c0.567,0,0.997-0.098,1.286-0.294c0.29-0.194,0.436-0.476,0.436-0.842c0-0.753-0.613-1.13-1.84-1.13h-0.898v-0.833H1043.222z"/>
		<path fill="#FFFFFF" d="M1053.092,193.552c0,0.421-0.122,0.742-0.365,0.96c-0.241,0.22-0.581,0.366-1.021,0.441v0.053
			c0.553,0.075,0.956,0.237,1.21,0.485c0.255,0.248,0.382,0.591,0.382,1.028c0,0.604-0.222,1.069-0.666,1.396
			c-0.442,0.327-1.091,0.491-1.942,0.491h-2.855v-6.48h2.845C1052.287,191.926,1053.092,192.468,1053.092,193.552z
			 M1052.132,193.647c0-0.315-0.12-0.539-0.363-0.672c-0.241-0.132-0.609-0.197-1.104-0.197h-1.85v1.827h1.661
			c0.607,0,1.035-0.075,1.283-0.225C1052.009,194.23,1052.132,193.986,1052.132,193.647z M1052.316,196.456
			c0-0.351-0.134-0.606-0.399-0.766c-0.267-0.16-0.707-0.24-1.322-0.24h-1.779v2.135h1.803
			C1051.75,197.584,1052.316,197.208,1052.316,196.456z"/>
		<path fill="#FFFFFF" d="M1055.646,191.926v4.109l-0.04,1.076l-0.019,0.337l3.506-5.522h1.225v6.48h-0.917v-3.962l0.019-0.78
			l0.028-0.769l-3.501,5.511h-1.223v-6.48H1055.646z"/>
		<path fill="#FFFFFF" d="M1066.768,192.766h-2.105v5.641h-0.979v-5.641h-2.081v-0.84h5.166V192.766z"/>
		<path fill="#FFFFFF" d="M1068.974,191.926v4.109l-0.04,1.076l-0.019,0.337l3.506-5.522h1.225v6.48h-0.917v-3.962l0.019-0.78
			l0.028-0.769l-3.501,5.511h-1.223v-6.48H1068.974z"/>
		<path fill="#FFFFFF" d="M1078.464,198.525c-0.956,0-1.713-0.291-2.268-0.875c-0.554-0.584-0.831-1.394-0.831-2.431
			c0-1.045,0.259-1.874,0.772-2.489c0.515-0.615,1.206-0.922,2.072-0.922c0.813,0,1.455,0.267,1.928,0.801
			c0.474,0.534,0.71,1.239,0.71,2.114v0.62h-4.465c0.02,0.762,0.212,1.339,0.577,1.733s0.879,0.591,1.541,0.591
			c0.696,0,1.387-0.146,2.067-0.438v0.875c-0.346,0.149-0.674,0.258-0.982,0.322
			C1079.276,198.493,1078.903,198.525,1078.464,198.525z M1078.198,192.629c-0.521,0-0.936,0.17-1.245,0.509
			c-0.309,0.339-0.491,0.809-0.547,1.407h3.389c0-0.619-0.139-1.093-0.414-1.422S1078.71,192.629,1078.198,192.629z"/>
		<path fill="#FFFFFF" d="M1082.38,197.78c0-0.265,0.061-0.465,0.181-0.6c0.12-0.137,0.292-0.204,0.517-0.204
			c0.229,0,0.407,0.067,0.536,0.204c0.128,0.135,0.192,0.335,0.192,0.6c0,0.256-0.065,0.454-0.196,0.592
			c-0.13,0.138-0.307,0.207-0.532,0.207c-0.2,0-0.368-0.063-0.5-0.188C1082.445,198.268,1082.38,198.064,1082.38,197.78z"/>
		<path fill="#FFFFFF" d="M849.783,205.068c-0.95,0-1.7,0.317-2.249,0.949c-0.551,0.634-0.826,1.499-0.826,2.599
			c0,1.132,0.266,2.006,0.796,2.623s1.285,0.925,2.269,0.925c0.602,0,1.291-0.107,2.063-0.325v0.882
			c-0.6,0.225-1.338,0.337-2.218,0.337c-1.272,0-2.256-0.387-2.946-1.159c-0.692-0.773-1.037-1.87-1.037-3.294
			c0-0.891,0.165-1.672,0.498-2.342c0.333-0.669,0.814-1.187,1.442-1.549c0.629-0.362,1.37-0.544,2.222-0.544
			c0.906,0,1.698,0.166,2.376,0.497l-0.426,0.863C851.092,205.222,850.438,205.068,849.783,205.068z"/>
		<path fill="#FFFFFF" d="M856.311,213.057c-0.956,0-1.713-0.292-2.267-0.875c-0.555-0.584-0.832-1.395-0.832-2.431
			c0-1.045,0.259-1.875,0.772-2.489c0.516-0.615,1.206-0.923,2.073-0.923c0.813,0,1.454,0.268,1.928,0.801
			c0.473,0.535,0.709,1.239,0.709,2.114v0.621h-4.465c0.021,0.761,0.213,1.338,0.578,1.732c0.364,0.395,0.878,0.592,1.54,0.592
			c0.696,0,1.388-0.146,2.068-0.438v0.875c-0.347,0.149-0.674,0.258-0.983,0.321C857.123,213.025,856.75,213.057,856.311,213.057z
			 M856.046,207.162c-0.521,0-0.937,0.17-1.245,0.509c-0.31,0.338-0.492,0.808-0.548,1.407h3.389c0-0.619-0.138-1.094-0.413-1.422
			C856.953,207.327,856.558,207.162,856.046,207.162z"/>
		<path fill="#FFFFFF" d="M860.031,209.053c0-1.419,0.209-2.525,0.628-3.32c0.418-0.794,1.08-1.29,1.987-1.486
			c1.127-0.241,2.12-0.437,2.979-0.586l0.183,0.863c-1.368,0.229-2.345,0.41-2.933,0.544c-0.571,0.131-1,0.438-1.286,0.923
			c-0.285,0.484-0.442,1.146-0.471,1.98h0.07c0.245-0.331,0.562-0.591,0.946-0.78c0.387-0.189,0.791-0.284,1.213-0.284
			c0.796,0,1.418,0.259,1.862,0.775c0.446,0.516,0.669,1.231,0.669,2.146c0,1.013-0.259,1.804-0.773,2.373
			c-0.518,0.57-1.237,0.855-2.159,0.855c-0.911,0-1.624-0.35-2.141-1.047C860.289,211.312,860.031,210.327,860.031,209.053z
			 M863.035,212.235c1.202,0,1.804-0.767,1.804-2.3c0-1.463-0.546-2.194-1.639-2.194c-0.299,0-0.588,0.062-0.865,0.187
			c-0.278,0.124-0.532,0.288-0.764,0.494c-0.229,0.205-0.408,0.415-0.533,0.632c0,1.037,0.162,1.827,0.489,2.368
			C861.855,211.963,862.357,212.235,863.035,212.235z"/>
		<path fill="#FFFFFF" d="M870.326,213.057c-0.956,0-1.713-0.292-2.267-0.875c-0.555-0.584-0.831-1.395-0.831-2.431
			c0-1.045,0.258-1.875,0.771-2.489c0.516-0.615,1.206-0.923,2.073-0.923c0.813,0,1.454,0.268,1.928,0.801
			c0.473,0.535,0.709,1.239,0.709,2.114v0.621h-4.465c0.021,0.761,0.213,1.338,0.578,1.732c0.364,0.395,0.878,0.592,1.54,0.592
			c0.696,0,1.388-0.146,2.068-0.438v0.875c-0.347,0.149-0.674,0.258-0.983,0.321C871.139,213.025,870.766,213.057,870.326,213.057z
			 M870.062,207.162c-0.521,0-0.937,0.17-1.245,0.509c-0.31,0.338-0.492,0.808-0.548,1.407h3.39c0-0.619-0.139-1.094-0.414-1.422
			C870.969,207.327,870.573,207.162,870.062,207.162z"/>
		<path fill="#FFFFFF" d="M875.366,212.939h-0.981v-6.481h5.439v6.481h-0.993v-5.63h-3.465V212.939z"/>
		<path fill="#FFFFFF" d="M887.5,209.692c0,1.057-0.266,1.882-0.8,2.475c-0.53,0.594-1.267,0.891-2.204,0.891
			c-0.58,0-1.093-0.137-1.543-0.408c-0.449-0.272-0.797-0.662-1.04-1.171c-0.245-0.509-0.368-1.104-0.368-1.786
			c0-1.057,0.265-1.879,0.794-2.469c0.526-0.589,1.26-0.884,2.199-0.884c0.905,0,1.627,0.302,2.161,0.905
			C887.232,207.847,887.5,208.664,887.5,209.692z M882.562,209.692c0,0.828,0.166,1.459,0.497,1.893s0.819,0.65,1.461,0.65
			s1.13-0.216,1.463-0.647s0.5-1.063,0.5-1.896c0-0.823-0.167-1.449-0.5-1.878c-0.333-0.427-0.824-0.641-1.475-0.641
			c-0.642,0-1.127,0.211-1.455,0.633C882.726,208.227,882.562,208.857,882.562,209.692z"/>
		<path fill="#FFFFFF" d="M890.458,209.148c1.225,0,1.838-0.339,1.838-1.017c0-0.639-0.496-0.958-1.49-0.958
			c-0.304,0-0.579,0.027-0.827,0.083c-0.249,0.055-0.575,0.165-0.977,0.331l-0.349-0.799c0.671-0.3,1.402-0.449,2.193-0.449
			c0.747,0,1.333,0.153,1.764,0.458c0.429,0.306,0.644,0.723,0.644,1.251c0,0.726-0.403,1.2-1.211,1.425v0.048
			c0.496,0.146,0.858,0.354,1.088,0.623c0.228,0.271,0.341,0.608,0.341,1.015c0,0.599-0.239,1.065-0.723,1.398s-1.15,0.5-2.002,0.5
			c-0.935,0-1.656-0.141-2.164-0.42v-0.899c0.721,0.339,1.451,0.509,2.188,0.509c0.567,0,0.997-0.097,1.286-0.293
			c0.29-0.194,0.436-0.476,0.436-0.842c0-0.753-0.613-1.13-1.84-1.13h-0.898v-0.834H890.458z"/>
		<path fill="#FFFFFF" d="M896.052,206.458v2.715h3.631v-2.715h0.981v6.481h-0.981v-2.922h-3.631v2.922h-0.981v-6.481H896.052z"/>
		<path fill="#FFFFFF" d="M906.73,212.939l-0.194-0.923h-0.047c-0.324,0.406-0.647,0.681-0.968,0.824
			c-0.321,0.145-0.722,0.217-1.203,0.217c-0.642,0-1.146-0.166-1.511-0.497c-0.364-0.331-0.547-0.803-0.547-1.413
			c0-1.309,1.046-1.994,3.141-2.058l1.098-0.036v-0.401c0-0.509-0.107-0.885-0.327-1.126c-0.218-0.243-0.568-0.364-1.05-0.364
			c-0.54,0-1.15,0.165-1.833,0.496l-0.301-0.751c0.318-0.173,0.669-0.309,1.05-0.407c0.38-0.1,0.762-0.148,1.144-0.148
			c0.772,0,1.345,0.172,1.718,0.515c0.372,0.343,0.56,0.893,0.56,1.649v4.424H906.73z M904.513,212.247
			c0.611,0,1.091-0.167,1.441-0.503c0.348-0.335,0.521-0.804,0.521-1.407v-0.585l-0.979,0.041c-0.781,0.028-1.345,0.149-1.689,0.363
			c-0.345,0.216-0.518,0.55-0.518,1.003c0,0.354,0.108,0.625,0.323,0.811C903.826,212.154,904.127,212.247,904.513,212.247z"/>
		<path fill="#FFFFFF" d="M910.463,206.458v2.715h3.631v-2.715h0.981v6.481h-0.981v-2.922h-3.631v2.922h-0.981v-6.481H910.463z"/>
		<path fill="#FFFFFF" d="M918.079,206.458v4.11l-0.041,1.076l-0.019,0.337l3.506-5.523h1.225v6.481h-0.917v-3.962l0.019-0.781
			l0.028-0.769l-3.5,5.512h-1.224v-6.481H918.079z"/>
		<path fill="#FFFFFF" d="M927.568,213.057c-0.956,0-1.713-0.292-2.267-0.875c-0.555-0.584-0.832-1.395-0.832-2.431
			c0-1.045,0.259-1.875,0.772-2.489c0.516-0.615,1.206-0.923,2.073-0.923c0.813,0,1.454,0.268,1.928,0.801
			c0.473,0.535,0.709,1.239,0.709,2.114v0.621h-4.465c0.021,0.761,0.213,1.338,0.577,1.732c0.365,0.395,0.879,0.592,1.541,0.592
			c0.696,0,1.388-0.146,2.068-0.438v0.875c-0.347,0.149-0.675,0.258-0.983,0.321C928.381,213.025,928.008,213.057,927.568,213.057z
			 M927.304,207.162c-0.521,0-0.937,0.17-1.245,0.509c-0.31,0.338-0.492,0.808-0.548,1.407h3.389c0-0.619-0.138-1.094-0.413-1.422
			C928.211,207.327,927.815,207.162,927.304,207.162z"/>
		<path fill="#FFFFFF" d="M931.484,212.312c0-0.265,0.062-0.465,0.181-0.6c0.12-0.138,0.293-0.205,0.518-0.205
			c0.228,0,0.407,0.067,0.535,0.205c0.129,0.135,0.192,0.335,0.192,0.6c0,0.256-0.065,0.453-0.195,0.591s-0.308,0.207-0.532,0.207
			c-0.201,0-0.368-0.062-0.5-0.187C931.551,212.8,931.484,212.595,931.484,212.312z"/>
		<path fill="#FFFFFF" d="M943.75,210.419c0,0.859-0.257,1.494-0.767,1.904c-0.511,0.409-1.281,0.615-2.308,0.615h-2.531v-8.646
			h5.096v0.893h-4.092v2.797h1.343c0.76,0,1.38,0.088,1.856,0.264c0.477,0.175,0.83,0.435,1.058,0.777
			C943.635,209.367,943.75,209.833,943.75,210.419z M939.148,212.069h1.414c0.748,0,1.294-0.128,1.635-0.384
			c0.342-0.256,0.512-0.679,0.512-1.266c0-0.56-0.174-0.958-0.52-1.194c-0.349-0.236-0.953-0.354-1.816-0.354h-1.225V212.069z"/>
		<path fill="#FFFFFF" d="M949.401,212.939l-0.194-0.923h-0.047c-0.325,0.406-0.647,0.681-0.969,0.824
			c-0.32,0.145-0.721,0.217-1.202,0.217c-0.643,0-1.146-0.166-1.511-0.497s-0.548-0.803-0.548-1.413
			c0-1.309,1.046-1.994,3.141-2.058l1.099-0.036v-0.401c0-0.509-0.108-0.885-0.328-1.126c-0.218-0.243-0.567-0.364-1.049-0.364
			c-0.541,0-1.15,0.165-1.833,0.496l-0.301-0.751c0.317-0.173,0.669-0.309,1.049-0.407c0.381-0.1,0.763-0.148,1.145-0.148
			c0.771,0,1.345,0.172,1.718,0.515c0.372,0.343,0.56,0.893,0.56,1.649v4.424H949.401z M947.183,212.247
			c0.612,0,1.092-0.167,1.441-0.503c0.349-0.335,0.522-0.804,0.522-1.407v-0.585l-0.98,0.041c-0.78,0.028-1.345,0.149-1.689,0.363
			c-0.345,0.216-0.517,0.55-0.517,1.003c0,0.354,0.108,0.625,0.322,0.811C946.497,212.154,946.798,212.247,947.183,212.247z"/>
		<path fill="#FFFFFF" d="M956.981,212.939h-0.993v-5.642h-1.946c-0.106,1.403-0.253,2.518-0.442,3.341
			c-0.189,0.824-0.436,1.427-0.736,1.81c-0.303,0.383-0.687,0.573-1.15,0.573c-0.213,0-0.382-0.023-0.509-0.07v-0.728
			c0.086,0.023,0.186,0.035,0.296,0.035c0.452,0,0.813-0.479,1.083-1.437c0.267-0.958,0.47-2.413,0.607-4.364h3.791V212.939z"/>
		<path fill="#FFFFFF" d="M963.049,212.939l-0.194-0.923h-0.047c-0.325,0.406-0.647,0.681-0.969,0.824
			c-0.32,0.145-0.721,0.217-1.203,0.217c-0.642,0-1.145-0.166-1.51-0.497s-0.548-0.803-0.548-1.413c0-1.309,1.046-1.994,3.141-2.058
			l1.099-0.036v-0.401c0-0.509-0.108-0.885-0.328-1.126c-0.218-0.243-0.567-0.364-1.049-0.364c-0.541,0-1.15,0.165-1.833,0.496
			l-0.301-0.751c0.317-0.173,0.669-0.309,1.049-0.407c0.381-0.1,0.763-0.148,1.145-0.148c0.771,0,1.345,0.172,1.718,0.515
			c0.372,0.343,0.56,0.893,0.56,1.649v4.424H963.049z M960.83,212.247c0.612,0,1.092-0.167,1.441-0.503
			c0.348-0.335,0.522-0.804,0.522-1.407v-0.585l-0.98,0.041c-0.78,0.028-1.345,0.149-1.689,0.363
			c-0.345,0.216-0.517,0.55-0.517,1.003c0,0.354,0.108,0.625,0.322,0.811C960.145,212.154,960.445,212.247,960.83,212.247z"/>
		<path fill="#FFFFFF" d="M966.779,206.458v2.715h3.631v-2.715h0.981v6.481h-0.981v-2.922h-3.631v2.922h-0.981v-6.481H966.779z"/>
		<path fill="#FFFFFF" d="M976.063,213.057c-0.938,0-1.664-0.289-2.18-0.867c-0.514-0.577-0.771-1.394-0.771-2.45
			c0-1.084,0.262-1.922,0.784-2.514c0.521-0.591,1.267-0.887,2.233-0.887c0.311,0,0.621,0.034,0.933,0.101
			c0.313,0.066,0.557,0.146,0.732,0.236l-0.301,0.834c-0.216-0.087-0.452-0.159-0.709-0.216s-0.483-0.086-0.68-0.086
			c-1.317,0-1.977,0.84-1.977,2.52c0,0.796,0.162,1.407,0.483,1.833s0.798,0.639,1.428,0.639c0.54,0,1.093-0.117,1.66-0.35v0.87
			C977.268,212.945,976.722,213.057,976.063,213.057z"/>
		<path fill="#FFFFFF" d="M979.097,212.312c0-0.265,0.061-0.465,0.181-0.6c0.12-0.138,0.293-0.205,0.518-0.205
			c0.228,0,0.407,0.067,0.535,0.205c0.129,0.135,0.192,0.335,0.192,0.6c0,0.256-0.065,0.453-0.195,0.591
			c-0.131,0.138-0.308,0.207-0.532,0.207c-0.201,0-0.368-0.062-0.5-0.187C979.163,212.8,979.097,212.595,979.097,212.312z"/>
	</g>
</g>
<g>
	<g>
		<path fill="#FFFFFF" d="M853.418,328.233c0,0.859-0.256,1.494-0.767,1.904c-0.51,0.409-1.28,0.614-2.308,0.614h-2.531v-8.645
			h5.096V323h-4.092v2.797h1.343c0.761,0,1.381,0.088,1.857,0.264c0.476,0.175,0.829,0.435,1.058,0.777
			C853.304,327.18,853.418,327.646,853.418,328.233z M848.816,329.882h1.414c0.748,0,1.294-0.128,1.636-0.384
			c0.341-0.256,0.512-0.679,0.512-1.266c0-0.561-0.174-0.958-0.521-1.194c-0.348-0.236-0.953-0.355-1.816-0.355h-1.225V329.882z"/>
		<path fill="#FFFFFF" d="M856.007,324.271v4.109l-0.041,1.076l-0.019,0.337l3.506-5.522h1.225v6.48h-0.917v-3.962l0.019-0.78
			l0.028-0.769l-3.5,5.511h-1.224v-6.48H856.007z"/>
		<path fill="#FFFFFF" d="M863.996,326.961c1.225,0,1.838-0.339,1.838-1.017c0-0.639-0.496-0.958-1.49-0.958
			c-0.304,0-0.579,0.027-0.827,0.082c-0.249,0.056-0.575,0.166-0.977,0.331l-0.349-0.798c0.671-0.3,1.402-0.449,2.193-0.449
			c0.747,0,1.333,0.152,1.764,0.458c0.429,0.306,0.644,0.723,0.644,1.251c0,0.726-0.403,1.2-1.211,1.425v0.047
			c0.496,0.146,0.858,0.354,1.088,0.624c0.228,0.271,0.341,0.608,0.341,1.015c0,0.599-0.239,1.064-0.723,1.397
			c-0.483,0.334-1.15,0.5-2.002,0.5c-0.935,0-1.656-0.14-2.164-0.42v-0.898c0.721,0.339,1.451,0.509,2.188,0.509
			c0.567,0,0.997-0.098,1.286-0.293c0.29-0.194,0.436-0.476,0.436-0.843c0-0.752-0.613-1.129-1.84-1.129h-0.898v-0.834H863.996z"/>
		<path fill="#FFFFFF" d="M869.588,324.271v2.714h3.631v-2.714h0.981v6.48h-0.981v-2.921h-3.631v2.921h-0.981v-6.48H869.588z"/>
		<path fill="#FFFFFF" d="M879.019,330.87c-0.956,0-1.713-0.291-2.267-0.875c-0.555-0.583-0.832-1.394-0.832-2.43
			c0-1.045,0.259-1.875,0.772-2.49c0.516-0.614,1.206-0.922,2.073-0.922c0.813,0,1.454,0.267,1.928,0.801
			c0.473,0.534,0.709,1.239,0.709,2.114v0.621h-4.465c0.021,0.761,0.213,1.338,0.577,1.732c0.365,0.395,0.879,0.591,1.541,0.591
			c0.696,0,1.388-0.146,2.068-0.438v0.875c-0.347,0.15-0.675,0.258-0.983,0.322C879.831,330.837,879.458,330.87,879.019,330.87z
			 M878.754,324.975c-0.521,0-0.937,0.169-1.245,0.508c-0.31,0.339-0.492,0.809-0.548,1.407h3.389c0-0.619-0.138-1.093-0.413-1.421
			C879.661,325.139,879.266,324.975,878.754,324.975z"/>
		<path fill="#FFFFFF" d="M885.665,330.87c-0.938,0-1.664-0.288-2.18-0.866c-0.514-0.577-0.771-1.394-0.771-2.45
			c0-1.084,0.262-1.922,0.783-2.514c0.522-0.591,1.268-0.887,2.233-0.887c0.312,0,0.622,0.033,0.933,0.101
			c0.313,0.066,0.558,0.146,0.733,0.236l-0.301,0.834c-0.216-0.087-0.452-0.159-0.709-0.217c-0.257-0.057-0.483-0.085-0.68-0.085
			c-1.317,0-1.977,0.84-1.977,2.519c0,0.797,0.162,1.407,0.483,1.833s0.797,0.639,1.428,0.639c0.54,0,1.093-0.116,1.66-0.349v0.869
			C886.869,330.757,886.324,330.87,885.665,330.87z"/>
		<path fill="#FFFFFF" d="M892.908,324.271v4.109l-0.041,1.076l-0.019,0.337l3.506-5.522h1.225v6.48h-0.917v-3.962l0.019-0.78
			l0.028-0.769l-3.501,5.511h-1.223v-6.48H892.908z"/>
		<path fill="#FFFFFF" d="M906.172,329.805l0.183-0.55l0.253-0.697l1.757-4.275h1.247v6.469h-0.868V325.4l-0.118,0.344l-0.343,0.904
			l-1.675,4.104h-0.821l-1.672-4.115c-0.21-0.528-0.354-0.94-0.433-1.236v5.352h-0.875v-6.469h1.199l1.698,4.109
			C905.873,328.826,906.029,329.297,906.172,329.805z"/>
		<path fill="#FFFFFF" d="M915.69,330.751l-0.194-0.922h-0.048c-0.324,0.406-0.646,0.681-0.968,0.824
			c-0.321,0.145-0.722,0.216-1.203,0.216c-0.642,0-1.146-0.165-1.511-0.496c-0.364-0.331-0.547-0.803-0.547-1.413
			c0-1.309,1.046-1.995,3.141-2.059l1.099-0.035v-0.402c0-0.508-0.108-0.884-0.328-1.126c-0.218-0.243-0.567-0.363-1.049-0.363
			c-0.541,0-1.151,0.165-1.833,0.496l-0.301-0.751c0.317-0.173,0.669-0.309,1.049-0.408c0.38-0.099,0.762-0.147,1.144-0.147
			c0.772,0,1.345,0.172,1.719,0.515c0.371,0.343,0.559,0.893,0.559,1.649v4.423H915.69z M913.472,330.06
			c0.611,0,1.092-0.167,1.441-0.503c0.348-0.335,0.521-0.804,0.521-1.407v-0.585l-0.979,0.041c-0.78,0.028-1.345,0.148-1.689,0.363
			c-0.345,0.216-0.517,0.549-0.517,1.003c0,0.354,0.107,0.625,0.322,0.81C912.786,329.967,913.087,330.06,913.472,330.06z"/>
		<path fill="#FFFFFF" d="M921.454,330.87c-0.422,0-0.808-0.077-1.155-0.232c-0.35-0.156-0.642-0.396-0.879-0.719h-0.07
			c0.047,0.378,0.07,0.737,0.07,1.076v2.666h-0.981v-9.39h0.798l0.137,0.887h0.047c0.252-0.354,0.546-0.61,0.881-0.769
			c0.336-0.158,0.72-0.236,1.153-0.236c0.86,0,1.522,0.294,1.99,0.881c0.467,0.587,0.701,1.411,0.701,2.472
			c0,1.064-0.238,1.892-0.713,2.481C922.958,330.575,922.298,330.87,921.454,330.87z M921.313,324.987
			c-0.662,0-1.141,0.183-1.438,0.55c-0.294,0.366-0.446,0.95-0.455,1.75v0.219c0,0.911,0.152,1.562,0.455,1.954
			c0.304,0.393,0.79,0.589,1.461,0.589c0.56,0,0.999-0.227,1.316-0.681c0.317-0.453,0.477-1.077,0.477-1.874
			c0-0.809-0.159-1.429-0.477-1.859C922.335,325.202,921.889,324.987,921.313,324.987z"/>
		<path fill="#FFFFFF" d="M929.637,324.271h1.077l-2.797,3.128l3.027,3.353h-1.147l-2.956-3.281v3.281h-0.982v-6.48h0.982v3.151
			L929.637,324.271z"/>
		<path fill="#FFFFFF" d="M934.881,330.87c-0.957,0-1.714-0.291-2.268-0.875c-0.554-0.583-0.831-1.394-0.831-2.43
			c0-1.045,0.258-1.875,0.771-2.49c0.516-0.614,1.207-0.922,2.073-0.922c0.813,0,1.455,0.267,1.928,0.801s0.71,1.239,0.71,2.114
			v0.621h-4.466c0.021,0.761,0.213,1.338,0.578,1.732s0.879,0.591,1.541,0.591c0.695,0,1.387-0.146,2.067-0.438v0.875
			c-0.346,0.15-0.674,0.258-0.983,0.322C935.693,330.837,935.319,330.87,934.881,330.87z M934.615,324.975
			c-0.521,0-0.936,0.169-1.245,0.508s-0.491,0.809-0.548,1.407h3.39c0-0.619-0.139-1.093-0.414-1.421
			C935.522,325.139,935.127,324.975,934.615,324.975z"/>
		<path fill="#FFFFFF" d="M943.308,325.111h-2.105v5.641h-0.979v-5.641h-2.081v-0.84h5.166V325.111z"/>
		<path fill="#FFFFFF" d="M945.514,324.271v4.109l-0.04,1.076l-0.019,0.337l3.505-5.522h1.226v6.48h-0.918v-3.962l0.019-0.78
			l0.029-0.769l-3.501,5.511h-1.223v-6.48H945.514z"/>
		<path fill="#FFFFFF" d="M953.248,324.271v2.714h3.631v-2.714h0.981v6.48h-0.981v-2.921h-3.631v2.921h-0.981v-6.48H953.248z"/>
		<path fill="#FFFFFF" d="M963.845,325.111h-2.921v5.641h-0.982v-6.48h3.903V325.111z"/>
		<path fill="#FFFFFF" d="M970.864,330.87c-0.938,0-1.664-0.288-2.18-0.866c-0.514-0.577-0.771-1.394-0.771-2.45
			c0-1.084,0.262-1.922,0.783-2.514c0.522-0.591,1.268-0.887,2.233-0.887c0.312,0,0.622,0.033,0.933,0.101
			c0.313,0.066,0.558,0.146,0.733,0.236l-0.301,0.834c-0.216-0.087-0.452-0.159-0.709-0.217c-0.257-0.057-0.483-0.085-0.68-0.085
			c-1.317,0-1.977,0.84-1.977,2.519c0,0.797,0.162,1.407,0.483,1.833s0.797,0.639,1.428,0.639c0.54,0,1.093-0.116,1.66-0.349v0.869
			C972.068,330.757,971.523,330.87,970.864,330.87z"/>
		<path fill="#FFFFFF" d="M978.407,325.111h-2.104v5.641h-0.98v-5.641h-2.081v-0.84h5.166V325.111z"/>
		<path fill="#FFFFFF" d="M982.707,330.87c-0.422,0-0.808-0.077-1.155-0.232c-0.35-0.156-0.643-0.396-0.879-0.719h-0.07
			c0.047,0.378,0.07,0.737,0.07,1.076v2.666h-0.981v-9.39h0.798l0.137,0.887h0.047c0.252-0.354,0.546-0.61,0.881-0.769
			c0.336-0.158,0.72-0.236,1.153-0.236c0.86,0,1.522,0.294,1.99,0.881c0.467,0.587,0.701,1.411,0.701,2.472
			c0,1.064-0.238,1.892-0.713,2.481C984.211,330.575,983.55,330.87,982.707,330.87z M982.565,324.987
			c-0.662,0-1.141,0.183-1.438,0.55c-0.294,0.366-0.446,0.95-0.455,1.75v0.219c0,0.911,0.152,1.562,0.455,1.954
			c0.304,0.393,0.79,0.589,1.461,0.589c0.56,0,0.999-0.227,1.316-0.681c0.317-0.453,0.477-1.077,0.477-1.874
			c0-0.809-0.159-1.429-0.477-1.859C983.588,325.202,983.142,324.987,982.565,324.987z"/>
		<path fill="#FFFFFF" d="M991.097,330.751l-0.194-0.922h-0.047c-0.324,0.406-0.647,0.681-0.968,0.824
			c-0.321,0.145-0.722,0.216-1.203,0.216c-0.642,0-1.146-0.165-1.511-0.496c-0.364-0.331-0.547-0.803-0.547-1.413
			c0-1.309,1.046-1.995,3.141-2.059l1.098-0.035v-0.402c0-0.508-0.107-0.884-0.327-1.126c-0.218-0.243-0.568-0.363-1.05-0.363
			c-0.54,0-1.15,0.165-1.833,0.496l-0.301-0.751c0.318-0.173,0.67-0.309,1.05-0.408c0.38-0.099,0.762-0.147,1.144-0.147
			c0.772,0,1.345,0.172,1.718,0.515c0.372,0.343,0.56,0.893,0.56,1.649v4.423H991.097z M988.879,330.06
			c0.611,0,1.091-0.167,1.441-0.503c0.348-0.335,0.521-0.804,0.521-1.407v-0.585l-0.979,0.041c-0.781,0.028-1.345,0.148-1.689,0.363
			c-0.345,0.216-0.518,0.549-0.518,1.003c0,0.354,0.108,0.625,0.323,0.81C988.193,329.967,988.493,330.06,988.879,330.06z"/>
		<path fill="#FFFFFF" d="M998.215,325.111h-2.105v5.641h-0.979v-5.641h-2.081v-0.84h5.166V325.111z"/>
		<path fill="#FFFFFF" d="M1002.235,330.87c-0.956,0-1.713-0.291-2.267-0.875c-0.555-0.583-0.832-1.394-0.832-2.43
			c0-1.045,0.259-1.875,0.772-2.49c0.516-0.614,1.206-0.922,2.073-0.922c0.813,0,1.454,0.267,1.928,0.801
			c0.473,0.534,0.709,1.239,0.709,2.114v0.621h-4.465c0.021,0.761,0.213,1.338,0.578,1.732c0.364,0.395,0.878,0.591,1.54,0.591
			c0.696,0,1.388-0.146,2.068-0.438v0.875c-0.347,0.15-0.674,0.258-0.983,0.322C1003.048,330.837,1002.675,330.87,1002.235,330.87z
			 M1001.971,324.975c-0.521,0-0.937,0.169-1.245,0.508c-0.31,0.339-0.492,0.809-0.548,1.407h3.39c0-0.619-0.139-1.093-0.414-1.421
			C1002.878,325.139,1002.482,324.975,1001.971,324.975z"/>
		<path fill="#FFFFFF" d="M1010.196,325.111h-2.921v5.641h-0.981v-6.48h3.902V325.111z"/>
		<path fill="#FFFFFF" d="M1012.402,324.271v4.109l-0.04,1.076l-0.019,0.337l3.506-5.522h1.225v6.48h-0.918v-3.962l0.019-0.78
			l0.029-0.769l-3.501,5.511h-1.223v-6.48H1012.402z"/>
		<path fill="#FFFFFF" d="M1020.078,324.271v4.109l-0.041,1.076l-0.019,0.337l3.506-5.522h1.225v6.48h-0.917v-3.962l0.019-0.78
			l0.028-0.769l-3.5,5.511h-1.224v-6.48H1020.078z"/>
		<path fill="#FFFFFF" d="M1026.688,330.125c0-0.264,0.062-0.464,0.181-0.6c0.12-0.137,0.293-0.204,0.518-0.204
			c0.228,0,0.407,0.067,0.535,0.204c0.129,0.136,0.192,0.336,0.192,0.6c0,0.257-0.065,0.454-0.195,0.592s-0.308,0.207-0.532,0.207
			c-0.201,0-0.368-0.062-0.5-0.187C1026.755,330.613,1026.688,330.409,1026.688,330.125z"/>
		<path fill="#FFFFFF" d="M1039.569,330.751h-1.22l-3.997-4.381v4.381h-1.004v-8.645h1.004v4.187l3.897-4.187h1.153l-3.826,4.198
			L1039.569,330.751z"/>
		<path fill="#FFFFFF" d="M1046.204,327.505c0,1.057-0.266,1.881-0.8,2.475c-0.53,0.594-1.267,0.89-2.204,0.89
			c-0.58,0-1.094-0.136-1.543-0.407c-0.449-0.272-0.797-0.663-1.041-1.171c-0.244-0.509-0.368-1.104-0.368-1.786
			c0-1.057,0.266-1.88,0.794-2.469c0.527-0.589,1.261-0.884,2.2-0.884c0.905,0,1.627,0.302,2.16,0.904
			C1045.937,325.661,1046.204,326.476,1046.204,327.505z M1041.266,327.505c0,0.828,0.165,1.459,0.496,1.893
			c0.331,0.433,0.819,0.65,1.462,0.65c0.642,0,1.13-0.216,1.463-0.648c0.333-0.431,0.5-1.063,0.5-1.895
			c0-0.823-0.167-1.449-0.5-1.878c-0.333-0.428-0.824-0.641-1.475-0.641c-0.643,0-1.127,0.211-1.455,0.633
			C1041.43,326.041,1041.266,326.67,1041.266,327.505z"/>
		<path fill="#FFFFFF" d="M1051.291,329.805l0.182-0.55l0.254-0.697l1.757-4.275h1.247v6.469h-0.868V325.4l-0.118,0.344
			l-0.344,0.904l-1.674,4.104h-0.821l-1.673-4.115c-0.209-0.528-0.353-0.94-0.432-1.236v5.352h-0.876v-6.469h1.2l1.697,4.109
			C1050.991,328.826,1051.148,329.297,1051.291,329.805z"/>
		<path fill="#FFFFFF" d="M1055.796,324.271h1.053l1.419,3.695c0.312,0.844,0.506,1.453,0.58,1.827h0.047
			c0.051-0.201,0.159-0.545,0.323-1.032c0.164-0.486,0.697-1.983,1.604-4.49h1.053l-2.786,7.38
			c-0.275,0.729-0.598,1.246-0.966,1.552s-0.821,0.458-1.357,0.458c-0.299,0-0.594-0.033-0.887-0.101v-0.786
			c0.217,0.048,0.46,0.071,0.727,0.071c0.676,0,1.155-0.379,1.443-1.136l0.361-0.922L1055.796,324.271z"/>
		<path fill="#FFFFFF" d="M1063.909,324.271v2.714h3.631v-2.714h0.981v6.48h-0.981v-2.921h-3.631v2.921h-0.981v-6.48H1063.909z"/>
		<path fill="#FFFFFF" d="M1071.525,324.271v4.109l-0.041,1.076l-0.019,0.337l3.506-5.522h1.225v6.48h-0.917v-3.962l0.019-0.78
			l0.028-0.769l-3.5,5.511h-1.224v-6.48H1071.525z"/>
		<path fill="#FFFFFF" d="M1082.056,324.271h1.078l-2.798,3.128l3.027,3.353h-1.147l-2.956-3.281v3.281h-0.981v-6.48h0.981v3.151
			L1082.056,324.271z"/>
		<path fill="#FFFFFF" d="M1088.548,330.751l-0.194-0.922h-0.047c-0.324,0.406-0.647,0.681-0.968,0.824
			c-0.321,0.145-0.722,0.216-1.203,0.216c-0.643,0-1.146-0.165-1.511-0.496s-0.547-0.803-0.547-1.413
			c0-1.309,1.046-1.995,3.141-2.059l1.098-0.035v-0.402c0-0.508-0.107-0.884-0.327-1.126c-0.219-0.243-0.568-0.363-1.05-0.363
			c-0.54,0-1.15,0.165-1.833,0.496l-0.301-0.751c0.318-0.173,0.669-0.309,1.05-0.408c0.38-0.099,0.762-0.147,1.144-0.147
			c0.771,0,1.345,0.172,1.718,0.515c0.372,0.343,0.56,0.893,0.56,1.649v4.423H1088.548z M1086.33,330.06
			c0.611,0,1.091-0.167,1.44-0.503c0.349-0.335,0.522-0.804,0.522-1.407v-0.585l-0.979,0.041c-0.781,0.028-1.345,0.148-1.689,0.363
			c-0.345,0.216-0.518,0.549-0.518,1.003c0,0.354,0.108,0.625,0.323,0.81C1085.644,329.967,1085.944,330.06,1086.33,330.06z"/>
		<path fill="#FFFFFF" d="M1097.619,332.993h-0.983v-2.241h-5.339v-6.48h0.981v5.635h3.441v-5.635h0.981v5.635h0.918V332.993z"/>
		<path fill="#FFFFFF" d="M1099.8,324.271v4.109l-0.04,1.076l-0.02,0.337l3.506-5.522h1.225v6.48h-0.917v-3.962l0.019-0.78
			l0.029-0.769l-3.501,5.511h-1.224v-6.48H1099.8z"/>
		<path fill="#FFFFFF" d="M1107.475,324.271v4.109l-0.04,1.076l-0.019,0.337l3.506-5.522h1.225v6.48h-0.918v-3.962l0.02-0.78
			l0.028-0.769l-3.501,5.511h-1.223v-6.48H1107.475z"/>
		<path fill="#FFFFFF" d="M1114.086,330.125c0-0.264,0.061-0.464,0.181-0.6c0.12-0.137,0.292-0.204,0.517-0.204
			c0.229,0,0.407,0.067,0.536,0.204c0.128,0.136,0.192,0.336,0.192,0.6c0,0.257-0.065,0.454-0.196,0.592
			c-0.13,0.138-0.308,0.207-0.532,0.207c-0.2,0-0.368-0.062-0.5-0.187C1114.151,330.613,1114.086,330.409,1114.086,330.125z"/>
	</g>
</g>
<g>
	<g>
		<path fill="#FFFFFF" d="M846.784,412.059h5.937c5.332,0,8.313,2.666,8.313,8.239c0,5.792-2.545,9.063-8.313,9.063h-5.937V412.059z
			 M849.085,427.423h3.83c1.574,0,5.815-0.437,5.815-6.81c0-4.12-1.526-6.616-5.769-6.616h-3.877V427.423z"/>
		<path fill="#FFFFFF" d="M865.676,414.58h-2.06v-2.521h2.06V414.58z M863.616,416.833h2.06v12.528h-2.06V416.833z"/>
		<path fill="#FFFFFF" d="M879.678,428.295c0,4.071-1.865,6.155-5.815,6.155c-2.352,0-5.064-0.944-5.187-3.684h2.06
			c0.098,1.502,1.891,2.036,3.249,2.036c2.689,0,3.756-1.938,3.756-4.75v-0.823h-0.05c-0.677,1.526-2.326,2.277-3.9,2.277
			c-3.732,0-5.599-2.933-5.599-6.35c0-2.956,1.454-6.615,5.793-6.615c1.574,0,2.979,0.702,3.73,2.084h0.025v-1.793h1.938V428.295z
			 M877.642,422.843c0-2.206-0.968-4.483-3.562-4.483c-2.642,0-3.708,2.156-3.708,4.556c0,2.254,0.824,4.774,3.539,4.774
			C876.625,427.69,877.642,425.194,877.642,422.843z"/>
		<path fill="#FFFFFF" d="M884.954,414.58h-2.06v-2.521h2.06V414.58z M882.895,416.833h2.06v12.528h-2.06V416.833z"/>
		<path fill="#FFFFFF" d="M891.009,416.833h2.495v1.817h-2.495v7.778c0,0.945,0.266,1.114,1.551,1.114h0.944v1.818h-1.574
			c-2.134,0-2.982-0.436-2.982-2.738v-7.973h-2.132v-1.817h2.132v-3.757h2.062V416.833z"/>
		<path fill="#FFFFFF" d="M906.876,429.314c-0.363,0.218-0.822,0.338-1.479,0.338c-1.065,0-1.743-0.581-1.743-1.938
			c-1.139,1.333-2.666,1.938-4.411,1.938c-2.277,0-4.145-1.018-4.145-3.513c0-2.836,2.108-3.441,4.242-3.854
			c2.277-0.437,4.216-0.291,4.216-1.842c0-1.793-1.479-2.084-2.786-2.084c-1.745,0-3.029,0.533-3.127,2.375h-2.06
			c0.121-3.103,2.521-4.192,5.308-4.192c2.254,0,4.7,0.509,4.7,3.441v6.445c0,0.97,0,1.406,0.656,1.406
			c0.169,0,0.363-0.024,0.628-0.122V429.314z M903.532,422.891c-0.799,0.582-2.35,0.606-3.731,0.848
			c-1.356,0.243-2.521,0.728-2.521,2.254c0,1.357,1.164,1.843,2.424,1.843c2.714,0,3.828-1.696,3.828-2.836V422.891z"/>
		<path fill="#FFFFFF" d="M908.905,412.059h2.06v17.303h-2.06V412.059z"/>
		<path fill="#FFFFFF" d="M914.499,412.059h2.301v8.627l8.773-8.627h2.98l-7.294,6.979l7.584,10.323h-2.907l-6.253-8.748
			l-2.884,2.689v6.059h-2.301V412.059z"/>
		<path fill="#FFFFFF" d="M932.495,414.58h-2.06v-2.521h2.06V414.58z M930.436,416.833h2.06v12.528h-2.06V416.833z"/>
		<path fill="#FFFFFF" d="M946.886,429.362h-2.06v-1.696h-0.049c-0.679,1.381-2.277,1.986-3.999,1.986
			c-3.852,0-5.768-3.053-5.768-6.591s1.891-6.519,5.719-6.519c1.285,0,3.127,0.484,4.048,1.963h0.049v-6.446h2.06V429.362z
			 M941.069,427.835c2.762,0,3.83-2.376,3.83-4.726c0-2.473-1.115-4.75-3.95-4.75c-2.812,0-3.758,2.399-3.758,4.847
			C937.191,425.557,938.404,427.835,941.069,427.835z"/>
		<path fill="#FFFFFF" d="M949.035,427.423l10.758-13.426h-9.936v-1.938h12.65v1.938l-10.736,13.426h11.027v1.938h-13.764V427.423z"
			/>
		<path fill="#FFFFFF" d="M968.001,419.523h-2.69v-2.689h2.69V419.523z M965.311,426.672h2.69v2.689h-2.69V426.672z"/>
		<path fill="#FFFFFF" d="M979.502,427.423c1.261,0,1.793-0.218,2.472-0.703c0.388-0.291,0.897-1.091,1.647-2.472l-6.809-12.189
			h2.739l5.257,9.936l5.017-9.936h2.593l-7.658,14.419c-0.604,1.163-1.234,1.987-1.816,2.326c-0.824,0.485-1.817,0.558-3.441,0.558
			V427.423z"/>
		<path fill="#FFFFFF" d="M994.398,420.929c0,1.259,1.017,2.398,2.98,2.398c1.309,0,2.326-0.484,2.981-1.284v-5.21h2.06v12.528
			h-2.06v-5.646h-0.049c-0.897,0.921-2.182,1.43-3.515,1.43c-2.859,0-4.458-1.938-4.458-4.216v-4.096h2.06V420.929z"/>
		<path fill="#FFFFFF" d="M1015.401,429.362h-1.938v-1.987h-0.049c-0.872,1.552-2.277,2.277-4.072,2.277
			c-3.296,0-4.313-1.89-4.313-4.58v-8.238h2.06v8.481c0,1.526,0.97,2.521,2.544,2.521c2.497,0,3.708-1.673,3.708-3.927v-7.075h2.06
			V429.362z"/>
		<path fill="#FFFFFF" d="M1021.865,416.833h2.205l4.652,12.528h-2.303l-3.512-10.444h-0.05l-3.417,10.444h-2.156L1021.865,416.833z
			"/>
		<path fill="#FFFFFF" d="M1040.397,429.362h-1.938v-1.987h-0.049c-0.872,1.552-2.277,2.277-4.071,2.277
			c-3.297,0-4.313-1.89-4.313-4.58v-8.238h2.06v8.481c0,1.526,0.97,2.521,2.544,2.521c2.497,0,3.709-1.673,3.709-3.927v-7.075h2.06
			V429.362z"/>
		<path fill="#FFFFFF" d="M1061.061,426.308c0,1.235,0.921,2.061,2.205,2.061l-0.266,4.822h-1.817v-3.539
			c-1.139-0.169-2.06-1.09-2.06-2.132h-0.049c-0.921,1.406-2.327,2.132-4.047,2.132c-1.527,0-2.933-0.605-3.441-2.132
			c-0.848,1.333-2.326,2.132-3.926,2.132c-2.495,0-4.168-1.041-4.168-3.635v-9.184h2.06v8.215c0,1.551,0.412,2.787,2.424,2.787
			c1.987,0,3.271-1.261,3.271-3.199v-7.803h2.059v8.215c0,1.624,0.509,2.787,2.353,2.787c2.446,0,3.343-2.254,3.343-3.199v-7.803
			h2.06V426.308z"/>
		<path fill="#FFFFFF" d="M1075.541,425.387c-0.558,2.763-2.544,4.265-5.355,4.265c-3.999,0-6.011-2.762-6.011-6.591
			c0-3.756,2.472-6.519,5.889-6.519c4.436,0,5.792,4.144,5.67,7.173h-9.378c-0.072,2.182,1.164,4.12,3.902,4.12
			c1.696,0,2.884-0.824,3.247-2.448H1075.541z M1073.553,421.898c-0.097-1.963-1.575-3.538-3.61-3.538
			c-2.156,0-3.441,1.624-3.587,3.538H1073.553z"/>
		<path fill="#FFFFFF" d="M1093.098,420.856c-0.315-1.575-1.405-2.496-3.102-2.496c-2.982,0-3.902,2.351-3.902,4.896
			c0,2.302,1.042,4.58,3.659,4.58c1.986,0,3.174-1.163,3.441-3.054h2.108c-0.462,3.054-2.376,4.87-5.524,4.87
			c-3.83,0-5.866-2.665-5.866-6.396c0-3.757,1.939-6.713,5.913-6.713c2.835,0,5.114,1.333,5.404,4.313H1093.098z"/>
		<path fill="#FFFFFF" d="M1105.419,412.059h1.648v6.252h-1.648V412.059z M1108.813,412.059h1.646v6.252h-1.646V412.059z"/>
		<path fill="#FFFFFF" d="M1120.052,416.542c3.974,0,6.082,2.884,6.082,6.567c0,3.658-2.108,6.542-6.082,6.542
			c-3.976,0-6.084-2.884-6.084-6.542C1113.968,419.426,1116.076,416.542,1120.052,416.542z M1120.052,427.835
			c2.155,0,3.9-1.696,3.9-4.726c0-3.054-1.745-4.75-3.9-4.75c-2.158,0-3.903,1.696-3.903,4.75
			C1116.148,426.139,1117.894,427.835,1120.052,427.835z"/>
		<path fill="#FFFFFF" d="M1128.549,416.833h1.939v1.842h0.048c0.921-1.406,2.326-2.133,4.048-2.133
			c1.525,0,2.932,0.606,3.439,2.133c0.849-1.333,2.326-2.133,3.927-2.133c2.497,0,4.168,1.042,4.168,3.635v9.185h-2.06v-8.215
			c0-1.551-0.412-2.787-2.423-2.787c-1.988,0-3.272,1.261-3.272,3.199v7.803h-2.06v-8.215c0-1.624-0.509-2.787-2.35-2.787
			c-2.448,0-3.346,2.254-3.346,3.199v7.803h-2.06V416.833z"/>
		<path fill="#FFFFFF" d="M1148.773,416.251c0-2.472,1.842-4.604,5.234-4.604c3.441,0,5.259,1.866,5.259,4.265
			c0,1.576-0.993,3.006-2.593,3.539v0.048c2.303,0.605,3.514,2.545,3.514,4.848c0,2.979-1.986,5.306-5.719,5.306
			c-3.708,0-5.695-2.326-5.695-5.306V416.251z M1150.833,424.273c0,2.277,1.6,3.563,3.587,3.563c1.986,0,3.587-1.285,3.587-3.563
			c0-2.303-1.601-3.587-3.587-3.587c-0.849,0-1.6,0.219-2.205,0.533v-1.721c0.509-0.193,1.041-0.339,1.671-0.412
			c1.795-0.169,3.346-0.896,3.346-2.835c0-1.793-1.432-2.859-3.2-2.859s-3.198,1.066-3.198,2.859V424.273z"/>
		<path fill="#FFFFFF" d="M1167.644,416.542c3.974,0,6.082,2.884,6.082,6.567c0,3.658-2.108,6.542-6.082,6.542
			c-3.976,0-6.084-2.884-6.084-6.542C1161.56,419.426,1163.668,416.542,1167.644,416.542z M1167.644,427.835
			c2.155,0,3.9-1.696,3.9-4.726c0-3.054-1.745-4.75-3.9-4.75c-2.158,0-3.903,1.696-3.903,4.75
			C1163.74,426.139,1165.485,427.835,1167.644,427.835z"/>
		<path fill="#FFFFFF" d="M1176.214,416.833h2.06v1.696h0.049c0.679-1.381,2.277-1.987,3.999-1.987c3.852,0,5.766,3.054,5.766,6.591
			c0,3.539-1.889,6.519-5.719,6.519c-1.283,0-3.125-0.484-4.046-1.962h-0.049v6.47h-2.06V416.833z M1182.03,418.36
			c-2.764,0-3.83,2.375-3.83,4.726c0,2.472,1.115,4.75,3.95,4.75c2.812,0,3.758-2.399,3.758-4.848
			C1185.908,420.637,1184.695,418.36,1182.03,418.36z"/>
		<path fill="#FFFFFF" d="M1201.19,425.387c-0.558,2.763-2.546,4.265-5.355,4.265c-3.999,0-6.011-2.762-6.011-6.591
			c0-3.756,2.472-6.519,5.89-6.519c4.435,0,5.791,4.144,5.669,7.173h-9.378c-0.072,2.182,1.164,4.12,3.903,4.12
			c1.695,0,2.884-0.824,3.247-2.448H1201.19z M1199.202,421.898c-0.097-1.963-1.574-3.538-3.61-3.538
			c-2.155,0-3.441,1.624-3.587,3.538H1199.202z"/>
		<path fill="#FFFFFF" d="M1205.568,416.833v5.064h6.252v-5.064h2.06v12.528h-2.06v-5.646h-6.252v5.646h-2.06v-12.528H1205.568z"/>
		<path fill="#FFFFFF" d="M1218.064,412.059h1.649v6.252h-1.649V412.059z M1221.459,412.059h1.647v6.252h-1.647V412.059z"/>
		<path fill="#FFFFFF" d="M1234.146,412.059h2.06v10.251l5.719-5.477h2.763l-4.967,4.556l5.33,7.973h-2.617l-4.289-6.543
			l-1.938,1.793v4.75h-2.06V412.059z"/>
		<path fill="#FFFFFF" d="M1251.418,416.542c3.974,0,6.082,2.884,6.082,6.567c0,3.658-2.108,6.542-6.082,6.542
			c-3.976,0-6.084-2.884-6.084-6.542C1245.334,419.426,1247.442,416.542,1251.418,416.542z M1251.418,427.835
			c2.156,0,3.901-1.696,3.901-4.726c0-3.054-1.745-4.75-3.901-4.75c-2.157,0-3.902,1.696-3.902,4.75
			C1247.516,426.139,1249.261,427.835,1251.418,427.835z"/>
		<path fill="#FFFFFF" d="M1270.724,428.295c0,4.071-1.865,6.155-5.815,6.155c-2.352,0-5.064-0.944-5.187-3.684h2.06
			c0.098,1.502,1.891,2.036,3.249,2.036c2.689,0,3.756-1.938,3.756-4.75v-0.823h-0.05c-0.679,1.526-2.326,2.277-3.9,2.277
			c-3.732,0-5.599-2.933-5.599-6.35c0-2.956,1.454-6.615,5.793-6.615c1.574,0,2.979,0.702,3.73,2.084h0.025v-1.793h1.938V428.295z
			 M1268.688,422.843c0-2.206-0.968-4.483-3.562-4.483c-2.642,0-3.708,2.156-3.708,4.556c0,2.254,0.824,4.774,3.538,4.774
			C1267.671,427.69,1268.688,425.194,1268.688,422.843z"/>
	</g>
</g>
<g>
	<g>
		<path fill="#FFFFFF" d="M854.451,451.842c0,1.384-0.351,2.472-1.05,3.265c-0.699,0.792-1.673,1.188-2.919,1.188
			c-1.272,0-2.256-0.39-2.946-1.168c-0.693-0.778-1.038-1.878-1.038-3.297c0-1.407,0.347-2.498,1.041-3.273
			c0.692-0.773,1.68-1.161,2.957-1.161c1.239,0,2.209,0.395,2.909,1.183C854.101,449.367,854.451,450.455,854.451,451.842z
			 M847.563,451.842c0,1.171,0.249,2.059,0.747,2.663c0.498,0.606,1.223,0.908,2.173,0.908c0.959,0,1.683-0.301,2.171-0.904
			s0.733-1.492,0.733-2.667c0-1.163-0.244-2.045-0.73-2.646c-0.486-0.601-1.208-0.901-2.16-0.901c-0.96,0-1.688,0.303-2.187,0.908
			C847.812,449.807,847.563,450.688,847.563,451.842z"/>
		<path fill="#FFFFFF" d="M855.892,452.292c0-1.419,0.21-2.525,0.629-3.32c0.417-0.794,1.079-1.29,1.986-1.486
			c1.127-0.241,2.12-0.437,2.98-0.586l0.183,0.863c-1.368,0.229-2.345,0.41-2.933,0.544c-0.571,0.13-1.001,0.438-1.286,0.923
			c-0.285,0.484-0.442,1.146-0.472,1.98h0.071c0.245-0.331,0.561-0.591,0.946-0.78c0.387-0.189,0.79-0.284,1.213-0.284
			c0.796,0,1.417,0.259,1.861,0.775c0.446,0.516,0.669,1.231,0.669,2.146c0,1.013-0.258,1.804-0.773,2.373
			c-0.517,0.57-1.236,0.855-2.159,0.855c-0.91,0-1.623-0.35-2.141-1.047C856.15,454.55,855.892,453.565,855.892,452.292z
			 M858.896,455.473c1.203,0,1.805-0.768,1.805-2.3c0-1.463-0.546-2.194-1.639-2.194c-0.3,0-0.588,0.062-0.865,0.187
			c-0.279,0.124-0.532,0.288-0.764,0.493c-0.229,0.206-0.409,0.416-0.534,0.633c0,1.037,0.162,1.826,0.49,2.368
			S858.218,455.473,858.896,455.473z"/>
		<path fill="#FFFFFF" d="M866.466,456.295c-0.422,0-0.808-0.078-1.155-0.233c-0.35-0.156-0.642-0.396-0.879-0.719h-0.07
			c0.047,0.378,0.07,0.737,0.07,1.076v2.667h-0.981v-9.391h0.798l0.137,0.887h0.047c0.252-0.354,0.546-0.61,0.881-0.769
			c0.336-0.157,0.72-0.236,1.153-0.236c0.86,0,1.522,0.294,1.99,0.881c0.467,0.587,0.701,1.412,0.701,2.472
			c0,1.064-0.238,1.892-0.713,2.481C867.97,456,867.31,456.295,866.466,456.295z M866.324,450.412c-0.662,0-1.141,0.184-1.438,0.55
			c-0.294,0.366-0.446,0.95-0.455,1.75v0.219c0,0.911,0.152,1.563,0.455,1.954c0.304,0.393,0.79,0.589,1.461,0.589
			c0.56,0,0.999-0.227,1.316-0.68c0.317-0.454,0.477-1.078,0.477-1.875c0-0.809-0.159-1.429-0.477-1.859
			C867.347,450.626,866.9,450.412,866.324,450.412z"/>
		<path fill="#FFFFFF" d="M874.855,456.176l-0.193-0.922h-0.048c-0.324,0.406-0.647,0.681-0.968,0.824
			c-0.321,0.145-0.722,0.217-1.203,0.217c-0.642,0-1.146-0.166-1.511-0.497c-0.364-0.331-0.547-0.803-0.547-1.413
			c0-1.309,1.046-1.994,3.141-2.058l1.098-0.036v-0.401c0-0.509-0.107-0.885-0.327-1.126c-0.218-0.244-0.567-0.364-1.05-0.364
			c-0.54,0-1.15,0.165-1.833,0.496l-0.3-0.751c0.317-0.173,0.669-0.309,1.049-0.407c0.38-0.1,0.762-0.148,1.144-0.148
			c0.772,0,1.345,0.172,1.718,0.515c0.372,0.343,0.56,0.893,0.56,1.649v4.423H874.855z M872.638,455.485
			c0.611,0,1.092-0.167,1.441-0.503c0.348-0.335,0.521-0.804,0.521-1.407v-0.585l-0.979,0.041c-0.78,0.028-1.345,0.148-1.689,0.363
			c-0.345,0.216-0.518,0.549-0.518,1.003c0,0.354,0.108,0.625,0.323,0.81C871.952,455.392,872.253,455.485,872.638,455.485z"/>
		<path fill="#FFFFFF" d="M878.842,452.386c1.225,0,1.838-0.339,1.838-1.017c0-0.639-0.497-0.958-1.49-0.958
			c-0.304,0-0.579,0.027-0.828,0.083c-0.248,0.055-0.574,0.165-0.977,0.331l-0.348-0.799c0.671-0.3,1.402-0.449,2.192-0.449
			c0.747,0,1.333,0.153,1.765,0.458c0.429,0.306,0.644,0.723,0.644,1.251c0,0.726-0.404,1.2-1.212,1.425v0.048
			c0.497,0.146,0.858,0.354,1.088,0.623c0.229,0.271,0.342,0.608,0.342,1.015c0,0.599-0.24,1.065-0.724,1.397
			c-0.482,0.334-1.15,0.501-2.002,0.501c-0.934,0-1.655-0.141-2.164-0.42v-0.899c0.722,0.339,1.451,0.509,2.188,0.509
			c0.567,0,0.996-0.097,1.285-0.293c0.291-0.194,0.436-0.476,0.436-0.843c0-0.752-0.613-1.129-1.84-1.129h-0.898v-0.834H878.842z"/>
		<path fill="#FFFFFF" d="M889.047,452.93c0,1.057-0.265,1.882-0.799,2.475c-0.53,0.594-1.267,0.891-2.204,0.891
			c-0.58,0-1.094-0.137-1.543-0.408c-0.449-0.272-0.798-0.662-1.041-1.171c-0.245-0.509-0.368-1.104-0.368-1.786
			c0-1.057,0.266-1.879,0.794-2.469c0.527-0.589,1.261-0.884,2.2-0.884c0.905,0,1.627,0.302,2.16,0.904
			C888.78,451.085,889.047,451.902,889.047,452.93z M884.109,452.93c0,0.828,0.165,1.459,0.496,1.893s0.819,0.65,1.462,0.65
			c0.642,0,1.13-0.216,1.463-0.648c0.333-0.431,0.5-1.063,0.5-1.895c0-0.823-0.167-1.449-0.5-1.878
			c-0.333-0.427-0.824-0.641-1.475-0.641c-0.643,0-1.127,0.211-1.455,0.633C884.272,451.465,884.109,452.095,884.109,452.93z"/>
		<path fill="#FFFFFF" d="M896.026,451.322c0,0.422-0.121,0.743-0.365,0.961c-0.241,0.22-0.581,0.365-1.021,0.44v0.054
			c0.553,0.075,0.957,0.236,1.21,0.484c0.255,0.249,0.382,0.592,0.382,1.029c0,0.604-0.221,1.068-0.665,1.396
			c-0.443,0.327-1.092,0.49-1.943,0.49h-2.855v-6.48h2.846C895.223,449.696,896.026,450.239,896.026,451.322z M895.066,451.417
			c0-0.314-0.119-0.539-0.363-0.671c-0.241-0.132-0.609-0.198-1.103-0.198h-1.851v1.827h1.661c0.608,0,1.036-0.075,1.284-0.225
			S895.066,451.755,895.066,451.417z M895.251,454.225c0-0.351-0.134-0.606-0.398-0.765c-0.268-0.161-0.708-0.24-1.323-0.24h-1.779
			v2.135h1.803C894.685,455.355,895.251,454.978,895.251,454.225z"/>
		<path fill="#FFFFFF" d="M901.644,456.176l-0.194-0.922h-0.047c-0.324,0.406-0.647,0.681-0.968,0.824
			c-0.321,0.145-0.722,0.217-1.203,0.217c-0.643,0-1.146-0.166-1.511-0.497c-0.364-0.331-0.547-0.803-0.547-1.413
			c0-1.309,1.046-1.994,3.141-2.058l1.098-0.036v-0.401c0-0.509-0.107-0.885-0.327-1.126c-0.218-0.244-0.568-0.364-1.05-0.364
			c-0.54,0-1.15,0.165-1.833,0.496l-0.301-0.751c0.318-0.173,0.669-0.309,1.05-0.407c0.38-0.1,0.762-0.148,1.144-0.148
			c0.772,0,1.345,0.172,1.718,0.515c0.372,0.343,0.56,0.893,0.56,1.649v4.423H901.644z M899.426,455.485
			c0.611,0,1.091-0.167,1.441-0.503c0.348-0.335,0.521-0.804,0.521-1.407v-0.585l-0.979,0.041c-0.781,0.028-1.345,0.148-1.689,0.363
			c-0.345,0.216-0.518,0.549-0.518,1.003c0,0.354,0.108,0.625,0.323,0.81C898.739,455.392,899.04,455.485,899.426,455.485z"/>
		<path fill="#FFFFFF" d="M905.374,449.696v2.714h3.631v-2.714h0.981v6.48h-0.981v-2.921h-3.631v2.921h-0.981v-6.48H905.374z"/>
		<path fill="#FFFFFF" d="M912.99,449.696v4.109l-0.041,1.076l-0.019,0.338l3.506-5.523h1.225v6.48h-0.917v-3.961l0.019-0.781
			l0.029-0.769l-3.501,5.511h-1.224v-6.48H912.99z"/>
		<path fill="#FFFFFF" d="M922.479,456.295c-0.956,0-1.713-0.292-2.267-0.876c-0.555-0.583-0.831-1.394-0.831-2.43
			c0-1.045,0.258-1.875,0.771-2.489c0.516-0.615,1.206-0.923,2.073-0.923c0.813,0,1.454,0.267,1.928,0.801
			c0.473,0.535,0.709,1.239,0.709,2.114v0.621h-4.465c0.021,0.761,0.213,1.338,0.578,1.732c0.364,0.395,0.878,0.592,1.54,0.592
			c0.696,0,1.388-0.146,2.068-0.438v0.875c-0.347,0.149-0.674,0.257-0.983,0.321C923.293,456.263,922.919,456.295,922.479,456.295z
			 M922.215,450.4c-0.521,0-0.937,0.17-1.245,0.508c-0.31,0.339-0.492,0.809-0.548,1.408h3.39c0-0.619-0.139-1.094-0.414-1.422
			C923.122,450.564,922.727,450.4,922.215,450.4z"/>
		<path fill="#FFFFFF" d="M926.396,455.55c0-0.265,0.061-0.465,0.181-0.601c0.12-0.137,0.292-0.204,0.517-0.204
			c0.229,0,0.407,0.067,0.535,0.204c0.129,0.136,0.193,0.336,0.193,0.601c0,0.256-0.066,0.453-0.196,0.591s-0.308,0.207-0.532,0.207
			c-0.201,0-0.368-0.062-0.5-0.187C926.462,456.039,926.396,455.833,926.396,455.55z"/>
		<path fill="#FFFFFF" d="M939.873,458.429h-0.958v-2.253h-6.008v2.253h-0.958v-3.163h0.667c0.608-1.021,1.127-2.263,1.56-3.726
			c0.431-1.462,0.671-2.798,0.718-4.009h3.886v7.734h1.094V458.429z M937.772,455.266v-6.83h-1.968
			c-0.071,0.954-0.31,2.101-0.715,3.439c-0.407,1.338-0.88,2.468-1.419,3.391H937.772z"/>
		<path fill="#FFFFFF" d="M942.102,449.696v4.109l-0.041,1.076l-0.019,0.338l3.506-5.523h1.225v6.48h-0.917v-3.961l0.019-0.781
			l0.028-0.769l-3.5,5.511h-1.224v-6.48H942.102z"/>
		<path fill="#FFFFFF" d="M952.757,450.536h-2.921v5.641h-0.982v-6.48h3.903V450.536z"/>
		<path fill="#FFFFFF" d="M954.961,449.696v4.109l-0.04,1.076l-0.019,0.338l3.506-5.523h1.225v6.48h-0.918v-3.961l0.019-0.781
			l0.029-0.769l-3.501,5.511h-1.223v-6.48H954.961z"/>
		<path fill="#FFFFFF" d="M966.083,450.536h-2.105v5.641h-0.979v-5.641h-2.081v-0.84h5.166V450.536z"/>
		<path fill="#FFFFFF" d="M971.353,456.176l-0.194-0.922h-0.048c-0.324,0.406-0.646,0.681-0.968,0.824
			c-0.321,0.145-0.722,0.217-1.203,0.217c-0.642,0-1.146-0.166-1.51-0.497c-0.365-0.331-0.548-0.803-0.548-1.413
			c0-1.309,1.046-1.994,3.141-2.058l1.099-0.036v-0.401c0-0.509-0.108-0.885-0.328-1.126c-0.218-0.244-0.567-0.364-1.049-0.364
			c-0.541,0-1.15,0.165-1.833,0.496l-0.301-0.751c0.317-0.173,0.669-0.309,1.049-0.407c0.38-0.1,0.762-0.148,1.144-0.148
			c0.772,0,1.346,0.172,1.719,0.515c0.371,0.343,0.559,0.893,0.559,1.649v4.423H971.353z M969.134,455.485
			c0.612,0,1.092-0.167,1.441-0.503c0.348-0.335,0.522-0.804,0.522-1.407v-0.585l-0.98,0.041c-0.78,0.028-1.345,0.148-1.689,0.363
			c-0.345,0.216-0.517,0.549-0.517,1.003c0,0.354,0.108,0.625,0.322,0.81C968.448,455.392,968.749,455.485,969.134,455.485z"/>
		<path fill="#FFFFFF" d="M978.935,456.176h-0.993v-5.641h-1.946c-0.106,1.403-0.254,2.518-0.442,3.341
			c-0.189,0.823-0.437,1.427-0.737,1.81c-0.302,0.383-0.686,0.573-1.15,0.573c-0.213,0-0.382-0.023-0.508-0.07v-0.728
			c0.086,0.023,0.186,0.035,0.295,0.035c0.453,0,0.814-0.479,1.083-1.437c0.268-0.958,0.47-2.413,0.608-4.364h3.791V456.176z"/>
		<path fill="#FFFFFF" d="M981.998,449.696v2.714h3.63v-2.714h0.981v6.48h-0.981v-2.921h-3.63v2.921h-0.982v-6.48H981.998z"/>
		<path fill="#FFFFFF" d="M992.677,456.176l-0.194-0.922h-0.047c-0.325,0.406-0.647,0.681-0.969,0.824
			c-0.32,0.145-0.721,0.217-1.203,0.217c-0.642,0-1.145-0.166-1.51-0.497s-0.548-0.803-0.548-1.413c0-1.309,1.046-1.994,3.141-2.058
			l1.099-0.036v-0.401c0-0.509-0.108-0.885-0.328-1.126c-0.218-0.244-0.567-0.364-1.049-0.364c-0.541,0-1.15,0.165-1.833,0.496
			l-0.301-0.751c0.317-0.173,0.669-0.309,1.049-0.407c0.381-0.1,0.763-0.148,1.145-0.148c0.771,0,1.345,0.172,1.718,0.515
			c0.372,0.343,0.56,0.893,0.56,1.649v4.423H992.677z M990.458,455.485c0.612,0,1.092-0.167,1.441-0.503
			c0.349-0.335,0.522-0.804,0.522-1.407v-0.585l-0.98,0.041c-0.78,0.028-1.345,0.148-1.689,0.363
			c-0.345,0.216-0.517,0.549-0.517,1.003c0,0.354,0.108,0.625,0.322,0.81C989.772,455.392,990.073,455.485,990.458,455.485z"/>
		<path fill="#FFFFFF" d="M1002.476,450.536h-2.921v5.641h-0.981v-6.48h3.902V450.536z"/>
		<path fill="#FFFFFF" d="M1006.775,456.295c-0.423,0-0.808-0.078-1.156-0.233c-0.35-0.156-0.642-0.396-0.878-0.719h-0.071
			c0.048,0.378,0.071,0.737,0.071,1.076v2.667h-0.981v-9.391h0.797l0.137,0.887h0.048c0.252-0.354,0.546-0.61,0.88-0.769
			c0.336-0.157,0.72-0.236,1.154-0.236c0.859,0,1.522,0.294,1.99,0.881c0.466,0.587,0.701,1.412,0.701,2.472
			c0,1.064-0.238,1.892-0.713,2.481C1008.278,456,1007.618,456.295,1006.775,456.295z M1006.633,450.412
			c-0.662,0-1.14,0.184-1.438,0.55c-0.294,0.366-0.445,0.95-0.454,1.75v0.219c0,0.911,0.152,1.563,0.454,1.954
			c0.305,0.393,0.791,0.589,1.462,0.589c0.559,0,0.998-0.227,1.315-0.68c0.318-0.454,0.477-1.078,0.477-1.875
			c0-0.809-0.158-1.429-0.477-1.859C1007.655,450.626,1007.209,450.412,1006.633,450.412z"/>
		<path fill="#FFFFFF" d="M1015.165,456.176l-0.194-0.922h-0.047c-0.325,0.406-0.647,0.681-0.969,0.824
			c-0.32,0.145-0.721,0.217-1.202,0.217c-0.643,0-1.146-0.166-1.511-0.497s-0.548-0.803-0.548-1.413
			c0-1.309,1.046-1.994,3.141-2.058l1.099-0.036v-0.401c0-0.509-0.108-0.885-0.328-1.126c-0.218-0.244-0.567-0.364-1.049-0.364
			c-0.541,0-1.15,0.165-1.833,0.496l-0.301-0.751c0.317-0.173,0.669-0.309,1.049-0.407c0.381-0.1,0.763-0.148,1.145-0.148
			c0.771,0,1.345,0.172,1.718,0.515c0.372,0.343,0.56,0.893,0.56,1.649v4.423H1015.165z M1012.946,455.485
			c0.612,0,1.092-0.167,1.441-0.503c0.349-0.335,0.522-0.804,0.522-1.407v-0.585l-0.98,0.041c-0.78,0.028-1.345,0.148-1.689,0.363
			c-0.345,0.216-0.517,0.549-0.517,1.003c0,0.354,0.108,0.625,0.322,0.81C1012.261,455.392,1012.562,455.485,1012.946,455.485z"/>
		<path fill="#FFFFFF" d="M1021.279,455.231l0.183-0.55l0.253-0.698l1.757-4.275h1.247v6.469h-0.868v-5.351l-0.118,0.343
			l-0.343,0.904l-1.675,4.104h-0.821l-1.672-4.115c-0.21-0.527-0.354-0.94-0.433-1.235v5.351h-0.875v-6.469h1.199l1.698,4.11
			C1020.98,454.25,1021.138,454.722,1021.279,455.231z"/>
		<path fill="#FFFFFF" d="M1032.407,452.93c0,1.057-0.265,1.882-0.799,2.475c-0.53,0.594-1.267,0.891-2.205,0.891
			c-0.579,0-1.093-0.137-1.542-0.408c-0.449-0.272-0.798-0.662-1.041-1.171c-0.245-0.509-0.368-1.104-0.368-1.786
			c0-1.057,0.266-1.879,0.794-2.469c0.527-0.589,1.261-0.884,2.2-0.884c0.905,0,1.627,0.302,2.16,0.904
			C1032.141,451.085,1032.407,451.902,1032.407,452.93z M1027.47,452.93c0,0.828,0.165,1.459,0.496,1.893s0.819,0.65,1.462,0.65
			c0.642,0,1.13-0.216,1.463-0.648c0.333-0.431,0.5-1.063,0.5-1.895c0-0.823-0.167-1.449-0.5-1.878
			c-0.333-0.427-0.824-0.641-1.475-0.641c-0.643,0-1.127,0.211-1.455,0.633C1027.633,451.465,1027.47,452.095,1027.47,452.93z"/>
		<path fill="#FFFFFF" d="M1038.498,450.536h-2.105v5.641h-0.979v-5.641h-2.081v-0.84h5.166V450.536z"/>
		<path fill="#FFFFFF" d="M1040.764,449.696v2.714h3.631v-2.714h0.981v6.48h-0.981v-2.921h-3.631v2.921h-0.981v-6.48H1040.764z"/>
		<path fill="#FFFFFF" d="M1053.051,452.93c0,1.057-0.265,1.882-0.799,2.475c-0.53,0.594-1.268,0.891-2.205,0.891
			c-0.579,0-1.093-0.137-1.542-0.408c-0.449-0.272-0.798-0.662-1.041-1.171c-0.245-0.509-0.368-1.104-0.368-1.786
			c0-1.057,0.266-1.879,0.794-2.469c0.527-0.589,1.261-0.884,2.2-0.884c0.905,0,1.627,0.302,2.16,0.904
			C1052.784,451.085,1053.051,451.902,1053.051,452.93z M1048.112,452.93c0,0.828,0.166,1.459,0.497,1.893s0.819,0.65,1.461,0.65
			c0.643,0,1.131-0.216,1.464-0.648c0.332-0.431,0.5-1.063,0.5-1.895c0-0.823-0.168-1.449-0.5-1.878
			c-0.333-0.427-0.825-0.641-1.476-0.641c-0.642,0-1.127,0.211-1.454,0.633C1048.276,451.465,1048.112,452.095,1048.112,452.93z"/>
		<path fill="#FFFFFF" d="M1057.36,456.295c-0.938,0-1.664-0.289-2.179-0.867c-0.514-0.577-0.772-1.394-0.772-2.45
			c0-1.084,0.262-1.922,0.784-2.514c0.521-0.591,1.267-0.887,2.233-0.887c0.311,0,0.622,0.034,0.933,0.101
			c0.313,0.066,0.558,0.146,0.733,0.236l-0.301,0.834c-0.217-0.087-0.453-0.159-0.71-0.216s-0.483-0.086-0.679-0.086
			c-1.318,0-1.977,0.84-1.977,2.52c0,0.796,0.162,1.407,0.482,1.833c0.321,0.426,0.798,0.639,1.428,0.639
			c0.541,0,1.094-0.117,1.661-0.35v0.869C1058.565,456.183,1058.02,456.295,1057.36,456.295z"/>
		<path fill="#FFFFFF" d="M1064.904,450.536h-2.105v5.641h-0.979v-5.641h-2.081v-0.84h5.166V450.536z"/>
		<path fill="#FFFFFF" d="M1066.046,455.55c0-0.265,0.062-0.465,0.181-0.601c0.12-0.137,0.293-0.204,0.518-0.204
			c0.228,0,0.407,0.067,0.535,0.204c0.129,0.136,0.192,0.336,0.192,0.601c0,0.256-0.065,0.453-0.195,0.591s-0.308,0.207-0.532,0.207
			c-0.201,0-0.368-0.062-0.5-0.187C1066.112,456.039,1066.046,455.833,1066.046,455.55z"/>
		<path fill="#FFFFFF" d="M1073.25,456.295c-0.439,0-0.822-0.06-1.154-0.178v-0.981c0.367,0.17,0.739,0.254,1.117,0.254
			c0.435,0,0.782-0.1,1.044-0.298c0.262-0.199,0.523-0.573,0.784-1.121l-3.365-6.439h1.111l2.555,4.914
			c0.1,0.193,0.176,0.383,0.231,0.567h0.047c0.11-0.331,0.188-0.54,0.231-0.627l2.122-4.854h1.064l-2.761,6.186
			c-0.331,0.737-0.63,1.272-0.896,1.608c-0.266,0.335-0.566,0.58-0.899,0.736C1074.148,456.217,1073.738,456.295,1073.25,456.295z"
			/>
		<path fill="#FFFFFF" d="M1083.444,455.231l0.183-0.55l0.253-0.698l1.757-4.275h1.247v6.469h-0.868v-5.351l-0.118,0.343
			l-0.343,0.904l-1.675,4.104h-0.821l-1.672-4.115c-0.21-0.527-0.354-0.94-0.433-1.235v5.351h-0.875v-6.469h1.199l1.698,4.11
			C1083.146,454.25,1083.303,454.722,1083.444,455.231z"/>
		<path fill="#FFFFFF" d="M1091.716,456.295c-0.956,0-1.713-0.292-2.268-0.876c-0.554-0.583-0.831-1.394-0.831-2.43
			c0-1.045,0.259-1.875,0.772-2.489c0.515-0.615,1.206-0.923,2.072-0.923c0.813,0,1.455,0.267,1.928,0.801
			c0.474,0.535,0.71,1.239,0.71,2.114v0.621h-4.465c0.02,0.761,0.213,1.338,0.577,1.732c0.365,0.395,0.879,0.592,1.541,0.592
			c0.696,0,1.387-0.146,2.068-0.438v0.875c-0.347,0.149-0.675,0.257-0.983,0.321
			C1092.528,456.263,1092.155,456.295,1091.716,456.295z M1091.45,450.4c-0.52,0-0.936,0.17-1.245,0.508
			c-0.309,0.339-0.491,0.809-0.547,1.408h3.389c0-0.619-0.139-1.094-0.414-1.422C1092.357,450.564,1091.963,450.4,1091.45,450.4z"/>
	</g>
</g>
<circle fill="#FFFFFF" cx="637.581" cy="125.747" r="5.19"/>
<circle fill="#FFFFFF" cx="644.562" cy="502.892" r="4.758"/>
<circle fill="#FFFFFF" cx="536.954" cy="306.532" r="5.623"/>
<circle fill="#FFFFFF" cx="749.838" cy="303.201" r="4.656"/>
<circle fill="#FFFFFF" cx="846.295" cy="507.688" r="6.045"/>
<circle fill="#FFFFFF" cx="423.927" cy="500.108" r="6.632"/>
<g>
	<line fill="#FFFFFF" x1="637.581" y1="125.747" x2="750.012" y2="302.778"/>
	
		<rect x="588.938" y="213.397" transform="matrix(0.5361 0.8441 -0.8441 0.5361 502.7118 -486.2722)" fill="#FFFFFF" width="209.716" height="1.73"/>
</g>
<g opacity="0.6">
	<line fill="#FFFFFF" x1="637.869" y1="128.918" x2="644.352" y2="501.347"/>
	
		<rect x="454.868" y="314.268" transform="matrix(0.0174 0.9998 -0.9998 0.0174 945.0391 -331.3647)" fill="#FFFFFF" width="372.485" height="1.73"/>
</g>
<g opacity="0.9">
	<line fill="#FFFFFF" x1="536.377" y1="308.262" x2="643.592" y2="502.023"/>
	
		<rect x="479.261" y="404.277" transform="matrix(0.4842 0.875 -0.875 0.4842 658.8318 -307.2352)" fill="#FFFFFF" width="221.447" height="1.731"/>
</g>
<g opacity="0.5">
	<line fill="#FFFFFF" x1="426.233" y1="498.562" x2="749.856" y2="303.632"/>
	
		<rect x="587.179" y="212.2" transform="matrix(0.5156 0.8568 -0.8568 0.5156 628.5431 -309.5612)" fill="#FFFFFF" width="1.731" height="377.794"/>
</g>
<g>
	<line fill="#FFFFFF" x1="421.331" y1="501.368" x2="845.759" y2="505.482"/>
	
		<rect x="421.321" y="502.56" transform="matrix(1 0.0097 -0.0097 1 4.9096 -6.1174)" fill="#FFFFFF" width="424.448" height="1.731"/>
</g>
<g>
	<line fill="#FFFFFF" x1="536.953" y1="306.532" x2="848.354" y2="509.807"/>
	
		<rect x="506.716" y="407.305" transform="matrix(0.8374 0.5466 -0.5466 0.8374 335.7566 -312.2441)" fill="#FFFFFF" width="371.876" height="1.729"/>
</g>
</svg>
