<?xml version="1.0" encoding="utf-8"?>
<!-- Generator: Adobe Illustrator 16.0.0, SVG Export Plug-In . SVG Version: 6.00 Build 0)  -->
<!DOCTYPE svg PUBLIC "-//W3C//DTD SVG 1.1//EN" "http://www.w3.org/Graphics/SVG/1.1/DTD/svg11.dtd">
<svg version="1.1" id="Layer_1" xmlns="http://www.w3.org/2000/svg" xmlns:xlink="http://www.w3.org/1999/xlink" x="0px" y="0px"
	 width="920.955px" height="630px" viewBox="0 0 920.955 630" enable-background="new 0 0 920.955 630" xml:space="preserve">
<polygon fill="#14A8A8" points="128.644,376.649 61.846,493.424 463.207,493.424 392.907,376.649 "/>
<g>
	
		<image overflow="visible" width="805" height="344" xlink:href="8A1AF4BA.png"  transform="matrix(0.24 0 0 0.24 239.4214 338.4341)">
	</image>
</g>
<polygon fill="#5DC2B4" points="135.189,376.597 398.458,376.597 330.784,260.254 201.136,260.254 "/>
<g>
	
		<image overflow="visible" width="625" height="374" xlink:href="8A1AF4BE.png"  transform="matrix(0.24 0 0 0.24 156.9575 223.8218)">
	</image>
</g>
<polygon fill="#2EB690" points="259.938,147.372 195.954,260.254 325.6,260.254 "/>
<g>
	<g>
		<path fill="#FFFFFF" d="M466.827,155.154h2.301v8.628l8.773-8.628h2.98l-7.294,6.979l7.584,10.323h-2.907l-6.253-8.748
			l-2.884,2.689v6.059h-2.301V155.154z"/>
		<path fill="#FFFFFF" d="M487.66,159.637c3.974,0,6.082,2.884,6.082,6.567c0,3.659-2.108,6.543-6.082,6.543
			c-3.976,0-6.084-2.884-6.084-6.543C481.576,162.521,483.684,159.637,487.66,159.637z M487.66,170.93c2.155,0,3.9-1.696,3.9-4.726
			c0-3.054-1.745-4.75-3.9-4.75c-2.158,0-3.903,1.696-3.903,4.75C483.756,169.234,485.501,170.93,487.66,170.93z"/>
		<path fill="#FFFFFF" d="M500.496,174.128c-0.946,2.448-1.794,3.345-3.636,3.345c-0.484,0-0.97-0.049-1.429-0.219v-1.89
			c0.387,0.121,0.799,0.291,1.211,0.291c0.849,0,1.31-0.412,1.696-1.14l0.848-2.132l-4.967-12.456h2.326l3.66,10.25h0.047
			l3.514-10.25h2.182L500.496,174.128z"/>
		<path fill="#FFFFFF" d="M509.165,164.024c0,1.26,1.017,2.398,2.98,2.398c1.309,0,2.326-0.484,2.981-1.284v-5.21h2.06v12.528h-2.06
			v-5.646h-0.049c-0.897,0.92-2.182,1.429-3.515,1.429c-2.859,0-4.458-1.938-4.458-4.216v-4.096h2.06V164.024z"/>
		<path fill="#FFFFFF" d="M530.167,172.457h-1.938v-1.986h-0.049c-0.872,1.551-2.277,2.277-4.072,2.277
			c-3.296,0-4.313-1.89-4.313-4.58v-8.239h2.06v8.481c0,1.526,0.97,2.521,2.544,2.521c2.497,0,3.708-1.673,3.708-3.926v-7.076h2.06
			V172.457z"/>
		<path fill="#FFFFFF" d="M535.322,159.928v5.064h6.253v-5.064h2.06v12.528h-2.06v-5.646h-6.253v5.646h-2.059v-12.528H535.322z"/>
		<path fill="#FFFFFF" d="M546.39,163.563c0-2.617,2.229-3.926,5.064-3.926c2.23,0,4.726,0.945,4.726,3.466
			c0,2.302-2.036,2.98-4.022,3.563c-1.987,0.558-3.999,0.871-3.999,2.472c0,1.381,1.696,1.866,3.006,1.866
			c1.865,0,3.319-0.873,3.368-2.497h2.06c-0.121,2.908-2.398,4.241-5.55,4.241c-2.374,0-5.064-0.969-5.064-3.587
			c0-2.302,2.035-3.005,4.022-3.586c1.988-0.582,3.999-0.873,3.999-2.472c0-1.285-1.357-1.721-2.545-1.721
			c-1.623,0-2.98,0.654-3.005,2.181H546.39z"/>
	</g>
</g>
<g>
	<g>
		<path fill="#FFFFFF" d="M468.532,289.229h2.447l9.111,14.031h0.049v-14.031h2.182v17.303H479.8l-9.039-13.886h-0.049v13.886
			h-2.181V289.229z"/>
		<path fill="#FFFFFF" d="M496.39,302.557c-0.558,2.764-2.544,4.266-5.355,4.266c-3.999,0-6.011-2.763-6.011-6.592
			c0-3.756,2.472-6.519,5.89-6.519c4.435,0,5.791,4.144,5.67,7.173h-9.379c-0.072,2.182,1.164,4.12,3.903,4.12
			c1.695,0,2.884-0.824,3.247-2.448H496.39z M494.402,299.068c-0.097-1.963-1.574-3.538-3.61-3.538
			c-2.155,0-3.441,1.624-3.587,3.538H494.402z"/>
		<path fill="#FFFFFF" d="M511.116,306.532h-2.181l-2.545-9.96h-0.049l-2.519,9.96h-2.23l-4.022-12.528h2.277l2.835,10.25h0.049
			l2.521-10.25h2.254l2.617,10.25h0.049l2.81-10.25h2.134L511.116,306.532z"/>
		<path fill="#FFFFFF" d="M519.928,294.003h2.495v1.817h-2.495v7.779c0,0.945,0.265,1.114,1.551,1.114h0.944v1.817h-1.575
			c-2.133,0-2.981-0.436-2.981-2.738v-7.973h-2.132v-1.817h2.132v-3.756h2.062V294.003z"/>
		<path fill="#FFFFFF" d="M524.625,294.003h1.938v2.642h0.05c0.993-2.012,2.375-3.006,4.604-2.933v2.181
			c-3.32,0-4.531,1.891-4.531,5.065v5.573h-2.06V294.003z"/>
		<path fill="#FFFFFF" d="M543.014,302.557c-0.558,2.764-2.546,4.266-5.355,4.266c-3.999,0-6.011-2.763-6.011-6.592
			c0-3.756,2.472-6.519,5.889-6.519c4.436,0,5.792,4.144,5.67,7.173h-9.378c-0.072,2.182,1.164,4.12,3.902,4.12
			c1.696,0,2.884-0.824,3.247-2.448H543.014z M541.026,299.068c-0.097-1.963-1.574-3.538-3.61-3.538
			c-2.156,0-3.441,1.624-3.587,3.538H541.026z"/>
		<path fill="#FFFFFF" d="M545.333,294.003h1.938v1.987h0.049c0.874-1.551,2.279-2.278,4.071-2.278c3.297,0,4.313,1.891,4.313,4.58
			v8.239h-2.06v-8.481c0-1.527-0.97-2.521-2.544-2.521c-2.497,0-3.708,1.672-3.708,3.926v7.076h-2.06V294.003z"/>
		<path fill="#FFFFFF" d="M569.995,306.532h-2.06v-1.696h-0.049c-0.679,1.381-2.277,1.987-3.999,1.987
			c-3.852,0-5.768-3.054-5.768-6.592s1.891-6.519,5.721-6.519c1.284,0,3.125,0.484,4.046,1.963h0.049v-6.446h2.06V306.532z
			 M564.178,305.005c2.764,0,3.83-2.375,3.83-4.726c0-2.473-1.115-4.75-3.95-4.75c-2.812,0-3.758,2.399-3.758,4.847
			C560.3,302.727,561.512,305.005,564.178,305.005z"/>
		<path fill="#FFFFFF" d="M584.935,289.229h2.544l6.761,17.303h-2.546l-1.889-5.21h-7.318l-1.939,5.21h-2.374L584.935,289.229z
			 M583.213,299.382h5.864l-2.885-8.069h-0.047L583.213,299.382z"/>
		<path fill="#FFFFFF" d="M606.396,305.465c0,4.071-1.865,6.155-5.815,6.155c-2.352,0-5.064-0.944-5.187-3.684h2.06
			c0.098,1.502,1.891,2.036,3.249,2.036c2.689,0,3.755-1.938,3.755-4.75V304.4h-0.049c-0.677,1.526-2.326,2.277-3.9,2.277
			c-3.732,0-5.599-2.933-5.599-6.35c0-2.956,1.454-6.615,5.793-6.615c1.574,0,2.979,0.702,3.73,2.084h0.024v-1.793h1.938V305.465z
			 M604.36,300.013c0-2.206-0.968-4.483-3.562-4.483c-2.642,0-3.708,2.157-3.708,4.556c0,2.254,0.824,4.774,3.539,4.774
			C603.343,304.86,604.36,302.364,604.36,300.013z"/>
		<path fill="#FFFFFF" d="M620.178,302.557c-0.558,2.764-2.546,4.266-5.355,4.266c-3.999,0-6.011-2.763-6.011-6.592
			c0-3.756,2.472-6.519,5.889-6.519c4.436,0,5.792,4.144,5.67,7.173h-9.378c-0.072,2.182,1.164,4.12,3.902,4.12
			c1.696,0,2.885-0.824,3.247-2.448H620.178z M618.19,299.068c-0.097-1.963-1.574-3.538-3.61-3.538
			c-2.156,0-3.441,1.624-3.587,3.538H618.19z"/>
		<path fill="#FFFFFF" d="M622.497,294.003h1.938v1.987h0.049c0.874-1.551,2.279-2.278,4.071-2.278c3.297,0,4.313,1.891,4.313,4.58
			v8.239h-2.06v-8.481c0-1.527-0.97-2.521-2.544-2.521c-2.497,0-3.708,1.672-3.708,3.926v7.076h-2.06V294.003z"/>
		<path fill="#FFFFFF" d="M644.469,298.026c-0.315-1.575-1.405-2.496-3.102-2.496c-2.982,0-3.903,2.352-3.903,4.896
			c0,2.302,1.043,4.58,3.66,4.58c1.986,0,3.174-1.163,3.441-3.054h2.108c-0.462,3.054-2.376,4.871-5.524,4.871
			c-3.83,0-5.866-2.666-5.866-6.397c0-3.757,1.939-6.713,5.913-6.713c2.835,0,5.114,1.333,5.404,4.313H644.469z"/>
		<path fill="#FFFFFF" d="M653.888,308.204c-0.946,2.448-1.794,3.344-3.636,3.344c-0.485,0-0.97-0.048-1.43-0.218v-1.891
			c0.387,0.122,0.8,0.292,1.212,0.292c0.848,0,1.309-0.412,1.696-1.14l0.848-2.132l-4.967-12.456h2.326l3.659,10.25h0.048
			l3.514-10.25h2.182L653.888,308.204z"/>
	</g>
</g>
<g>
	<g>
		<path fill="#FFFFFF" d="M473.14,198.407h-1.007v-7.752h-2.808l-0.183,1.419c-0.242,1.888-0.453,3.27-0.637,4.142
			c-0.183,0.874-0.425,1.481-0.726,1.825c-0.299,0.343-0.695,0.51-1.192,0.502c-0.292,0-0.554-0.049-0.787-0.147v-0.846
			c0.213,0.103,0.436,0.153,0.669,0.153c0.208,0,0.391-0.085,0.546-0.257c0.155-0.171,0.294-0.469,0.414-0.893
			c0.119-0.424,0.271-1.229,0.456-2.412c0.183-1.186,0.385-2.646,0.604-4.379h4.649V198.407z"/>
		<path fill="#FFFFFF" d="M476.291,191.926v4.109l-0.04,1.076l-0.019,0.337l3.506-5.522h1.225v6.48h-0.917v-3.962l0.019-0.78
			l0.028-0.769l-3.501,5.511h-1.223v-6.48H476.291z"/>
		<path fill="#FFFFFF" d="M483.907,191.926v2.365c0,0.757,0.431,1.135,1.296,1.135c0.358,0,0.701-0.055,1.027-0.165
			c0.328-0.111,0.699-0.298,1.111-0.563v-2.772h0.983v6.48h-0.983v-2.933c-0.412,0.283-0.795,0.483-1.148,0.6
			s-0.752,0.175-1.198,0.175c-0.646,0-1.153-0.17-1.519-0.509c-0.368-0.339-0.551-0.798-0.551-1.378v-2.436H483.907z"/>
		<path fill="#FFFFFF" d="M491.388,191.926v2.714h3.631v-2.714H496v6.48h-0.981v-2.921h-3.631v2.921h-0.981v-6.48H491.388z"/>
		<path fill="#FFFFFF" d="M503.675,195.161c0,1.057-0.266,1.881-0.799,2.474c-0.53,0.594-1.268,0.891-2.205,0.891
			c-0.579,0-1.093-0.136-1.542-0.408c-0.45-0.271-0.798-0.662-1.041-1.171c-0.245-0.508-0.368-1.104-0.368-1.785
			c0-1.057,0.265-1.88,0.794-2.47c0.527-0.589,1.26-0.883,2.199-0.883c0.906,0,1.627,0.301,2.161,0.904
			S503.675,194.131,503.675,195.161z M498.737,195.161c0,0.827,0.166,1.459,0.497,1.892c0.331,0.434,0.819,0.65,1.461,0.65
			c0.643,0,1.131-0.215,1.464-0.647c0.332-0.431,0.5-1.063,0.5-1.895c0-0.824-0.168-1.45-0.5-1.878
			c-0.333-0.428-0.825-0.642-1.476-0.642c-0.642,0-1.127,0.212-1.454,0.633C498.901,193.696,498.737,194.325,498.737,195.161z"/>
		<path fill="#FFFFFF" d="M507.985,198.525c-0.938,0-1.664-0.289-2.179-0.866c-0.514-0.577-0.772-1.395-0.772-2.451
			c0-1.084,0.262-1.922,0.784-2.513c0.521-0.592,1.267-0.887,2.233-0.887c0.311,0,0.621,0.033,0.933,0.101
			c0.313,0.066,0.558,0.146,0.733,0.236l-0.301,0.833c-0.217-0.087-0.453-0.158-0.71-0.216c-0.257-0.057-0.483-0.085-0.679-0.085
			c-1.318,0-1.978,0.839-1.978,2.519c0,0.797,0.163,1.407,0.483,1.833c0.321,0.426,0.798,0.639,1.428,0.639
			c0.541,0,1.093-0.116,1.661-0.349v0.869C509.19,198.413,508.644,198.525,507.985,198.525z"/>
		<path fill="#FFFFFF" d="M515.529,192.766h-2.105v5.641h-0.979v-5.641h-2.082v-0.84h5.167V192.766z"/>
		<path fill="#FFFFFF" d="M517.794,191.926v2.714h3.63v-2.714h0.982v6.48h-0.982v-2.921h-3.63v2.921h-0.981v-6.48H517.794z"/>
		<path fill="#FFFFFF" d="M530.082,195.161c0,1.057-0.266,1.881-0.799,2.474c-0.531,0.594-1.268,0.891-2.205,0.891
			c-0.579,0-1.093-0.136-1.542-0.408c-0.45-0.271-0.798-0.662-1.041-1.171c-0.245-0.508-0.368-1.104-0.368-1.785
			c0-1.057,0.265-1.88,0.794-2.47c0.527-0.589,1.26-0.883,2.199-0.883c0.906,0,1.627,0.301,2.161,0.904
			S530.082,194.131,530.082,195.161z M525.143,195.161c0,0.827,0.166,1.459,0.497,1.892c0.331,0.434,0.819,0.65,1.461,0.65
			c0.643,0,1.131-0.215,1.463-0.647c0.333-0.431,0.5-1.063,0.5-1.895c0-0.824-0.167-1.45-0.5-1.878
			c-0.332-0.428-0.824-0.642-1.475-0.642c-0.642,0-1.127,0.212-1.454,0.633C525.307,193.696,525.143,194.325,525.143,195.161z"/>
		<path fill="#FFFFFF" d="M535.87,191.926v4.109l-0.041,1.076l-0.019,0.337l3.506-5.522h1.225v6.48h-0.917v-3.962l0.019-0.78
			l0.028-0.769l-3.5,5.511h-1.224v-6.48H535.87z"/>
		<path fill="#FFFFFF" d="M551.362,195.161c0,1.057-0.266,1.881-0.799,2.474c-0.53,0.594-1.268,0.891-2.205,0.891
			c-0.579,0-1.093-0.136-1.542-0.408c-0.45-0.271-0.798-0.662-1.041-1.171c-0.245-0.508-0.368-1.104-0.368-1.785
			c0-1.057,0.265-1.88,0.794-2.47c0.527-0.589,1.26-0.883,2.199-0.883c0.906,0,1.627,0.301,2.161,0.904
			S551.362,194.131,551.362,195.161z M546.423,195.161c0,0.827,0.166,1.459,0.497,1.892c0.331,0.434,0.819,0.65,1.461,0.65
			c0.643,0,1.131-0.215,1.463-0.647c0.333-0.431,0.501-1.063,0.501-1.895c0-0.824-0.168-1.45-0.501-1.878
			c-0.332-0.428-0.824-0.642-1.475-0.642c-0.642,0-1.127,0.212-1.454,0.633C546.587,193.696,546.423,194.325,546.423,195.161z"/>
		<path fill="#FFFFFF" d="M556.097,198.525c-0.422,0-0.808-0.077-1.155-0.233c-0.35-0.156-0.643-0.395-0.879-0.719h-0.07
			c0.047,0.379,0.07,0.737,0.07,1.076v2.667h-0.981v-9.39h0.798l0.137,0.887h0.047c0.252-0.354,0.546-0.61,0.881-0.769
			c0.336-0.158,0.72-0.236,1.153-0.236c0.86,0,1.522,0.294,1.99,0.881c0.467,0.587,0.701,1.411,0.701,2.472
			c0,1.064-0.238,1.892-0.713,2.48S556.94,198.525,556.097,198.525z M555.956,192.641c-0.662,0-1.141,0.184-1.438,0.55
			c-0.294,0.367-0.446,0.951-0.455,1.751v0.219c0,0.91,0.152,1.562,0.455,1.954c0.304,0.393,0.79,0.588,1.461,0.588
			c0.56,0,0.999-0.226,1.316-0.68c0.317-0.453,0.477-1.078,0.477-1.874c0-0.809-0.159-1.429-0.477-1.859
			C556.978,192.857,556.532,192.641,555.956,192.641z"/>
		<path fill="#FFFFFF" d="M564.405,192.766h-2.922v5.641h-0.981v-6.48h3.903V192.766z"/>
		<path fill="#FFFFFF" d="M569.673,198.407l-0.193-0.923h-0.048c-0.324,0.406-0.646,0.682-0.968,0.825
			c-0.321,0.145-0.722,0.216-1.203,0.216c-0.642,0-1.146-0.165-1.511-0.497c-0.364-0.331-0.547-0.802-0.547-1.413
			c0-1.309,1.046-1.994,3.141-2.058l1.098-0.035v-0.402c0-0.509-0.107-0.885-0.327-1.126c-0.218-0.243-0.567-0.364-1.049-0.364
			c-0.541,0-1.151,0.166-1.834,0.497l-0.3-0.751c0.317-0.173,0.669-0.31,1.049-0.408s0.762-0.147,1.144-0.147
			c0.772,0,1.345,0.171,1.718,0.514c0.372,0.344,0.56,0.894,0.56,1.65v4.423H569.673z M567.456,197.715
			c0.611,0,1.092-0.168,1.441-0.503c0.348-0.336,0.521-0.805,0.521-1.407v-0.586l-0.979,0.042c-0.78,0.027-1.345,0.148-1.689,0.363
			s-0.518,0.549-0.518,1.002c0,0.355,0.108,0.626,0.323,0.811S567.071,197.715,567.456,197.715z"/>
		<path fill="#FFFFFF" d="M573.404,191.926v2.714h3.631v-2.714h0.981v6.48h-0.981v-2.921h-3.631v2.921h-0.981v-6.48H573.404z"/>
		<path fill="#FFFFFF" d="M581.02,191.926v4.109l-0.04,1.076l-0.019,0.337l3.505-5.522h1.226v6.48h-0.918v-3.962l0.019-0.78
			l0.029-0.769l-3.501,5.511h-1.223v-6.48H581.02z"/>
		<path fill="#FFFFFF" d="M589.009,194.617c1.226,0,1.839-0.339,1.839-1.018c0-0.639-0.497-0.958-1.49-0.958
			c-0.305,0-0.58,0.028-0.828,0.083s-0.574,0.166-0.977,0.331l-0.348-0.798c0.671-0.3,1.402-0.449,2.192-0.449
			c0.747,0,1.333,0.152,1.764,0.457c0.43,0.307,0.644,0.724,0.644,1.251c0,0.727-0.403,1.201-1.211,1.426v0.047
			c0.497,0.146,0.858,0.354,1.088,0.624c0.229,0.27,0.342,0.607,0.342,1.014c0,0.6-0.24,1.065-0.724,1.398
			c-0.483,0.334-1.15,0.5-2.002,0.5c-0.935,0-1.655-0.141-2.164-0.42v-0.898c0.722,0.339,1.451,0.509,2.188,0.509
			c0.568,0,0.997-0.098,1.286-0.294c0.29-0.194,0.436-0.476,0.436-0.842c0-0.753-0.613-1.13-1.84-1.13h-0.898v-0.833H589.009z"/>
		<path fill="#FFFFFF" d="M597.607,198.407l-0.194-0.923h-0.047c-0.324,0.406-0.647,0.682-0.968,0.825
			c-0.321,0.145-0.722,0.216-1.203,0.216c-0.643,0-1.146-0.165-1.511-0.497c-0.364-0.331-0.547-0.802-0.547-1.413
			c0-1.309,1.046-1.994,3.141-2.058l1.098-0.035v-0.402c0-0.509-0.107-0.885-0.327-1.126c-0.218-0.243-0.568-0.364-1.05-0.364
			c-0.54,0-1.15,0.166-1.833,0.497l-0.301-0.751c0.318-0.173,0.669-0.31,1.05-0.408c0.38-0.099,0.762-0.147,1.144-0.147
			c0.772,0,1.345,0.171,1.718,0.514c0.372,0.344,0.56,0.894,0.56,1.65v4.423H597.607z M595.389,197.715
			c0.611,0,1.091-0.168,1.441-0.503c0.348-0.336,0.521-0.805,0.521-1.407v-0.586l-0.979,0.042c-0.781,0.027-1.345,0.148-1.689,0.363
			s-0.518,0.549-0.518,1.002c0,0.355,0.108,0.626,0.323,0.811C594.703,197.622,595.003,197.715,595.389,197.715z"/>
		<path fill="#FFFFFF" d="M606.678,200.648h-0.983v-2.241h-5.339v-6.48h0.981v5.635h3.441v-5.635h0.981v5.635h0.918V200.648z"/>
		<path fill="#FFFFFF" d="M608.859,191.926v4.109l-0.04,1.076l-0.019,0.337l3.505-5.522h1.226v6.48h-0.918v-3.962l0.019-0.78
			l0.029-0.769l-3.501,5.511h-1.223v-6.48H608.859z"/>
		<path fill="#FFFFFF" d="M621.206,195.161c0,1.057-0.266,1.881-0.799,2.474c-0.531,0.594-1.268,0.891-2.205,0.891
			c-0.579,0-1.093-0.136-1.542-0.408c-0.45-0.271-0.798-0.662-1.041-1.171c-0.245-0.508-0.368-1.104-0.368-1.785
			c0-1.057,0.265-1.88,0.794-2.47c0.527-0.589,1.26-0.883,2.199-0.883c0.906,0,1.627,0.301,2.161,0.904
			S621.206,194.131,621.206,195.161z M616.267,195.161c0,0.827,0.166,1.459,0.497,1.892c0.331,0.434,0.819,0.65,1.461,0.65
			c0.643,0,1.131-0.215,1.463-0.647c0.333-0.431,0.5-1.063,0.5-1.895c0-0.824-0.167-1.45-0.5-1.878
			c-0.332-0.428-0.824-0.642-1.475-0.642c-0.642,0-1.127,0.212-1.454,0.633C616.431,193.696,616.267,194.325,616.267,195.161z"/>
		<path fill="#FFFFFF" d="M623.909,191.926v2.714h3.631v-2.714h0.981v6.48h-0.981v-2.921h-3.631v2.921h-0.981v-6.48H623.909z"/>
		<path fill="#FFFFFF" d="M631.583,191.926v2.714h3.631v-2.714h0.981v6.48h-0.981v-2.921h-3.631v2.921h-0.981v-6.48H631.583z"/>
		<path fill="#FFFFFF" d="M643.872,195.161c0,1.057-0.266,1.881-0.8,2.474c-0.53,0.594-1.267,0.891-2.204,0.891
			c-0.58,0-1.094-0.136-1.543-0.408c-0.449-0.271-0.797-0.662-1.04-1.171c-0.245-0.508-0.369-1.104-0.369-1.785
			c0-1.057,0.266-1.88,0.794-2.47c0.527-0.589,1.261-0.883,2.2-0.883c0.905,0,1.627,0.301,2.161,0.904
			C643.604,193.316,643.872,194.131,643.872,195.161z M638.933,195.161c0,0.827,0.165,1.459,0.496,1.892
			c0.332,0.434,0.82,0.65,1.462,0.65s1.13-0.215,1.463-0.647c0.333-0.431,0.5-1.063,0.5-1.895c0-0.824-0.167-1.45-0.5-1.878
			s-0.824-0.642-1.475-0.642c-0.643,0-1.127,0.212-1.455,0.633C639.097,193.696,638.933,194.325,638.933,195.161z"/>
		<path fill="#FFFFFF" d="M651.754,198.525c-0.423,0-0.808-0.077-1.156-0.233c-0.35-0.156-0.642-0.395-0.878-0.719h-0.071
			c0.048,0.379,0.071,0.737,0.071,1.076v2.667h-0.981v-9.39h0.797l0.137,0.887h0.048c0.252-0.354,0.546-0.61,0.88-0.769
			c0.336-0.158,0.72-0.236,1.154-0.236c0.859,0,1.522,0.294,1.99,0.881c0.466,0.587,0.701,1.411,0.701,2.472
			c0,1.064-0.238,1.892-0.713,2.48S652.597,198.525,651.754,198.525z M651.612,192.641c-0.662,0-1.14,0.184-1.438,0.55
			c-0.294,0.367-0.445,0.951-0.454,1.751v0.219c0,0.91,0.152,1.562,0.454,1.954c0.305,0.393,0.791,0.588,1.462,0.588
			c0.559,0,0.998-0.226,1.315-0.68c0.318-0.453,0.477-1.078,0.477-1.874c0-0.809-0.158-1.429-0.477-1.859
			C652.634,192.857,652.188,192.641,651.612,192.641z"/>
		<path fill="#FFFFFF" d="M660.144,198.407l-0.194-0.923h-0.047c-0.325,0.406-0.647,0.682-0.969,0.825
			c-0.32,0.145-0.721,0.216-1.202,0.216c-0.643,0-1.146-0.165-1.511-0.497c-0.365-0.331-0.548-0.802-0.548-1.413
			c0-1.309,1.046-1.994,3.141-2.058l1.099-0.035v-0.402c0-0.509-0.108-0.885-0.328-1.126c-0.218-0.243-0.567-0.364-1.049-0.364
			c-0.541,0-1.15,0.166-1.833,0.497l-0.301-0.751c0.317-0.173,0.669-0.31,1.049-0.408c0.381-0.099,0.763-0.147,1.145-0.147
			c0.771,0,1.345,0.171,1.718,0.514c0.372,0.344,0.56,0.894,0.56,1.65v4.423H660.144z M657.926,197.715
			c0.611,0,1.091-0.168,1.44-0.503c0.349-0.336,0.522-0.805,0.522-1.407v-0.586l-0.98,0.042c-0.78,0.027-1.345,0.148-1.689,0.363
			s-0.517,0.549-0.517,1.002c0,0.355,0.108,0.626,0.322,0.811C657.24,197.622,657.541,197.715,657.926,197.715z"/>
		<path fill="#FFFFFF" d="M664.129,194.617c1.225,0,1.838-0.339,1.838-1.018c0-0.639-0.496-0.958-1.49-0.958
			c-0.304,0-0.579,0.028-0.827,0.083c-0.249,0.055-0.574,0.166-0.977,0.331l-0.349-0.798c0.671-0.3,1.402-0.449,2.193-0.449
			c0.747,0,1.333,0.152,1.764,0.457c0.43,0.307,0.644,0.724,0.644,1.251c0,0.727-0.403,1.201-1.211,1.426v0.047
			c0.496,0.146,0.858,0.354,1.088,0.624c0.228,0.27,0.341,0.607,0.341,1.014c0,0.6-0.239,1.065-0.723,1.398
			c-0.483,0.334-1.15,0.5-2.002,0.5c-0.935,0-1.656-0.141-2.164-0.42v-0.898c0.721,0.339,1.451,0.509,2.188,0.509
			c0.567,0,0.997-0.098,1.286-0.294c0.29-0.194,0.436-0.476,0.436-0.842c0-0.753-0.613-1.13-1.84-1.13h-0.898v-0.833H664.129z"/>
		<path fill="#FFFFFF" d="M674,193.552c0,0.421-0.122,0.742-0.365,0.96c-0.241,0.22-0.581,0.366-1.021,0.441v0.053
			c0.553,0.075,0.956,0.237,1.21,0.485c0.255,0.248,0.382,0.591,0.382,1.028c0,0.604-0.222,1.069-0.666,1.396
			c-0.442,0.327-1.091,0.491-1.942,0.491h-2.855v-6.48h2.845C673.195,191.926,674,192.468,674,193.552z M673.04,193.647
			c0-0.315-0.12-0.539-0.363-0.672c-0.241-0.132-0.609-0.197-1.104-0.197h-1.85v1.827h1.661c0.607,0,1.035-0.075,1.283-0.225
			C672.917,194.23,673.04,193.986,673.04,193.647z M673.224,196.456c0-0.351-0.134-0.606-0.399-0.766
			c-0.267-0.16-0.707-0.24-1.322-0.24h-1.779v2.135h1.803C672.658,197.584,673.224,197.208,673.224,196.456z"/>
		<path fill="#FFFFFF" d="M676.553,191.926v4.109l-0.04,1.076l-0.019,0.337l3.506-5.522h1.225v6.48h-0.917v-3.962l0.019-0.78
			l0.028-0.769l-3.501,5.511h-1.223v-6.48H676.553z"/>
		<path fill="#FFFFFF" d="M687.675,192.766h-2.105v5.641h-0.979v-5.641h-2.081v-0.84h5.166V192.766z"/>
		<path fill="#FFFFFF" d="M689.881,191.926v4.109l-0.04,1.076l-0.019,0.337l3.506-5.522h1.225v6.48h-0.917v-3.962l0.019-0.78
			l0.028-0.769l-3.501,5.511h-1.223v-6.48H689.881z"/>
		<path fill="#FFFFFF" d="M699.372,198.525c-0.956,0-1.713-0.291-2.268-0.875c-0.554-0.584-0.831-1.394-0.831-2.431
			c0-1.045,0.259-1.874,0.772-2.489c0.515-0.615,1.206-0.922,2.072-0.922c0.813,0,1.455,0.267,1.928,0.801
			c0.474,0.534,0.71,1.239,0.71,2.114v0.62h-4.465c0.02,0.762,0.212,1.339,0.577,1.733s0.879,0.591,1.541,0.591
			c0.696,0,1.387-0.146,2.067-0.438v0.875c-0.346,0.149-0.674,0.258-0.982,0.322C700.184,198.493,699.811,198.525,699.372,198.525z
			 M699.106,192.629c-0.521,0-0.936,0.17-1.245,0.509c-0.309,0.339-0.491,0.809-0.547,1.407h3.389c0-0.619-0.139-1.093-0.414-1.422
			S699.618,192.629,699.106,192.629z"/>
		<path fill="#FFFFFF" d="M703.288,197.78c0-0.265,0.061-0.465,0.181-0.6c0.12-0.137,0.292-0.204,0.517-0.204
			c0.229,0,0.407,0.067,0.536,0.204c0.128,0.135,0.192,0.335,0.192,0.6c0,0.256-0.065,0.454-0.196,0.592
			c-0.13,0.138-0.307,0.207-0.532,0.207c-0.2,0-0.368-0.063-0.5-0.188C703.353,198.268,703.288,198.064,703.288,197.78z"/>
		<path fill="#FFFFFF" d="M470.691,205.068c-0.95,0-1.7,0.317-2.249,0.949c-0.551,0.634-0.826,1.499-0.826,2.599
			c0,1.132,0.266,2.006,0.796,2.623s1.285,0.925,2.269,0.925c0.602,0,1.291-0.107,2.063-0.325v0.882
			c-0.6,0.225-1.338,0.337-2.218,0.337c-1.272,0-2.256-0.387-2.946-1.159c-0.692-0.773-1.037-1.87-1.037-3.294
			c0-0.891,0.165-1.672,0.498-2.342c0.333-0.669,0.814-1.187,1.442-1.549c0.629-0.362,1.37-0.544,2.222-0.544
			c0.906,0,1.698,0.166,2.376,0.497l-0.426,0.863C472,205.222,471.346,205.068,470.691,205.068z"/>
		<path fill="#FFFFFF" d="M477.218,213.057c-0.956,0-1.713-0.292-2.267-0.875c-0.555-0.584-0.832-1.395-0.832-2.431
			c0-1.045,0.259-1.875,0.772-2.489c0.516-0.615,1.206-0.923,2.073-0.923c0.813,0,1.454,0.268,1.928,0.801
			c0.473,0.535,0.709,1.239,0.709,2.114v0.621h-4.465c0.021,0.761,0.213,1.338,0.578,1.732c0.364,0.395,0.878,0.592,1.54,0.592
			c0.696,0,1.388-0.146,2.068-0.438v0.875c-0.347,0.149-0.674,0.258-0.983,0.321C478.031,213.025,477.658,213.057,477.218,213.057z
			 M476.954,207.162c-0.521,0-0.937,0.17-1.245,0.509c-0.31,0.338-0.492,0.808-0.548,1.407h3.389c0-0.619-0.138-1.094-0.413-1.422
			C477.861,207.327,477.465,207.162,476.954,207.162z"/>
		<path fill="#FFFFFF" d="M480.939,209.053c0-1.419,0.209-2.525,0.628-3.32c0.418-0.794,1.08-1.29,1.987-1.486
			c1.127-0.241,2.12-0.437,2.979-0.586l0.183,0.863c-1.368,0.229-2.345,0.41-2.933,0.544c-0.571,0.131-1,0.438-1.286,0.923
			c-0.285,0.484-0.442,1.146-0.471,1.98h0.07c0.245-0.331,0.562-0.591,0.946-0.78c0.387-0.189,0.791-0.284,1.213-0.284
			c0.796,0,1.418,0.259,1.862,0.775c0.446,0.516,0.669,1.231,0.669,2.146c0,1.013-0.259,1.804-0.773,2.373
			c-0.518,0.57-1.237,0.855-2.159,0.855c-0.911,0-1.624-0.35-2.141-1.047C481.197,211.312,480.939,210.327,480.939,209.053z
			 M483.943,212.235c1.202,0,1.804-0.767,1.804-2.3c0-1.463-0.546-2.194-1.639-2.194c-0.299,0-0.588,0.062-0.865,0.187
			c-0.278,0.124-0.532,0.288-0.764,0.494c-0.229,0.205-0.408,0.415-0.533,0.632c0,1.037,0.162,1.827,0.489,2.368
			C482.763,211.963,483.265,212.235,483.943,212.235z"/>
		<path fill="#FFFFFF" d="M491.234,213.057c-0.956,0-1.713-0.292-2.267-0.875c-0.555-0.584-0.831-1.395-0.831-2.431
			c0-1.045,0.258-1.875,0.771-2.489c0.516-0.615,1.206-0.923,2.073-0.923c0.813,0,1.454,0.268,1.928,0.801
			c0.473,0.535,0.709,1.239,0.709,2.114v0.621h-4.465c0.021,0.761,0.213,1.338,0.578,1.732c0.364,0.395,0.878,0.592,1.54,0.592
			c0.696,0,1.388-0.146,2.068-0.438v0.875c-0.347,0.149-0.674,0.258-0.983,0.321C492.046,213.025,491.673,213.057,491.234,213.057z
			 M490.969,207.162c-0.521,0-0.937,0.17-1.245,0.509c-0.31,0.338-0.492,0.808-0.548,1.407h3.39c0-0.619-0.139-1.094-0.414-1.422
			C491.876,207.327,491.481,207.162,490.969,207.162z"/>
		<path fill="#FFFFFF" d="M496.274,212.939h-0.981v-6.481h5.439v6.481h-0.993v-5.63h-3.465V212.939z"/>
		<path fill="#FFFFFF" d="M508.408,209.692c0,1.057-0.266,1.882-0.8,2.475c-0.53,0.594-1.267,0.891-2.204,0.891
			c-0.58,0-1.093-0.137-1.543-0.408c-0.449-0.272-0.797-0.662-1.04-1.171c-0.245-0.509-0.368-1.104-0.368-1.786
			c0-1.057,0.265-1.879,0.794-2.469c0.526-0.589,1.26-0.884,2.199-0.884c0.905,0,1.627,0.302,2.161,0.905
			C508.14,207.847,508.408,208.664,508.408,209.692z M503.469,209.692c0,0.828,0.166,1.459,0.497,1.893s0.819,0.65,1.461,0.65
			s1.13-0.216,1.463-0.647s0.5-1.063,0.5-1.896c0-0.823-0.167-1.449-0.5-1.878c-0.333-0.427-0.824-0.641-1.475-0.641
			c-0.642,0-1.127,0.211-1.455,0.633C503.633,208.227,503.469,208.857,503.469,209.692z"/>
		<path fill="#FFFFFF" d="M511.366,209.148c1.225,0,1.838-0.339,1.838-1.017c0-0.639-0.496-0.958-1.49-0.958
			c-0.304,0-0.579,0.027-0.827,0.083c-0.249,0.055-0.575,0.165-0.977,0.331l-0.349-0.799c0.671-0.3,1.402-0.449,2.193-0.449
			c0.747,0,1.333,0.153,1.764,0.458c0.429,0.306,0.644,0.723,0.644,1.251c0,0.726-0.403,1.2-1.211,1.425v0.048
			c0.496,0.146,0.858,0.354,1.088,0.623c0.228,0.271,0.341,0.608,0.341,1.015c0,0.599-0.239,1.065-0.723,1.398s-1.15,0.5-2.002,0.5
			c-0.935,0-1.656-0.141-2.164-0.42v-0.899c0.721,0.339,1.451,0.509,2.188,0.509c0.567,0,0.997-0.097,1.286-0.293
			c0.29-0.194,0.436-0.476,0.436-0.842c0-0.753-0.613-1.13-1.84-1.13h-0.898v-0.834H511.366z"/>
		<path fill="#FFFFFF" d="M516.959,206.458v2.715h3.631v-2.715h0.981v6.481h-0.981v-2.922h-3.631v2.922h-0.981v-6.481H516.959z"/>
		<path fill="#FFFFFF" d="M527.638,212.939l-0.194-0.923h-0.047c-0.324,0.406-0.647,0.681-0.968,0.824
			c-0.321,0.145-0.722,0.217-1.203,0.217c-0.642,0-1.146-0.166-1.511-0.497c-0.364-0.331-0.547-0.803-0.547-1.413
			c0-1.309,1.046-1.994,3.141-2.058l1.098-0.036v-0.401c0-0.509-0.107-0.885-0.327-1.126c-0.218-0.243-0.568-0.364-1.05-0.364
			c-0.54,0-1.15,0.165-1.833,0.496l-0.301-0.751c0.318-0.173,0.669-0.309,1.05-0.407c0.38-0.1,0.762-0.148,1.144-0.148
			c0.772,0,1.345,0.172,1.718,0.515c0.372,0.343,0.56,0.893,0.56,1.649v4.424H527.638z M525.42,212.247
			c0.611,0,1.091-0.167,1.441-0.503c0.348-0.335,0.521-0.804,0.521-1.407v-0.585l-0.979,0.041c-0.781,0.028-1.345,0.149-1.689,0.363
			c-0.345,0.216-0.518,0.55-0.518,1.003c0,0.354,0.108,0.625,0.323,0.811C524.734,212.154,525.035,212.247,525.42,212.247z"/>
		<path fill="#FFFFFF" d="M531.371,206.458v2.715h3.631v-2.715h0.981v6.481h-0.981v-2.922h-3.631v2.922h-0.981v-6.481H531.371z"/>
		<path fill="#FFFFFF" d="M538.987,206.458v4.11l-0.041,1.076l-0.019,0.337l3.506-5.523h1.225v6.481h-0.917v-3.962l0.019-0.781
			l0.028-0.769l-3.5,5.512h-1.224v-6.481H538.987z"/>
		<path fill="#FFFFFF" d="M548.476,213.057c-0.956,0-1.713-0.292-2.267-0.875c-0.555-0.584-0.832-1.395-0.832-2.431
			c0-1.045,0.259-1.875,0.772-2.489c0.516-0.615,1.206-0.923,2.073-0.923c0.813,0,1.454,0.268,1.928,0.801
			c0.473,0.535,0.709,1.239,0.709,2.114v0.621h-4.465c0.021,0.761,0.213,1.338,0.577,1.732c0.365,0.395,0.879,0.592,1.541,0.592
			c0.696,0,1.388-0.146,2.068-0.438v0.875c-0.347,0.149-0.675,0.258-0.983,0.321C549.289,213.025,548.916,213.057,548.476,213.057z
			 M548.211,207.162c-0.521,0-0.937,0.17-1.245,0.509c-0.31,0.338-0.492,0.808-0.548,1.407h3.389c0-0.619-0.138-1.094-0.413-1.422
			C549.119,207.327,548.723,207.162,548.211,207.162z"/>
		<path fill="#FFFFFF" d="M552.392,212.312c0-0.265,0.062-0.465,0.181-0.6c0.12-0.138,0.293-0.205,0.518-0.205
			c0.228,0,0.407,0.067,0.535,0.205c0.129,0.135,0.192,0.335,0.192,0.6c0,0.256-0.065,0.453-0.195,0.591s-0.308,0.207-0.532,0.207
			c-0.201,0-0.368-0.062-0.5-0.187C552.458,212.8,552.392,212.595,552.392,212.312z"/>
		<path fill="#FFFFFF" d="M564.658,210.419c0,0.859-0.257,1.494-0.767,1.904c-0.511,0.409-1.281,0.615-2.308,0.615h-2.531v-8.646
			h5.096v0.893h-4.092v2.797h1.343c0.76,0,1.38,0.088,1.856,0.264c0.477,0.175,0.83,0.435,1.058,0.777
			C564.542,209.367,564.658,209.833,564.658,210.419z M560.056,212.069h1.414c0.748,0,1.294-0.128,1.635-0.384
			c0.342-0.256,0.512-0.679,0.512-1.266c0-0.56-0.174-0.958-0.52-1.194c-0.349-0.236-0.953-0.354-1.816-0.354h-1.225V212.069z"/>
		<path fill="#FFFFFF" d="M570.309,212.939l-0.194-0.923h-0.047c-0.325,0.406-0.647,0.681-0.969,0.824
			c-0.32,0.145-0.721,0.217-1.202,0.217c-0.643,0-1.146-0.166-1.511-0.497s-0.548-0.803-0.548-1.413
			c0-1.309,1.046-1.994,3.141-2.058l1.099-0.036v-0.401c0-0.509-0.108-0.885-0.328-1.126c-0.218-0.243-0.567-0.364-1.049-0.364
			c-0.541,0-1.15,0.165-1.833,0.496l-0.301-0.751c0.317-0.173,0.669-0.309,1.049-0.407c0.381-0.1,0.763-0.148,1.145-0.148
			c0.771,0,1.345,0.172,1.718,0.515c0.372,0.343,0.56,0.893,0.56,1.649v4.424H570.309z M568.09,212.247
			c0.612,0,1.092-0.167,1.441-0.503c0.349-0.335,0.522-0.804,0.522-1.407v-0.585l-0.98,0.041c-0.78,0.028-1.345,0.149-1.689,0.363
			c-0.345,0.216-0.517,0.55-0.517,1.003c0,0.354,0.108,0.625,0.322,0.811C567.405,212.154,567.706,212.247,568.09,212.247z"/>
		<path fill="#FFFFFF" d="M577.889,212.939h-0.993v-5.642h-1.946c-0.106,1.403-0.253,2.518-0.442,3.341
			c-0.189,0.824-0.436,1.427-0.736,1.81c-0.303,0.383-0.687,0.573-1.15,0.573c-0.213,0-0.382-0.023-0.509-0.07v-0.728
			c0.086,0.023,0.186,0.035,0.296,0.035c0.452,0,0.813-0.479,1.083-1.437c0.267-0.958,0.47-2.413,0.607-4.364h3.791V212.939z"/>
		<path fill="#FFFFFF" d="M583.957,212.939l-0.194-0.923h-0.047c-0.325,0.406-0.647,0.681-0.969,0.824
			c-0.32,0.145-0.721,0.217-1.203,0.217c-0.642,0-1.145-0.166-1.51-0.497s-0.548-0.803-0.548-1.413c0-1.309,1.046-1.994,3.141-2.058
			l1.099-0.036v-0.401c0-0.509-0.108-0.885-0.328-1.126c-0.218-0.243-0.567-0.364-1.049-0.364c-0.541,0-1.15,0.165-1.833,0.496
			l-0.301-0.751c0.317-0.173,0.669-0.309,1.049-0.407c0.381-0.1,0.763-0.148,1.145-0.148c0.771,0,1.345,0.172,1.718,0.515
			c0.372,0.343,0.56,0.893,0.56,1.649v4.424H583.957z M581.738,212.247c0.612,0,1.092-0.167,1.441-0.503
			c0.348-0.335,0.522-0.804,0.522-1.407v-0.585l-0.98,0.041c-0.78,0.028-1.345,0.149-1.689,0.363
			c-0.345,0.216-0.517,0.55-0.517,1.003c0,0.354,0.108,0.625,0.322,0.811C581.052,212.154,581.353,212.247,581.738,212.247z"/>
		<path fill="#FFFFFF" d="M587.687,206.458v2.715h3.631v-2.715h0.981v6.481h-0.981v-2.922h-3.631v2.922h-0.981v-6.481H587.687z"/>
		<path fill="#FFFFFF" d="M596.97,213.057c-0.938,0-1.664-0.289-2.18-0.867c-0.514-0.577-0.771-1.394-0.771-2.45
			c0-1.084,0.262-1.922,0.784-2.514c0.521-0.591,1.267-0.887,2.233-0.887c0.311,0,0.621,0.034,0.933,0.101
			c0.313,0.066,0.557,0.146,0.732,0.236l-0.301,0.834c-0.216-0.087-0.452-0.159-0.709-0.216s-0.483-0.086-0.68-0.086
			c-1.317,0-1.977,0.84-1.977,2.52c0,0.796,0.162,1.407,0.483,1.833s0.798,0.639,1.428,0.639c0.54,0,1.093-0.117,1.66-0.35v0.87
			C598.175,212.945,597.629,213.057,596.97,213.057z"/>
		<path fill="#FFFFFF" d="M600.004,212.312c0-0.265,0.061-0.465,0.181-0.6c0.12-0.138,0.293-0.205,0.518-0.205
			c0.228,0,0.407,0.067,0.535,0.205c0.129,0.135,0.192,0.335,0.192,0.6c0,0.256-0.065,0.453-0.195,0.591
			c-0.131,0.138-0.308,0.207-0.532,0.207c-0.201,0-0.368-0.062-0.5-0.187C600.071,212.8,600.004,212.595,600.004,212.312z"/>
	</g>
</g>
<g>
	<g>
		<path fill="#FFFFFF" d="M474.326,328.233c0,0.859-0.256,1.494-0.767,1.904c-0.51,0.409-1.28,0.614-2.308,0.614h-2.531v-8.645
			h5.096V323h-4.092v2.797h1.343c0.761,0,1.381,0.088,1.857,0.264c0.476,0.175,0.829,0.435,1.058,0.777
			C474.211,327.18,474.326,327.646,474.326,328.233z M469.724,329.882h1.414c0.748,0,1.294-0.128,1.636-0.384
			c0.341-0.256,0.512-0.679,0.512-1.266c0-0.561-0.174-0.958-0.521-1.194c-0.348-0.236-0.953-0.355-1.816-0.355h-1.225V329.882z"/>
		<path fill="#FFFFFF" d="M476.915,324.271v4.109l-0.041,1.076l-0.019,0.337l3.506-5.522h1.225v6.48h-0.917v-3.962l0.019-0.78
			l0.028-0.769l-3.5,5.511h-1.224v-6.48H476.915z"/>
		<path fill="#FFFFFF" d="M484.904,326.961c1.225,0,1.838-0.339,1.838-1.017c0-0.639-0.496-0.958-1.49-0.958
			c-0.304,0-0.579,0.027-0.827,0.082c-0.249,0.056-0.575,0.166-0.977,0.331l-0.349-0.798c0.671-0.3,1.402-0.449,2.193-0.449
			c0.747,0,1.333,0.152,1.764,0.458c0.429,0.306,0.644,0.723,0.644,1.251c0,0.726-0.403,1.2-1.211,1.425v0.047
			c0.496,0.146,0.858,0.354,1.088,0.624c0.228,0.271,0.341,0.608,0.341,1.015c0,0.599-0.239,1.064-0.723,1.397
			c-0.483,0.334-1.15,0.5-2.002,0.5c-0.935,0-1.656-0.14-2.164-0.42v-0.898c0.721,0.339,1.451,0.509,2.188,0.509
			c0.567,0,0.997-0.098,1.286-0.293c0.29-0.194,0.436-0.476,0.436-0.843c0-0.752-0.613-1.129-1.84-1.129H484.2v-0.834H484.904z"/>
		<path fill="#FFFFFF" d="M490.496,324.271v2.714h3.631v-2.714h0.981v6.48h-0.981v-2.921h-3.631v2.921h-0.981v-6.48H490.496z"/>
		<path fill="#FFFFFF" d="M499.926,330.87c-0.956,0-1.713-0.291-2.267-0.875c-0.555-0.583-0.832-1.394-0.832-2.43
			c0-1.045,0.259-1.875,0.772-2.49c0.516-0.614,1.206-0.922,2.073-0.922c0.813,0,1.454,0.267,1.928,0.801
			c0.473,0.534,0.709,1.239,0.709,2.114v0.621h-4.465c0.021,0.761,0.213,1.338,0.577,1.732c0.365,0.395,0.879,0.591,1.541,0.591
			c0.696,0,1.388-0.146,2.068-0.438v0.875c-0.347,0.15-0.675,0.258-0.983,0.322C500.739,330.837,500.366,330.87,499.926,330.87z
			 M499.662,324.975c-0.521,0-0.937,0.169-1.245,0.508c-0.31,0.339-0.492,0.809-0.548,1.407h3.389c0-0.619-0.138-1.093-0.413-1.421
			C500.569,325.139,500.173,324.975,499.662,324.975z"/>
		<path fill="#FFFFFF" d="M506.573,330.87c-0.938,0-1.664-0.288-2.18-0.866c-0.514-0.577-0.771-1.394-0.771-2.45
			c0-1.084,0.262-1.922,0.783-2.514c0.522-0.591,1.268-0.887,2.233-0.887c0.312,0,0.622,0.033,0.933,0.101
			c0.313,0.066,0.558,0.146,0.733,0.236l-0.301,0.834c-0.216-0.087-0.452-0.159-0.709-0.217c-0.257-0.057-0.483-0.085-0.68-0.085
			c-1.317,0-1.977,0.84-1.977,2.519c0,0.797,0.162,1.407,0.483,1.833s0.797,0.639,1.428,0.639c0.54,0,1.093-0.116,1.66-0.349v0.869
			C507.777,330.757,507.232,330.87,506.573,330.87z"/>
		<path fill="#FFFFFF" d="M513.816,324.271v4.109l-0.041,1.076l-0.019,0.337l3.506-5.522h1.225v6.48h-0.917v-3.962l0.019-0.78
			l0.028-0.769l-3.501,5.511h-1.223v-6.48H513.816z"/>
		<path fill="#FFFFFF" d="M527.08,329.805l0.183-0.55l0.253-0.697l1.757-4.275h1.247v6.469h-0.868V325.4l-0.118,0.344l-0.343,0.904
			l-1.675,4.104h-0.821l-1.672-4.115c-0.21-0.528-0.354-0.94-0.433-1.236v5.352h-0.875v-6.469h1.199l1.698,4.109
			C526.781,328.826,526.937,329.297,527.08,329.805z"/>
		<path fill="#FFFFFF" d="M536.598,330.751l-0.194-0.922h-0.048c-0.324,0.406-0.646,0.681-0.968,0.824
			c-0.321,0.145-0.722,0.216-1.203,0.216c-0.642,0-1.146-0.165-1.511-0.496c-0.364-0.331-0.547-0.803-0.547-1.413
			c0-1.309,1.046-1.995,3.141-2.059l1.099-0.035v-0.402c0-0.508-0.108-0.884-0.328-1.126c-0.218-0.243-0.567-0.363-1.049-0.363
			c-0.541,0-1.151,0.165-1.833,0.496l-0.301-0.751c0.317-0.173,0.669-0.309,1.049-0.408c0.38-0.099,0.762-0.147,1.144-0.147
			c0.772,0,1.345,0.172,1.719,0.515c0.371,0.343,0.559,0.893,0.559,1.649v4.423H536.598z M534.379,330.06
			c0.611,0,1.092-0.167,1.441-0.503c0.348-0.335,0.521-0.804,0.521-1.407v-0.585l-0.979,0.041c-0.78,0.028-1.345,0.148-1.689,0.363
			c-0.345,0.216-0.517,0.549-0.517,1.003c0,0.354,0.107,0.625,0.322,0.81C533.694,329.967,533.995,330.06,534.379,330.06z"/>
		<path fill="#FFFFFF" d="M542.362,330.87c-0.422,0-0.808-0.077-1.155-0.232c-0.35-0.156-0.642-0.396-0.879-0.719h-0.07
			c0.047,0.378,0.07,0.737,0.07,1.076v2.666h-0.981v-9.39h0.798l0.137,0.887h0.047c0.252-0.354,0.546-0.61,0.881-0.769
			c0.336-0.158,0.72-0.236,1.153-0.236c0.86,0,1.522,0.294,1.99,0.881c0.467,0.587,0.701,1.411,0.701,2.472
			c0,1.064-0.238,1.892-0.713,2.481C543.866,330.575,543.206,330.87,542.362,330.87z M542.22,324.987
			c-0.662,0-1.141,0.183-1.438,0.55c-0.294,0.366-0.446,0.95-0.455,1.75v0.219c0,0.911,0.152,1.562,0.455,1.954
			c0.304,0.393,0.79,0.589,1.461,0.589c0.56,0,0.999-0.227,1.316-0.681c0.317-0.453,0.477-1.077,0.477-1.874
			c0-0.809-0.159-1.429-0.477-1.859C543.243,325.202,542.796,324.987,542.22,324.987z"/>
		<path fill="#FFFFFF" d="M550.544,324.271h1.077l-2.797,3.128l3.027,3.353h-1.147l-2.956-3.281v3.281h-0.982v-6.48h0.982v3.151
			L550.544,324.271z"/>
		<path fill="#FFFFFF" d="M555.789,330.87c-0.957,0-1.714-0.291-2.268-0.875c-0.554-0.583-0.831-1.394-0.831-2.43
			c0-1.045,0.258-1.875,0.771-2.49c0.516-0.614,1.207-0.922,2.073-0.922c0.813,0,1.455,0.267,1.928,0.801s0.71,1.239,0.71,2.114
			v0.621h-4.466c0.021,0.761,0.213,1.338,0.578,1.732s0.879,0.591,1.541,0.591c0.695,0,1.387-0.146,2.067-0.438v0.875
			c-0.346,0.15-0.674,0.258-0.983,0.322C556.601,330.837,556.227,330.87,555.789,330.87z M555.523,324.975
			c-0.521,0-0.936,0.169-1.245,0.508s-0.491,0.809-0.548,1.407h3.39c0-0.619-0.139-1.093-0.414-1.421
			C556.43,325.139,556.035,324.975,555.523,324.975z"/>
		<path fill="#FFFFFF" d="M564.215,325.111h-2.105v5.641h-0.979v-5.641h-2.081v-0.84h5.166V325.111z"/>
		<path fill="#FFFFFF" d="M566.421,324.271v4.109l-0.04,1.076l-0.019,0.337l3.505-5.522h1.226v6.48h-0.918v-3.962l0.019-0.78
			l0.029-0.769l-3.501,5.511H565.5v-6.48H566.421z"/>
		<path fill="#FFFFFF" d="M574.156,324.271v2.714h3.631v-2.714h0.981v6.48h-0.981v-2.921h-3.631v2.921h-0.981v-6.48H574.156z"/>
		<path fill="#FFFFFF" d="M584.752,325.111h-2.921v5.641h-0.982v-6.48h3.903V325.111z"/>
		<path fill="#FFFFFF" d="M591.772,330.87c-0.938,0-1.664-0.288-2.18-0.866c-0.514-0.577-0.771-1.394-0.771-2.45
			c0-1.084,0.262-1.922,0.783-2.514c0.522-0.591,1.268-0.887,2.233-0.887c0.312,0,0.622,0.033,0.933,0.101
			c0.313,0.066,0.558,0.146,0.733,0.236l-0.301,0.834c-0.216-0.087-0.452-0.159-0.709-0.217c-0.257-0.057-0.483-0.085-0.68-0.085
			c-1.317,0-1.977,0.84-1.977,2.519c0,0.797,0.162,1.407,0.483,1.833s0.797,0.639,1.428,0.639c0.54,0,1.093-0.116,1.66-0.349v0.869
			C592.976,330.757,592.431,330.87,591.772,330.87z"/>
		<path fill="#FFFFFF" d="M599.315,325.111h-2.104v5.641h-0.98v-5.641h-2.081v-0.84h5.166V325.111z"/>
		<path fill="#FFFFFF" d="M603.615,330.87c-0.422,0-0.808-0.077-1.155-0.232c-0.35-0.156-0.643-0.396-0.879-0.719h-0.07
			c0.047,0.378,0.07,0.737,0.07,1.076v2.666h-0.981v-9.39h0.798l0.137,0.887h0.047c0.252-0.354,0.546-0.61,0.881-0.769
			c0.336-0.158,0.72-0.236,1.153-0.236c0.86,0,1.522,0.294,1.99,0.881c0.467,0.587,0.701,1.411,0.701,2.472
			c0,1.064-0.238,1.892-0.713,2.481C605.119,330.575,604.458,330.87,603.615,330.87z M603.473,324.987
			c-0.662,0-1.141,0.183-1.438,0.55c-0.294,0.366-0.446,0.95-0.455,1.75v0.219c0,0.911,0.152,1.562,0.455,1.954
			c0.304,0.393,0.79,0.589,1.461,0.589c0.56,0,0.999-0.227,1.316-0.681c0.317-0.453,0.477-1.077,0.477-1.874
			c0-0.809-0.159-1.429-0.477-1.859C604.496,325.202,604.049,324.987,603.473,324.987z"/>
		<path fill="#FFFFFF" d="M612.004,330.751l-0.194-0.922h-0.047c-0.324,0.406-0.647,0.681-0.968,0.824
			c-0.321,0.145-0.722,0.216-1.203,0.216c-0.642,0-1.146-0.165-1.511-0.496c-0.364-0.331-0.547-0.803-0.547-1.413
			c0-1.309,1.046-1.995,3.141-2.059l1.098-0.035v-0.402c0-0.508-0.107-0.884-0.327-1.126c-0.218-0.243-0.568-0.363-1.05-0.363
			c-0.54,0-1.15,0.165-1.833,0.496l-0.301-0.751c0.318-0.173,0.67-0.309,1.05-0.408c0.38-0.099,0.762-0.147,1.144-0.147
			c0.772,0,1.345,0.172,1.718,0.515c0.372,0.343,0.56,0.893,0.56,1.649v4.423H612.004z M609.787,330.06
			c0.611,0,1.091-0.167,1.441-0.503c0.348-0.335,0.521-0.804,0.521-1.407v-0.585l-0.979,0.041c-0.781,0.028-1.345,0.148-1.689,0.363
			c-0.345,0.216-0.518,0.549-0.518,1.003c0,0.354,0.108,0.625,0.323,0.81C609.101,329.967,609.401,330.06,609.787,330.06z"/>
		<path fill="#FFFFFF" d="M619.123,325.111h-2.105v5.641h-0.979v-5.641h-2.081v-0.84h5.166V325.111z"/>
		<path fill="#FFFFFF" d="M623.143,330.87c-0.956,0-1.713-0.291-2.267-0.875c-0.555-0.583-0.832-1.394-0.832-2.43
			c0-1.045,0.259-1.875,0.772-2.49c0.516-0.614,1.206-0.922,2.073-0.922c0.813,0,1.454,0.267,1.928,0.801
			c0.473,0.534,0.709,1.239,0.709,2.114v0.621h-4.465c0.021,0.761,0.213,1.338,0.578,1.732c0.364,0.395,0.878,0.591,1.54,0.591
			c0.696,0,1.388-0.146,2.068-0.438v0.875c-0.347,0.15-0.674,0.258-0.983,0.322C623.956,330.837,623.583,330.87,623.143,330.87z
			 M622.878,324.975c-0.521,0-0.937,0.169-1.245,0.508c-0.31,0.339-0.492,0.809-0.548,1.407h3.39c0-0.619-0.139-1.093-0.414-1.421
			C623.786,325.139,623.39,324.975,622.878,324.975z"/>
		<path fill="#FFFFFF" d="M631.104,325.111h-2.921v5.641h-0.981v-6.48h3.902V325.111z"/>
		<path fill="#FFFFFF" d="M633.31,324.271v4.109l-0.04,1.076l-0.019,0.337l3.506-5.522h1.225v6.48h-0.918v-3.962l0.019-0.78
			l0.029-0.769l-3.501,5.511h-1.223v-6.48H633.31z"/>
		<path fill="#FFFFFF" d="M640.986,324.271v4.109l-0.041,1.076l-0.019,0.337l3.506-5.522h1.225v6.48h-0.917v-3.962l0.019-0.78
			l0.028-0.769l-3.5,5.511h-1.224v-6.48H640.986z"/>
		<path fill="#FFFFFF" d="M647.596,330.125c0-0.264,0.062-0.464,0.181-0.6c0.12-0.137,0.293-0.204,0.518-0.204
			c0.228,0,0.407,0.067,0.535,0.204c0.129,0.136,0.192,0.336,0.192,0.6c0,0.257-0.065,0.454-0.195,0.592s-0.308,0.207-0.532,0.207
			c-0.201,0-0.368-0.062-0.5-0.187C647.663,330.613,647.596,330.409,647.596,330.125z"/>
		<path fill="#FFFFFF" d="M660.477,330.751h-1.22l-3.997-4.381v4.381h-1.004v-8.645h1.004v4.187l3.897-4.187h1.153l-3.826,4.198
			L660.477,330.751z"/>
		<path fill="#FFFFFF" d="M667.112,327.505c0,1.057-0.266,1.881-0.8,2.475c-0.53,0.594-1.267,0.89-2.204,0.89
			c-0.58,0-1.094-0.136-1.543-0.407c-0.449-0.272-0.797-0.663-1.041-1.171c-0.244-0.509-0.368-1.104-0.368-1.786
			c0-1.057,0.266-1.88,0.794-2.469c0.527-0.589,1.261-0.884,2.2-0.884c0.905,0,1.627,0.302,2.16,0.904
			C666.844,325.661,667.112,326.476,667.112,327.505z M662.173,327.505c0,0.828,0.165,1.459,0.496,1.893
			c0.331,0.433,0.819,0.65,1.462,0.65c0.642,0,1.13-0.216,1.463-0.648c0.333-0.431,0.5-1.063,0.5-1.895
			c0-0.823-0.167-1.449-0.5-1.878c-0.333-0.428-0.824-0.641-1.475-0.641c-0.643,0-1.127,0.211-1.455,0.633
			C662.337,326.041,662.173,326.67,662.173,327.505z"/>
		<path fill="#FFFFFF" d="M672.199,329.805l0.182-0.55l0.254-0.697l1.757-4.275h1.247v6.469h-0.868V325.4l-0.118,0.344l-0.344,0.904
			l-1.674,4.104h-0.821l-1.673-4.115c-0.209-0.528-0.353-0.94-0.432-1.236v5.352h-0.876v-6.469h1.2l1.697,4.109
			C671.899,328.826,672.056,329.297,672.199,329.805z"/>
		<path fill="#FFFFFF" d="M676.704,324.271h1.053l1.419,3.695c0.312,0.844,0.506,1.453,0.58,1.827h0.047
			c0.051-0.201,0.159-0.545,0.323-1.032c0.164-0.486,0.697-1.983,1.604-4.49h1.053l-2.786,7.38
			c-0.275,0.729-0.598,1.246-0.966,1.552s-0.821,0.458-1.357,0.458c-0.299,0-0.594-0.033-0.887-0.101v-0.786
			c0.217,0.048,0.46,0.071,0.727,0.071c0.676,0,1.155-0.379,1.443-1.136l0.361-0.922L676.704,324.271z"/>
		<path fill="#FFFFFF" d="M684.817,324.271v2.714h3.631v-2.714h0.981v6.48h-0.981v-2.921h-3.631v2.921h-0.981v-6.48H684.817z"/>
		<path fill="#FFFFFF" d="M692.433,324.271v4.109l-0.041,1.076l-0.019,0.337l3.506-5.522h1.225v6.48h-0.917v-3.962l0.019-0.78
			l0.028-0.769l-3.5,5.511h-1.224v-6.48H692.433z"/>
		<path fill="#FFFFFF" d="M702.963,324.271h1.078l-2.798,3.128l3.027,3.353h-1.147l-2.956-3.281v3.281h-0.981v-6.48h0.981v3.151
			L702.963,324.271z"/>
		<path fill="#FFFFFF" d="M709.456,330.751l-0.194-0.922h-0.047c-0.324,0.406-0.647,0.681-0.968,0.824
			c-0.321,0.145-0.722,0.216-1.203,0.216c-0.643,0-1.146-0.165-1.511-0.496s-0.547-0.803-0.547-1.413
			c0-1.309,1.046-1.995,3.141-2.059l1.098-0.035v-0.402c0-0.508-0.107-0.884-0.327-1.126c-0.219-0.243-0.568-0.363-1.05-0.363
			c-0.54,0-1.15,0.165-1.833,0.496l-0.301-0.751c0.318-0.173,0.669-0.309,1.05-0.408c0.38-0.099,0.762-0.147,1.144-0.147
			c0.771,0,1.345,0.172,1.718,0.515c0.372,0.343,0.56,0.893,0.56,1.649v4.423H709.456z M707.238,330.06
			c0.611,0,1.091-0.167,1.44-0.503c0.349-0.335,0.522-0.804,0.522-1.407v-0.585l-0.979,0.041c-0.781,0.028-1.345,0.148-1.689,0.363
			c-0.345,0.216-0.518,0.549-0.518,1.003c0,0.354,0.108,0.625,0.323,0.81C706.551,329.967,706.852,330.06,707.238,330.06z"/>
		<path fill="#FFFFFF" d="M718.527,332.993h-0.983v-2.241h-5.339v-6.48h0.981v5.635h3.441v-5.635h0.981v5.635h0.918V332.993z"/>
		<path fill="#FFFFFF" d="M720.708,324.271v4.109l-0.04,1.076l-0.02,0.337l3.506-5.522h1.225v6.48h-0.917v-3.962l0.019-0.78
			l0.029-0.769l-3.501,5.511h-1.224v-6.48H720.708z"/>
		<path fill="#FFFFFF" d="M728.382,324.271v4.109l-0.04,1.076l-0.019,0.337l3.506-5.522h1.225v6.48h-0.918v-3.962l0.02-0.78
			l0.028-0.769l-3.501,5.511h-1.223v-6.48H728.382z"/>
		<path fill="#FFFFFF" d="M734.994,330.125c0-0.264,0.061-0.464,0.181-0.6c0.12-0.137,0.292-0.204,0.517-0.204
			c0.229,0,0.407,0.067,0.536,0.204c0.128,0.136,0.192,0.336,0.192,0.6c0,0.257-0.065,0.454-0.196,0.592
			c-0.13,0.138-0.308,0.207-0.532,0.207c-0.2,0-0.368-0.062-0.5-0.187C735.059,330.613,734.994,330.409,734.994,330.125z"/>
	</g>
</g>
<g>
	<g>
		<path fill="#FFFFFF" d="M467.692,412.059h5.937c5.332,0,8.313,2.666,8.313,8.239c0,5.792-2.545,9.063-8.313,9.063h-5.937V412.059z
			 M469.993,427.423h3.83c1.574,0,5.815-0.437,5.815-6.81c0-4.12-1.526-6.616-5.769-6.616h-3.877V427.423z"/>
		<path fill="#FFFFFF" d="M486.583,414.58h-2.06v-2.521h2.06V414.58z M484.524,416.833h2.06v12.528h-2.06V416.833z"/>
		<path fill="#FFFFFF" d="M500.585,428.295c0,4.071-1.865,6.155-5.815,6.155c-2.352,0-5.064-0.944-5.187-3.684h2.06
			c0.098,1.502,1.891,2.036,3.249,2.036c2.689,0,3.756-1.938,3.756-4.75v-0.823h-0.05c-0.677,1.526-2.326,2.277-3.9,2.277
			c-3.732,0-5.599-2.933-5.599-6.35c0-2.956,1.454-6.615,5.793-6.615c1.574,0,2.979,0.702,3.73,2.084h0.025v-1.793h1.938V428.295z
			 M498.549,422.843c0-2.206-0.968-4.483-3.562-4.483c-2.642,0-3.708,2.156-3.708,4.556c0,2.254,0.824,4.774,3.539,4.774
			C497.533,427.69,498.549,425.194,498.549,422.843z"/>
		<path fill="#FFFFFF" d="M505.862,414.58h-2.06v-2.521h2.06V414.58z M503.802,416.833h2.06v12.528h-2.06V416.833z"/>
		<path fill="#FFFFFF" d="M511.917,416.833h2.495v1.817h-2.495v7.778c0,0.945,0.266,1.114,1.551,1.114h0.944v1.818h-1.574
			c-2.134,0-2.982-0.436-2.982-2.738v-7.973h-2.132v-1.817h2.132v-3.757h2.062V416.833z"/>
		<path fill="#FFFFFF" d="M527.784,429.314c-0.363,0.218-0.822,0.338-1.479,0.338c-1.065,0-1.743-0.581-1.743-1.938
			c-1.139,1.333-2.666,1.938-4.411,1.938c-2.277,0-4.145-1.018-4.145-3.513c0-2.836,2.108-3.441,4.242-3.854
			c2.277-0.437,4.216-0.291,4.216-1.842c0-1.793-1.479-2.084-2.786-2.084c-1.745,0-3.029,0.533-3.127,2.375h-2.06
			c0.121-3.103,2.521-4.192,5.308-4.192c2.254,0,4.7,0.509,4.7,3.441v6.445c0,0.97,0,1.406,0.656,1.406
			c0.169,0,0.363-0.024,0.628-0.122V429.314z M524.44,422.891c-0.799,0.582-2.35,0.606-3.731,0.848
			c-1.356,0.243-2.521,0.728-2.521,2.254c0,1.357,1.164,1.843,2.424,1.843c2.714,0,3.828-1.696,3.828-2.836V422.891z"/>
		<path fill="#FFFFFF" d="M529.813,412.059h2.06v17.303h-2.06V412.059z"/>
		<path fill="#FFFFFF" d="M535.407,412.059h2.301v8.627l8.773-8.627h2.98l-7.294,6.979l7.584,10.323h-2.907l-6.253-8.748
			l-2.884,2.689v6.059h-2.301V412.059z"/>
		<path fill="#FFFFFF" d="M553.403,414.58h-2.06v-2.521h2.06V414.58z M551.343,416.833h2.06v12.528h-2.06V416.833z"/>
		<path fill="#FFFFFF" d="M567.793,429.362h-2.06v-1.696h-0.049c-0.679,1.381-2.277,1.986-3.999,1.986
			c-3.852,0-5.768-3.053-5.768-6.591s1.891-6.519,5.719-6.519c1.285,0,3.127,0.484,4.048,1.963h0.049v-6.446h2.06V429.362z
			 M561.977,427.835c2.762,0,3.83-2.376,3.83-4.726c0-2.473-1.115-4.75-3.95-4.75c-2.812,0-3.758,2.399-3.758,4.847
			C558.099,425.557,559.312,427.835,561.977,427.835z"/>
		<path fill="#FFFFFF" d="M569.943,427.423l10.758-13.426h-9.936v-1.938h12.65v1.938l-10.736,13.426h11.027v1.938h-13.764V427.423z"
			/>
		<path fill="#FFFFFF" d="M588.909,419.523h-2.69v-2.689h2.69V419.523z M586.218,426.672h2.69v2.689h-2.69V426.672z"/>
		<path fill="#FFFFFF" d="M600.41,427.423c1.261,0,1.793-0.218,2.472-0.703c0.388-0.291,0.897-1.091,1.647-2.472l-6.809-12.189
			h2.739l5.257,9.936l5.017-9.936h2.593l-7.658,14.419c-0.604,1.163-1.234,1.987-1.816,2.326c-0.824,0.485-1.817,0.558-3.441,0.558
			V427.423z"/>
		<path fill="#FFFFFF" d="M615.306,420.929c0,1.259,1.017,2.398,2.98,2.398c1.309,0,2.326-0.484,2.981-1.284v-5.21h2.06v12.528
			h-2.06v-5.646h-0.049c-0.897,0.921-2.182,1.43-3.515,1.43c-2.859,0-4.458-1.938-4.458-4.216v-4.096h2.06V420.929z"/>
		<path fill="#FFFFFF" d="M636.309,429.362h-1.938v-1.987h-0.049c-0.872,1.552-2.277,2.277-4.072,2.277
			c-3.296,0-4.313-1.89-4.313-4.58v-8.238h2.06v8.481c0,1.526,0.97,2.521,2.544,2.521c2.497,0,3.708-1.673,3.708-3.927v-7.075h2.06
			V429.362z"/>
		<path fill="#FFFFFF" d="M642.773,416.833h2.205l4.652,12.528h-2.303l-3.512-10.444h-0.05l-3.417,10.444h-2.156L642.773,416.833z"
			/>
		<path fill="#FFFFFF" d="M661.305,429.362h-1.938v-1.987h-0.049c-0.872,1.552-2.277,2.277-4.071,2.277
			c-3.297,0-4.313-1.89-4.313-4.58v-8.238h2.06v8.481c0,1.526,0.97,2.521,2.544,2.521c2.497,0,3.709-1.673,3.709-3.927v-7.075h2.06
			V429.362z"/>
		<path fill="#FFFFFF" d="M681.968,426.308c0,1.235,0.921,2.061,2.205,2.061l-0.266,4.822h-1.817v-3.539
			c-1.139-0.169-2.06-1.09-2.06-2.132h-0.049c-0.921,1.406-2.327,2.132-4.047,2.132c-1.527,0-2.933-0.605-3.441-2.132
			c-0.848,1.333-2.326,2.132-3.926,2.132c-2.495,0-4.168-1.041-4.168-3.635v-9.184h2.06v8.215c0,1.551,0.412,2.787,2.424,2.787
			c1.987,0,3.271-1.261,3.271-3.199v-7.803h2.059v8.215c0,1.624,0.509,2.787,2.353,2.787c2.446,0,3.343-2.254,3.343-3.199v-7.803
			h2.06V426.308z"/>
		<path fill="#FFFFFF" d="M696.449,425.387c-0.558,2.763-2.544,4.265-5.355,4.265c-3.999,0-6.011-2.762-6.011-6.591
			c0-3.756,2.472-6.519,5.889-6.519c4.436,0,5.792,4.144,5.67,7.173h-9.378c-0.072,2.182,1.164,4.12,3.902,4.12
			c1.696,0,2.884-0.824,3.247-2.448H696.449z M694.46,421.898c-0.097-1.963-1.575-3.538-3.61-3.538
			c-2.156,0-3.441,1.624-3.587,3.538H694.46z"/>
		<path fill="#FFFFFF" d="M714.005,420.856c-0.315-1.575-1.405-2.496-3.102-2.496c-2.982,0-3.902,2.351-3.902,4.896
			c0,2.302,1.042,4.58,3.659,4.58c1.986,0,3.174-1.163,3.441-3.054h2.108c-0.462,3.054-2.376,4.87-5.524,4.87
			c-3.83,0-5.866-2.665-5.866-6.396c0-3.757,1.939-6.713,5.913-6.713c2.835,0,5.114,1.333,5.404,4.313H714.005z"/>
		<path fill="#FFFFFF" d="M726.327,412.059h1.648v6.252h-1.648V412.059z M729.721,412.059h1.646v6.252h-1.646V412.059z"/>
		<path fill="#FFFFFF" d="M740.959,416.542c3.974,0,6.082,2.884,6.082,6.567c0,3.658-2.108,6.542-6.082,6.542
			c-3.976,0-6.084-2.884-6.084-6.542C734.875,419.426,736.984,416.542,740.959,416.542z M740.959,427.835
			c2.155,0,3.9-1.696,3.9-4.726c0-3.054-1.745-4.75-3.9-4.75c-2.158,0-3.903,1.696-3.903,4.75
			C737.056,426.139,738.801,427.835,740.959,427.835z"/>
		<path fill="#FFFFFF" d="M749.457,416.833h1.939v1.842h0.048c0.921-1.406,2.326-2.133,4.048-2.133c1.525,0,2.932,0.606,3.439,2.133
			c0.849-1.333,2.326-2.133,3.927-2.133c2.497,0,4.168,1.042,4.168,3.635v9.185h-2.06v-8.215c0-1.551-0.412-2.787-2.423-2.787
			c-1.988,0-3.272,1.261-3.272,3.199v7.803h-2.06v-8.215c0-1.624-0.509-2.787-2.35-2.787c-2.448,0-3.346,2.254-3.346,3.199v7.803
			h-2.06V416.833z"/>
		<path fill="#FFFFFF" d="M769.681,416.251c0-2.472,1.842-4.604,5.234-4.604c3.441,0,5.259,1.866,5.259,4.265
			c0,1.576-0.993,3.006-2.593,3.539v0.048c2.303,0.605,3.514,2.545,3.514,4.848c0,2.979-1.986,5.306-5.719,5.306
			c-3.708,0-5.695-2.326-5.695-5.306V416.251z M771.741,424.273c0,2.277,1.6,3.563,3.587,3.563c1.986,0,3.587-1.285,3.587-3.563
			c0-2.303-1.601-3.587-3.587-3.587c-0.849,0-1.6,0.219-2.205,0.533v-1.721c0.509-0.193,1.041-0.339,1.671-0.412
			c1.795-0.169,3.346-0.896,3.346-2.835c0-1.793-1.432-2.859-3.2-2.859s-3.198,1.066-3.198,2.859V424.273z"/>
		<path fill="#FFFFFF" d="M788.551,416.542c3.974,0,6.082,2.884,6.082,6.567c0,3.658-2.108,6.542-6.082,6.542
			c-3.976,0-6.084-2.884-6.084-6.542C782.467,419.426,784.576,416.542,788.551,416.542z M788.551,427.835
			c2.155,0,3.9-1.696,3.9-4.726c0-3.054-1.745-4.75-3.9-4.75c-2.158,0-3.903,1.696-3.903,4.75
			C784.648,426.139,786.393,427.835,788.551,427.835z"/>
		<path fill="#FFFFFF" d="M797.122,416.833h2.06v1.696h0.049c0.679-1.381,2.277-1.987,3.999-1.987c3.852,0,5.766,3.054,5.766,6.591
			c0,3.539-1.889,6.519-5.719,6.519c-1.283,0-3.125-0.484-4.046-1.962h-0.049v6.47h-2.06V416.833z M802.938,418.36
			c-2.764,0-3.83,2.375-3.83,4.726c0,2.472,1.115,4.75,3.95,4.75c2.812,0,3.758-2.399,3.758-4.848
			C806.816,420.637,805.603,418.36,802.938,418.36z"/>
		<path fill="#FFFFFF" d="M822.098,425.387c-0.558,2.763-2.546,4.265-5.355,4.265c-3.999,0-6.011-2.762-6.011-6.591
			c0-3.756,2.472-6.519,5.89-6.519c4.435,0,5.791,4.144,5.669,7.173h-9.378c-0.072,2.182,1.164,4.12,3.903,4.12
			c1.695,0,2.884-0.824,3.247-2.448H822.098z M820.11,421.898c-0.097-1.963-1.574-3.538-3.61-3.538
			c-2.155,0-3.441,1.624-3.587,3.538H820.11z"/>
		<path fill="#FFFFFF" d="M826.476,416.833v5.064h6.252v-5.064h2.06v12.528h-2.06v-5.646h-6.252v5.646h-2.06v-12.528H826.476z"/>
		<path fill="#FFFFFF" d="M838.972,412.059h1.649v6.252h-1.649V412.059z M842.367,412.059h1.647v6.252h-1.647V412.059z"/>
		<path fill="#FFFFFF" d="M855.054,412.059h2.06v10.251l5.719-5.477h2.763l-4.967,4.556l5.33,7.973h-2.617l-4.289-6.543
			l-1.938,1.793v4.75h-2.06V412.059z"/>
		<path fill="#FFFFFF" d="M872.326,416.542c3.974,0,6.082,2.884,6.082,6.567c0,3.658-2.108,6.542-6.082,6.542
			c-3.976,0-6.084-2.884-6.084-6.542C866.242,419.426,868.35,416.542,872.326,416.542z M872.326,427.835
			c2.156,0,3.901-1.696,3.901-4.726c0-3.054-1.745-4.75-3.901-4.75c-2.157,0-3.902,1.696-3.902,4.75
			C868.423,426.139,870.168,427.835,872.326,427.835z"/>
		<path fill="#FFFFFF" d="M891.631,428.295c0,4.071-1.865,6.155-5.815,6.155c-2.352,0-5.064-0.944-5.187-3.684h2.06
			c0.098,1.502,1.891,2.036,3.249,2.036c2.689,0,3.756-1.938,3.756-4.75v-0.823h-0.05c-0.679,1.526-2.326,2.277-3.9,2.277
			c-3.732,0-5.599-2.933-5.599-6.35c0-2.956,1.454-6.615,5.793-6.615c1.574,0,2.979,0.702,3.73,2.084h0.025v-1.793h1.938V428.295z
			 M889.595,422.843c0-2.206-0.968-4.483-3.562-4.483c-2.642,0-3.708,2.156-3.708,4.556c0,2.254,0.824,4.774,3.538,4.774
			C888.579,427.69,889.595,425.194,889.595,422.843z"/>
	</g>
</g>
<g>
	<g>
		<path fill="#FFFFFF" d="M475.359,451.842c0,1.384-0.351,2.472-1.05,3.265c-0.699,0.792-1.673,1.188-2.919,1.188
			c-1.272,0-2.256-0.39-2.946-1.168c-0.693-0.778-1.038-1.878-1.038-3.297c0-1.407,0.347-2.498,1.041-3.273
			c0.692-0.773,1.68-1.161,2.957-1.161c1.239,0,2.209,0.395,2.909,1.183C475.008,449.367,475.359,450.455,475.359,451.842z
			 M468.47,451.842c0,1.171,0.249,2.059,0.747,2.663c0.498,0.606,1.223,0.908,2.173,0.908c0.959,0,1.683-0.301,2.171-0.904
			s0.733-1.492,0.733-2.667c0-1.163-0.244-2.045-0.73-2.646c-0.486-0.601-1.208-0.901-2.16-0.901c-0.96,0-1.688,0.303-2.187,0.908
			C468.719,449.807,468.47,450.688,468.47,451.842z"/>
		<path fill="#FFFFFF" d="M476.799,452.292c0-1.419,0.21-2.525,0.629-3.32c0.417-0.794,1.079-1.29,1.986-1.486
			c1.127-0.241,2.12-0.437,2.98-0.586l0.183,0.863c-1.368,0.229-2.345,0.41-2.933,0.544c-0.571,0.13-1.001,0.438-1.286,0.923
			c-0.285,0.484-0.442,1.146-0.472,1.98h0.071c0.245-0.331,0.561-0.591,0.946-0.78c0.387-0.189,0.79-0.284,1.213-0.284
			c0.796,0,1.417,0.259,1.861,0.775c0.446,0.516,0.669,1.231,0.669,2.146c0,1.013-0.258,1.804-0.773,2.373
			c-0.517,0.57-1.236,0.855-2.159,0.855c-0.91,0-1.623-0.35-2.141-1.047C477.058,454.55,476.799,453.565,476.799,452.292z
			 M479.803,455.473c1.203,0,1.805-0.768,1.805-2.3c0-1.463-0.546-2.194-1.639-2.194c-0.3,0-0.588,0.062-0.865,0.187
			c-0.279,0.124-0.532,0.288-0.764,0.493c-0.229,0.206-0.409,0.416-0.534,0.633c0,1.037,0.162,1.826,0.49,2.368
			S479.125,455.473,479.803,455.473z"/>
		<path fill="#FFFFFF" d="M487.374,456.295c-0.422,0-0.808-0.078-1.155-0.233c-0.35-0.156-0.642-0.396-0.879-0.719h-0.07
			c0.047,0.378,0.07,0.737,0.07,1.076v2.667h-0.981v-9.391h0.798l0.137,0.887h0.047c0.252-0.354,0.546-0.61,0.881-0.769
			c0.336-0.157,0.72-0.236,1.153-0.236c0.86,0,1.522,0.294,1.99,0.881c0.467,0.587,0.701,1.412,0.701,2.472
			c0,1.064-0.238,1.892-0.713,2.481C488.877,456,488.217,456.295,487.374,456.295z M487.232,450.412
			c-0.662,0-1.141,0.184-1.438,0.55c-0.294,0.366-0.446,0.95-0.455,1.75v0.219c0,0.911,0.152,1.563,0.455,1.954
			c0.304,0.393,0.79,0.589,1.461,0.589c0.56,0,0.999-0.227,1.316-0.68c0.317-0.454,0.477-1.078,0.477-1.875
			c0-0.809-0.159-1.429-0.477-1.859C488.254,450.626,487.808,450.412,487.232,450.412z"/>
		<path fill="#FFFFFF" d="M495.763,456.176l-0.193-0.922h-0.048c-0.324,0.406-0.647,0.681-0.968,0.824
			c-0.321,0.145-0.722,0.217-1.203,0.217c-0.642,0-1.146-0.166-1.511-0.497c-0.364-0.331-0.547-0.803-0.547-1.413
			c0-1.309,1.046-1.994,3.141-2.058l1.098-0.036v-0.401c0-0.509-0.107-0.885-0.327-1.126c-0.218-0.244-0.567-0.364-1.05-0.364
			c-0.54,0-1.15,0.165-1.833,0.496l-0.3-0.751c0.317-0.173,0.669-0.309,1.049-0.407c0.38-0.1,0.762-0.148,1.144-0.148
			c0.772,0,1.345,0.172,1.718,0.515c0.372,0.343,0.56,0.893,0.56,1.649v4.423H495.763z M493.545,455.485
			c0.611,0,1.092-0.167,1.441-0.503c0.348-0.335,0.521-0.804,0.521-1.407v-0.585l-0.979,0.041c-0.78,0.028-1.345,0.148-1.689,0.363
			c-0.345,0.216-0.518,0.549-0.518,1.003c0,0.354,0.108,0.625,0.323,0.81C492.86,455.392,493.161,455.485,493.545,455.485z"/>
		<path fill="#FFFFFF" d="M499.75,452.386c1.225,0,1.838-0.339,1.838-1.017c0-0.639-0.497-0.958-1.49-0.958
			c-0.304,0-0.579,0.027-0.828,0.083c-0.248,0.055-0.574,0.165-0.977,0.331l-0.348-0.799c0.671-0.3,1.402-0.449,2.192-0.449
			c0.747,0,1.333,0.153,1.765,0.458c0.429,0.306,0.644,0.723,0.644,1.251c0,0.726-0.404,1.2-1.212,1.425v0.048
			c0.497,0.146,0.858,0.354,1.088,0.623c0.229,0.271,0.342,0.608,0.342,1.015c0,0.599-0.24,1.065-0.724,1.397
			c-0.482,0.334-1.15,0.501-2.002,0.501c-0.934,0-1.655-0.141-2.164-0.42v-0.899c0.722,0.339,1.451,0.509,2.188,0.509
			c0.567,0,0.996-0.097,1.285-0.293c0.291-0.194,0.436-0.476,0.436-0.843c0-0.752-0.613-1.129-1.84-1.129h-0.898v-0.834H499.75z"/>
		<path fill="#FFFFFF" d="M509.955,452.93c0,1.057-0.265,1.882-0.799,2.475c-0.53,0.594-1.267,0.891-2.204,0.891
			c-0.58,0-1.094-0.137-1.543-0.408c-0.449-0.272-0.798-0.662-1.041-1.171c-0.245-0.509-0.368-1.104-0.368-1.786
			c0-1.057,0.266-1.879,0.794-2.469c0.527-0.589,1.261-0.884,2.2-0.884c0.905,0,1.627,0.302,2.16,0.904
			C509.688,451.085,509.955,451.902,509.955,452.93z M505.017,452.93c0,0.828,0.165,1.459,0.496,1.893s0.819,0.65,1.462,0.65
			c0.642,0,1.13-0.216,1.463-0.648c0.333-0.431,0.5-1.063,0.5-1.895c0-0.823-0.167-1.449-0.5-1.878
			c-0.333-0.427-0.824-0.641-1.475-0.641c-0.643,0-1.127,0.211-1.455,0.633C505.18,451.465,505.017,452.095,505.017,452.93z"/>
		<path fill="#FFFFFF" d="M516.934,451.322c0,0.422-0.121,0.743-0.365,0.961c-0.241,0.22-0.581,0.365-1.021,0.44v0.054
			c0.553,0.075,0.957,0.236,1.21,0.484c0.255,0.249,0.382,0.592,0.382,1.029c0,0.604-0.221,1.068-0.665,1.396
			c-0.443,0.327-1.092,0.49-1.943,0.49h-2.855v-6.48h2.846C516.13,449.696,516.934,450.239,516.934,451.322z M515.974,451.417
			c0-0.314-0.119-0.539-0.363-0.671c-0.241-0.132-0.609-0.198-1.103-0.198h-1.851v1.827h1.661c0.608,0,1.036-0.075,1.284-0.225
			S515.974,451.755,515.974,451.417z M516.159,454.225c0-0.351-0.134-0.606-0.398-0.765c-0.268-0.161-0.708-0.24-1.323-0.24h-1.779
			v2.135h1.803C515.592,455.355,516.159,454.978,516.159,454.225z"/>
		<path fill="#FFFFFF" d="M522.551,456.176l-0.194-0.922h-0.047c-0.324,0.406-0.647,0.681-0.968,0.824
			c-0.321,0.145-0.722,0.217-1.203,0.217c-0.643,0-1.146-0.166-1.511-0.497c-0.364-0.331-0.547-0.803-0.547-1.413
			c0-1.309,1.046-1.994,3.141-2.058l1.098-0.036v-0.401c0-0.509-0.107-0.885-0.327-1.126c-0.218-0.244-0.568-0.364-1.05-0.364
			c-0.54,0-1.15,0.165-1.833,0.496l-0.301-0.751c0.318-0.173,0.669-0.309,1.05-0.407c0.38-0.1,0.762-0.148,1.144-0.148
			c0.772,0,1.345,0.172,1.718,0.515c0.372,0.343,0.56,0.893,0.56,1.649v4.423H522.551z M520.333,455.485
			c0.611,0,1.091-0.167,1.441-0.503c0.348-0.335,0.521-0.804,0.521-1.407v-0.585l-0.979,0.041c-0.781,0.028-1.345,0.148-1.689,0.363
			c-0.345,0.216-0.518,0.549-0.518,1.003c0,0.354,0.108,0.625,0.323,0.81C519.647,455.392,519.948,455.485,520.333,455.485z"/>
		<path fill="#FFFFFF" d="M526.282,449.696v2.714h3.631v-2.714h0.981v6.48h-0.981v-2.921h-3.631v2.921H525.3v-6.48H526.282z"/>
		<path fill="#FFFFFF" d="M533.898,449.696v4.109l-0.041,1.076l-0.019,0.338l3.506-5.523h1.225v6.48h-0.917v-3.961l0.019-0.781
			l0.029-0.769l-3.501,5.511h-1.224v-6.48H533.898z"/>
		<path fill="#FFFFFF" d="M543.387,456.295c-0.956,0-1.713-0.292-2.267-0.876c-0.555-0.583-0.831-1.394-0.831-2.43
			c0-1.045,0.258-1.875,0.771-2.489c0.516-0.615,1.206-0.923,2.073-0.923c0.813,0,1.454,0.267,1.928,0.801
			c0.473,0.535,0.709,1.239,0.709,2.114v0.621h-4.465c0.021,0.761,0.213,1.338,0.578,1.732c0.364,0.395,0.878,0.592,1.54,0.592
			c0.696,0,1.388-0.146,2.068-0.438v0.875c-0.347,0.149-0.674,0.257-0.983,0.321C544.201,456.263,543.827,456.295,543.387,456.295z
			 M543.123,450.4c-0.521,0-0.937,0.17-1.245,0.508c-0.31,0.339-0.492,0.809-0.548,1.408h3.39c0-0.619-0.139-1.094-0.414-1.422
			C544.03,450.564,543.634,450.4,543.123,450.4z"/>
		<path fill="#FFFFFF" d="M547.304,455.55c0-0.265,0.061-0.465,0.181-0.601c0.12-0.137,0.292-0.204,0.517-0.204
			c0.229,0,0.407,0.067,0.535,0.204c0.129,0.136,0.193,0.336,0.193,0.601c0,0.256-0.066,0.453-0.196,0.591s-0.308,0.207-0.532,0.207
			c-0.201,0-0.368-0.062-0.5-0.187C547.37,456.039,547.304,455.833,547.304,455.55z"/>
		<path fill="#FFFFFF" d="M560.781,458.429h-0.958v-2.253h-6.008v2.253h-0.958v-3.163h0.667c0.608-1.021,1.127-2.263,1.56-3.726
			c0.431-1.462,0.671-2.798,0.718-4.009h3.886v7.734h1.094V458.429z M558.68,455.266v-6.83h-1.968
			c-0.071,0.954-0.31,2.101-0.715,3.439c-0.407,1.338-0.88,2.468-1.419,3.391H558.68z"/>
		<path fill="#FFFFFF" d="M563.009,449.696v4.109l-0.041,1.076l-0.019,0.338l3.506-5.523h1.225v6.48h-0.917v-3.961l0.019-0.781
			l0.028-0.769l-3.5,5.511h-1.224v-6.48H563.009z"/>
		<path fill="#FFFFFF" d="M573.665,450.536h-2.921v5.641h-0.982v-6.48h3.903V450.536z"/>
		<path fill="#FFFFFF" d="M575.869,449.696v4.109l-0.04,1.076l-0.019,0.338l3.506-5.523h1.225v6.48h-0.918v-3.961l0.019-0.781
			l0.029-0.769l-3.501,5.511h-1.223v-6.48H575.869z"/>
		<path fill="#FFFFFF" d="M586.991,450.536h-2.105v5.641h-0.979v-5.641h-2.081v-0.84h5.166V450.536z"/>
		<path fill="#FFFFFF" d="M592.26,456.176l-0.194-0.922h-0.048c-0.324,0.406-0.646,0.681-0.968,0.824
			c-0.321,0.145-0.722,0.217-1.203,0.217c-0.642,0-1.146-0.166-1.51-0.497c-0.365-0.331-0.548-0.803-0.548-1.413
			c0-1.309,1.046-1.994,3.141-2.058l1.099-0.036v-0.401c0-0.509-0.108-0.885-0.328-1.126c-0.218-0.244-0.567-0.364-1.049-0.364
			c-0.541,0-1.15,0.165-1.833,0.496l-0.301-0.751c0.317-0.173,0.669-0.309,1.049-0.407c0.38-0.1,0.762-0.148,1.144-0.148
			c0.772,0,1.346,0.172,1.719,0.515c0.371,0.343,0.559,0.893,0.559,1.649v4.423H592.26z M590.042,455.485
			c0.612,0,1.092-0.167,1.441-0.503c0.348-0.335,0.522-0.804,0.522-1.407v-0.585l-0.98,0.041c-0.78,0.028-1.345,0.148-1.689,0.363
			c-0.345,0.216-0.517,0.549-0.517,1.003c0,0.354,0.108,0.625,0.322,0.81C589.356,455.392,589.657,455.485,590.042,455.485z"/>
		<path fill="#FFFFFF" d="M599.842,456.176h-0.993v-5.641h-1.946c-0.106,1.403-0.254,2.518-0.442,3.341
			c-0.189,0.823-0.437,1.427-0.737,1.81c-0.302,0.383-0.686,0.573-1.15,0.573c-0.213,0-0.382-0.023-0.508-0.07v-0.728
			c0.086,0.023,0.186,0.035,0.295,0.035c0.453,0,0.814-0.479,1.083-1.437c0.268-0.958,0.47-2.413,0.608-4.364h3.791V456.176z"/>
		<path fill="#FFFFFF" d="M602.906,449.696v2.714h3.63v-2.714h0.981v6.48h-0.981v-2.921h-3.63v2.921h-0.982v-6.48H602.906z"/>
		<path fill="#FFFFFF" d="M613.584,456.176l-0.194-0.922h-0.047c-0.325,0.406-0.647,0.681-0.969,0.824
			c-0.32,0.145-0.721,0.217-1.203,0.217c-0.642,0-1.145-0.166-1.51-0.497s-0.548-0.803-0.548-1.413c0-1.309,1.046-1.994,3.141-2.058
			l1.099-0.036v-0.401c0-0.509-0.108-0.885-0.328-1.126c-0.218-0.244-0.567-0.364-1.049-0.364c-0.541,0-1.15,0.165-1.833,0.496
			l-0.301-0.751c0.317-0.173,0.669-0.309,1.049-0.407c0.381-0.1,0.763-0.148,1.145-0.148c0.771,0,1.345,0.172,1.718,0.515
			c0.372,0.343,0.56,0.893,0.56,1.649v4.423H613.584z M611.366,455.485c0.612,0,1.092-0.167,1.441-0.503
			c0.349-0.335,0.522-0.804,0.522-1.407v-0.585l-0.98,0.041c-0.78,0.028-1.345,0.148-1.689,0.363
			c-0.345,0.216-0.517,0.549-0.517,1.003c0,0.354,0.108,0.625,0.322,0.81C610.68,455.392,610.981,455.485,611.366,455.485z"/>
		<path fill="#FFFFFF" d="M623.383,450.536h-2.921v5.641h-0.981v-6.48h3.902V450.536z"/>
		<path fill="#FFFFFF" d="M627.683,456.295c-0.423,0-0.808-0.078-1.156-0.233c-0.35-0.156-0.642-0.396-0.878-0.719h-0.071
			c0.048,0.378,0.071,0.737,0.071,1.076v2.667h-0.981v-9.391h0.797l0.137,0.887h0.048c0.252-0.354,0.546-0.61,0.88-0.769
			c0.336-0.157,0.72-0.236,1.154-0.236c0.859,0,1.522,0.294,1.99,0.881c0.466,0.587,0.701,1.412,0.701,2.472
			c0,1.064-0.238,1.892-0.713,2.481C629.186,456,628.526,456.295,627.683,456.295z M627.541,450.412c-0.662,0-1.14,0.184-1.438,0.55
			c-0.294,0.366-0.445,0.95-0.454,1.75v0.219c0,0.911,0.152,1.563,0.454,1.954c0.305,0.393,0.791,0.589,1.462,0.589
			c0.559,0,0.998-0.227,1.315-0.68c0.318-0.454,0.477-1.078,0.477-1.875c0-0.809-0.158-1.429-0.477-1.859
			C628.563,450.626,628.117,450.412,627.541,450.412z"/>
		<path fill="#FFFFFF" d="M636.073,456.176l-0.194-0.922h-0.047c-0.325,0.406-0.647,0.681-0.969,0.824
			c-0.32,0.145-0.721,0.217-1.202,0.217c-0.643,0-1.146-0.166-1.511-0.497s-0.548-0.803-0.548-1.413
			c0-1.309,1.046-1.994,3.141-2.058l1.099-0.036v-0.401c0-0.509-0.108-0.885-0.328-1.126c-0.218-0.244-0.567-0.364-1.049-0.364
			c-0.541,0-1.15,0.165-1.833,0.496l-0.301-0.751c0.317-0.173,0.669-0.309,1.049-0.407c0.381-0.1,0.763-0.148,1.145-0.148
			c0.771,0,1.345,0.172,1.718,0.515c0.372,0.343,0.56,0.893,0.56,1.649v4.423H636.073z M633.854,455.485
			c0.612,0,1.092-0.167,1.441-0.503c0.349-0.335,0.522-0.804,0.522-1.407v-0.585l-0.98,0.041c-0.78,0.028-1.345,0.148-1.689,0.363
			c-0.345,0.216-0.517,0.549-0.517,1.003c0,0.354,0.108,0.625,0.322,0.81C633.168,455.392,633.469,455.485,633.854,455.485z"/>
		<path fill="#FFFFFF" d="M642.187,455.231l0.183-0.55l0.253-0.698l1.757-4.275h1.247v6.469h-0.868v-5.351l-0.118,0.343
			l-0.343,0.904l-1.675,4.104h-0.821l-1.672-4.115c-0.21-0.527-0.354-0.94-0.433-1.235v5.351h-0.875v-6.469h1.199l1.698,4.11
			C641.888,454.25,642.045,454.722,642.187,455.231z"/>
		<path fill="#FFFFFF" d="M653.315,452.93c0,1.057-0.265,1.882-0.799,2.475c-0.53,0.594-1.267,0.891-2.205,0.891
			c-0.579,0-1.093-0.137-1.542-0.408c-0.449-0.272-0.798-0.662-1.041-1.171c-0.245-0.509-0.368-1.104-0.368-1.786
			c0-1.057,0.266-1.879,0.794-2.469c0.527-0.589,1.261-0.884,2.2-0.884c0.905,0,1.627,0.302,2.16,0.904
			C653.048,451.085,653.315,451.902,653.315,452.93z M648.377,452.93c0,0.828,0.165,1.459,0.496,1.893s0.819,0.65,1.462,0.65
			c0.642,0,1.13-0.216,1.463-0.648c0.333-0.431,0.5-1.063,0.5-1.895c0-0.823-0.167-1.449-0.5-1.878
			c-0.333-0.427-0.824-0.641-1.475-0.641c-0.643,0-1.127,0.211-1.455,0.633C648.541,451.465,648.377,452.095,648.377,452.93z"/>
		<path fill="#FFFFFF" d="M659.406,450.536H657.3v5.641h-0.979v-5.641h-2.081v-0.84h5.166V450.536z"/>
		<path fill="#FFFFFF" d="M661.671,449.696v2.714h3.631v-2.714h0.981v6.48h-0.981v-2.921h-3.631v2.921h-0.981v-6.48H661.671z"/>
		<path fill="#FFFFFF" d="M673.958,452.93c0,1.057-0.265,1.882-0.799,2.475c-0.53,0.594-1.268,0.891-2.205,0.891
			c-0.579,0-1.093-0.137-1.542-0.408c-0.449-0.272-0.798-0.662-1.041-1.171c-0.245-0.509-0.368-1.104-0.368-1.786
			c0-1.057,0.266-1.879,0.794-2.469c0.527-0.589,1.261-0.884,2.2-0.884c0.905,0,1.627,0.302,2.16,0.904
			C673.692,451.085,673.958,451.902,673.958,452.93z M669.02,452.93c0,0.828,0.166,1.459,0.497,1.893s0.819,0.65,1.461,0.65
			c0.643,0,1.131-0.216,1.464-0.648c0.332-0.431,0.5-1.063,0.5-1.895c0-0.823-0.168-1.449-0.5-1.878
			c-0.333-0.427-0.825-0.641-1.476-0.641c-0.642,0-1.127,0.211-1.454,0.633C669.184,451.465,669.02,452.095,669.02,452.93z"/>
		<path fill="#FFFFFF" d="M678.268,456.295c-0.938,0-1.664-0.289-2.179-0.867c-0.514-0.577-0.772-1.394-0.772-2.45
			c0-1.084,0.262-1.922,0.784-2.514c0.521-0.591,1.267-0.887,2.233-0.887c0.311,0,0.622,0.034,0.933,0.101
			c0.313,0.066,0.558,0.146,0.733,0.236l-0.301,0.834c-0.217-0.087-0.453-0.159-0.71-0.216s-0.483-0.086-0.679-0.086
			c-1.318,0-1.977,0.84-1.977,2.52c0,0.796,0.162,1.407,0.482,1.833c0.321,0.426,0.798,0.639,1.428,0.639
			c0.541,0,1.094-0.117,1.661-0.35v0.869C679.473,456.183,678.927,456.295,678.268,456.295z"/>
		<path fill="#FFFFFF" d="M685.812,450.536h-2.105v5.641h-0.979v-5.641h-2.081v-0.84h5.166V450.536z"/>
		<path fill="#FFFFFF" d="M686.954,455.55c0-0.265,0.062-0.465,0.181-0.601c0.12-0.137,0.293-0.204,0.518-0.204
			c0.228,0,0.407,0.067,0.535,0.204c0.129,0.136,0.192,0.336,0.192,0.601c0,0.256-0.065,0.453-0.195,0.591s-0.308,0.207-0.532,0.207
			c-0.201,0-0.368-0.062-0.5-0.187C687.02,456.039,686.954,455.833,686.954,455.55z"/>
		<path fill="#FFFFFF" d="M694.158,456.295c-0.439,0-0.822-0.06-1.154-0.178v-0.981c0.367,0.17,0.739,0.254,1.117,0.254
			c0.435,0,0.782-0.1,1.044-0.298c0.262-0.199,0.523-0.573,0.784-1.121l-3.365-6.439h1.111l2.555,4.914
			c0.1,0.193,0.176,0.383,0.231,0.567h0.047c0.11-0.331,0.188-0.54,0.231-0.627l2.122-4.854h1.064l-2.761,6.186
			c-0.331,0.737-0.63,1.272-0.896,1.608c-0.266,0.335-0.566,0.58-0.899,0.736C695.056,456.217,694.646,456.295,694.158,456.295z"/>
		<path fill="#FFFFFF" d="M704.352,455.231l0.183-0.55l0.253-0.698l1.757-4.275h1.247v6.469h-0.868v-5.351l-0.118,0.343
			l-0.343,0.904l-1.675,4.104h-0.821l-1.672-4.115c-0.21-0.527-0.354-0.94-0.433-1.235v5.351h-0.875v-6.469h1.199l1.698,4.11
			C704.053,454.25,704.21,454.722,704.352,455.231z"/>
		<path fill="#FFFFFF" d="M712.624,456.295c-0.956,0-1.713-0.292-2.268-0.876c-0.554-0.583-0.831-1.394-0.831-2.43
			c0-1.045,0.259-1.875,0.772-2.489c0.515-0.615,1.206-0.923,2.072-0.923c0.813,0,1.455,0.267,1.928,0.801
			c0.474,0.535,0.71,1.239,0.71,2.114v0.621h-4.465c0.02,0.761,0.213,1.338,0.577,1.732c0.365,0.395,0.879,0.592,1.541,0.592
			c0.696,0,1.387-0.146,2.068-0.438v0.875c-0.347,0.149-0.675,0.257-0.983,0.321C713.436,456.263,713.063,456.295,712.624,456.295z
			 M712.358,450.4c-0.52,0-0.936,0.17-1.245,0.508c-0.309,0.339-0.491,0.809-0.547,1.408h3.389c0-0.619-0.139-1.094-0.414-1.422
			C713.265,450.564,712.871,450.4,712.358,450.4z"/>
	</g>
</g>
<circle fill="#FFFFFF" cx="258.488" cy="125.747" r="5.19"/>
<circle fill="#FFFFFF" cx="265.469" cy="502.892" r="4.758"/>
<circle fill="#FFFFFF" cx="157.861" cy="306.532" r="5.623"/>
<circle fill="#FFFFFF" cx="370.746" cy="303.201" r="4.656"/>
<circle fill="#FFFFFF" cx="467.203" cy="507.688" r="6.045"/>
<circle fill="#FFFFFF" cx="44.834" cy="500.108" r="6.632"/>
<g>
	<line fill="#FFFFFF" x1="258.489" y1="125.747" x2="370.919" y2="302.778"/>
	
		<rect x="209.846" y="213.397" transform="matrix(0.5361 0.8441 -0.8441 0.5361 326.8558 -166.2628)" fill="#FFFFFF" width="209.716" height="1.73"/>
</g>
<g opacity="0.6">
	<line fill="#FFFFFF" x1="258.777" y1="128.918" x2="265.259" y2="501.347"/>
	
		<rect x="75.776" y="314.268" transform="matrix(0.0174 0.9998 -0.9998 0.0174 572.5442 47.6701)" fill="#FFFFFF" width="372.485" height="1.73"/>
</g>
<g opacity="0.9">
	<line fill="#FFFFFF" x1="157.285" y1="308.262" x2="264.5" y2="502.023"/>
	
		<rect x="100.169" y="404.277" transform="matrix(0.4842 0.875 -0.875 0.4842 463.2795 24.4635)" fill="#FFFFFF" width="221.447" height="1.731"/>
</g>
<g opacity="0.5">
	<line fill="#FFFFFF" x1="47.141" y1="498.562" x2="370.764" y2="303.632"/>
	
		<rect x="208.087" y="212.2" transform="matrix(0.5156 0.8568 -0.8568 0.5156 444.9008 15.2622)" fill="#FFFFFF" width="1.731" height="377.794"/>
</g>
<g>
	<line fill="#FFFFFF" x1="42.239" y1="501.368" x2="466.667" y2="505.482"/>
	
		<rect x="42.228" y="502.56" transform="matrix(1 0.0097 -0.0097 1 4.8918 -2.4428)" fill="#FFFFFF" width="424.448" height="1.731"/>
</g>
<g>
	<line fill="#FFFFFF" x1="157.861" y1="306.532" x2="469.261" y2="509.807"/>
	
		<rect x="127.624" y="407.305" transform="matrix(0.8374 0.5466 -0.5466 0.8374 274.1078 -105.0229)" fill="#FFFFFF" width="371.876" height="1.729"/>
</g>
</svg>
