<?xml version="1.0" encoding="utf-8"?>
<!-- Generator: Adobe Illustrator 16.0.0, SVG Export Plug-In . SVG Version: 6.00 Build 0)  -->
<!DOCTYPE svg PUBLIC "-//W3C//DTD SVG 1.1//EN" "http://www.w3.org/Graphics/SVG/1.1/DTD/svg11.dtd">
<svg version="1.1" id="Layer_1" xmlns="http://www.w3.org/2000/svg" xmlns:xlink="http://www.w3.org/1999/xlink" x="0px" y="0px"
	 width="68px" height="62px" viewBox="0.225 864.785 68 62" enable-background="new 0.225 864.785 68 62" xml:space="preserve">
<linearGradient id="SVGID_1_" gradientUnits="userSpaceOnUse" x1="15.6609" y1="870.0996" x2="56.9799" y2="922.9856">
	<stop  offset="0" style="stop-color:#FFDBA3"/>
	<stop  offset="0.55" style="stop-color:#E97A85"/>
	<stop  offset="0.95" style="stop-color:#E97AC1"/>
</linearGradient>
<path fill="url(#SVGID_1_)" d="M53.655,924.593L53.655,924.593c0-1.122-0.91-2.032-2.032-2.032H17.074
	c-1.123,0-2.033,0.91-2.033,2.032s0.91,2.032,2.033,2.032h34.548C52.745,926.625,53.655,925.715,53.655,924.593L53.655,924.593z
	 M4.541,889.744c-0.385-0.801-0.094-1.787,0.69-2.209c1.498-0.805,2.251,0.611,2.968,1.592c0.794,1.086,1.699,2.102,2.742,2.954
	c2.105,1.722,4.741,2.608,7.444,2.001c0.473-0.105,0.952-0.221,1.431-0.361l-1.72-7.931c-0.205-0.943,0.42-1.874,1.385-2.03
	c0.905-0.148,1.75,0.509,1.945,1.405l1.585,7.31c4.133-2.01,7.829-5.393,9.087-9.146c0.271-0.807,0.373-1.66,0.379-2.512
	c0.012-1.787,0.081-5.605,0.081-5.605c0-0.994,0.854-1.787,1.868-1.686c0.881,0.088,1.519,0.895,1.519,1.781v5.344
	c0,1.511,0.339,3.012,1.056,4.342c1.639,3.05,4.792,5.729,8.267,7.438l1.597-7.357c0.21-0.971,1.212-1.564,2.182-1.251
	c0.843,0.274,1.295,1.199,1.106,2.065l-1.692,7.806c0.511,0.153,1.02,0.286,1.525,0.39c1.867,0.387,3.898,0.482,5.736-0.096
	c2.965-0.935,3.882-3.567,5.175-6.129c0.428-0.849,1.064-1.646,2.151-1.359c1.065,0.281,1.563,1.434,1.11,2.375L50.25,917.84
	c-0.978,2.044-3.958,0.416-3.014-1.549c0.03-0.063,9.1-18.951,9.1-18.951c-6.441,1.764-13.689-1.506-18.395-5.801
	c-0.736-0.673-1.4-1.373-1.996-2.093v9.597c0,0.993-0.854,1.787-1.868,1.685c-0.881-0.088-1.519-0.895-1.519-1.78v-9.665
	c-0.629,0.778-1.338,1.532-2.13,2.257c-3.98,3.633-9.489,6.245-14.946,6.245c-1.268,0-2.452-0.163-3.541-0.472l9.132,18.98
	c0.98,2.037-2.057,3.537-3.014,1.549L4.541,889.744z M6.128,883.599c0,1.63-1.321,2.951-2.951,2.951s-2.951-1.321-2.951-2.951
	s1.321-2.951,2.951-2.951S6.128,881.969,6.128,883.599z M68.225,882.431c0,1.663-1.349,3.013-3.013,3.013s-3.013-1.35-3.013-3.013
	c0-1.664,1.349-3.013,3.013-3.013S68.225,880.767,68.225,882.431z M21.13,879.541c0,1.562-1.267,2.828-2.828,2.828
	c-1.562,0-2.829-1.267-2.829-2.828c0-1.563,1.267-2.828,2.829-2.828C19.863,876.713,21.13,877.979,21.13,879.541z M52.486,879.664
	c0,1.494-1.212,2.705-2.706,2.705c-1.493,0-2.705-1.211-2.705-2.705s1.212-2.705,2.705-2.705
	C51.274,876.959,52.486,878.17,52.486,879.664z M37.73,868.166c0,1.868-1.515,3.382-3.382,3.382c-1.868,0-3.382-1.514-3.382-3.382
	c0-1.867,1.514-3.381,3.382-3.381C36.216,864.785,37.73,866.299,37.73,868.166z M36.869,904.994c0,1.563-1.266,2.828-2.828,2.828
	s-2.828-1.266-2.828-2.828c0-1.562,1.266-2.828,2.828-2.828S36.869,903.433,36.869,904.994z"/>
</svg>
